<svg width="50" height="50" viewBox="0 0 50 50" fill="none" xmlns="http://www.w3.org/2000/svg">
<path d="M40.3931 24.2735C40.2848 23.8787 40.0757 23.5189 39.7862 23.2294C39.4968 22.94 39.1369 22.7308 38.7421 22.6226C38.4181 22.5318 38.0786 22.5106 37.7458 22.5603C37.413 22.6099 37.0944 22.7294 36.811 22.9108C36.2824 23.2563 35.7117 23.5328 35.1129 23.7334C34.9183 23.7893 34.7144 23.8052 34.5135 23.7802C34.3126 23.7551 34.1188 23.6897 33.9438 23.5878C33.7689 23.4859 33.6163 23.3497 33.4954 23.1873C33.3745 23.0249 33.2877 22.8397 33.2403 22.6429C33.0559 21.9861 32.7918 21.3543 32.4539 20.7617C32.3511 20.5946 32.2829 20.4086 32.2531 20.2147C32.2234 20.0208 32.2327 19.8229 32.2807 19.6327C32.3287 19.4424 32.4142 19.2637 32.5324 19.1071C32.6505 18.9505 32.7988 18.8191 32.9686 18.7207C33.53 18.4211 34.1335 18.208 34.7587 18.0886C35.2206 17.9991 35.645 17.773 35.977 17.4396C36.2379 17.1783 36.4347 16.8603 36.5522 16.5104C36.6698 16.1605 36.7048 15.7881 36.6546 15.4224C36.6043 15.0567 36.4702 14.7076 36.2626 14.4023C36.0551 14.097 35.7798 13.8439 35.4582 13.6627C35.1024 13.4599 34.6998 13.3532 34.2903 13.3532C33.8807 13.3532 33.4782 13.4599 33.1223 13.6627C32.8292 13.828 32.5741 14.0533 32.3739 14.3239C32.1738 14.5945 32.0329 14.9042 31.9605 15.233C31.827 15.8707 31.6071 16.4873 31.3068 17.0655C31.2103 17.2355 31.0807 17.3844 30.9255 17.5032C30.7703 17.6221 30.5927 17.7084 30.4035 17.7571C30.2142 17.8059 30.017 17.816 29.8237 17.7869C29.6304 17.7577 29.445 17.69 29.2785 17.5877C28.6828 17.2484 28.0479 16.9834 27.3879 16.7985C27.1933 16.7516 27.0101 16.6662 26.849 16.5473C26.688 16.4285 26.5524 16.2785 26.4502 16.1064C26.348 15.9343 26.2814 15.7435 26.2541 15.5452C26.2269 15.3469 26.2397 15.1451 26.2917 14.9518C26.4765 14.3554 26.749 13.7898 27.1002 13.2735C27.3635 12.8834 27.5038 12.4234 27.503 11.9528C27.5026 11.5836 27.4168 11.2195 27.2524 10.889C27.0879 10.5584 26.8492 10.2704 26.555 10.0474C26.2608 9.82446 25.9189 9.67255 25.5563 9.60359C25.1936 9.53463 24.8198 9.5505 24.4643 9.64994C24.0695 9.75818 23.7097 9.96732 23.4202 10.2568C23.1307 10.5463 22.9216 10.9061 22.8134 11.3009C22.7226 11.6249 22.7014 11.9645 22.7511 12.2973C22.8007 12.6301 22.9202 12.9486 23.1016 13.232C23.4471 13.7607 23.7235 14.3313 23.9242 14.9301C23.9801 15.1247 23.996 15.3286 23.9709 15.5296C23.9459 15.7305 23.8805 15.9242 23.7786 16.0992C23.6767 16.2742 23.5405 16.4267 23.3781 16.5476C23.2157 16.6685 23.0305 16.7553 22.8336 16.8028C22.1769 16.9871 21.5451 17.2512 20.9525 17.5891C20.7854 17.6919 20.5994 17.7602 20.4055 17.7899C20.2116 17.8197 20.0137 17.8103 19.8234 17.7623C19.6332 17.7144 19.4545 17.6288 19.2979 17.5106C19.1413 17.3925 19.0099 17.2442 18.9115 17.0745C18.6113 16.5132 18.3982 15.9096 18.2794 15.2844C18.1915 14.8206 17.9662 14.3939 17.6327 14.0598C17.3715 13.7991 17.0536 13.6023 16.7037 13.4849C16.3539 13.3674 15.9816 13.3324 15.616 13.3827C15.2504 13.4329 14.9014 13.567 14.5962 13.7745C14.291 13.982 14.0379 14.2572 13.8568 14.5787C13.6535 14.9343 13.5464 15.3367 13.5459 15.7463C13.5454 16.1558 13.6515 16.5585 13.8539 16.9146C14.0189 17.2075 14.2437 17.4624 14.5138 17.6626C14.7839 17.8628 15.0931 18.0038 15.4214 18.0764C16.0597 18.2101 16.6767 18.4303 17.2553 18.7311C17.4255 18.8274 17.5744 18.957 17.6933 19.1122C17.8122 19.2674 17.8986 19.445 17.9474 19.6343C17.9961 19.8236 18.0062 20.0208 17.977 20.2141C17.9478 20.4074 17.88 20.5929 17.7775 20.7594C17.4383 21.355 17.1733 21.9899 16.9884 22.6499C16.9414 22.8445 16.8559 23.0277 16.7371 23.1888C16.6182 23.3498 16.4683 23.4854 16.2962 23.5877C16.1241 23.6899 15.9333 23.7567 15.7351 23.7841C15.5368 23.8115 15.335 23.7989 15.1417 23.7471C14.5447 23.5608 13.9787 23.287 13.462 22.9348C13.0719 22.6715 12.6118 22.5312 12.1412 22.532C11.7721 22.5324 11.4081 22.6181 11.0776 22.7824C10.7471 22.9468 10.4591 23.1854 10.2361 23.4795C10.0131 23.7737 9.86118 24.1154 9.79219 24.478C9.72319 24.8406 9.73899 25.2143 9.83836 25.5698C9.94661 25.9646 10.1557 26.3244 10.4452 26.6138C10.7347 26.9033 11.0945 27.1125 11.4893 27.2207C11.8133 27.3114 12.1529 27.3327 12.4857 27.283C12.8185 27.2333 13.137 27.1139 13.4204 26.9325C13.9491 26.587 14.5198 26.3105 15.1186 26.1098C15.3132 26.054 15.5172 26.0381 15.7182 26.0632C15.9191 26.0883 16.1129 26.1538 16.2879 26.2558C16.4629 26.3578 16.6154 26.4941 16.7363 26.6567C16.8571 26.8192 16.9438 27.0044 16.9912 27.2014C17.1744 27.8589 17.4374 28.4916 17.7742 29.0853C17.877 29.2525 17.9452 29.4386 17.9749 29.6326C18.0047 29.8265 17.9953 30.0245 17.9473 30.2148C17.8994 30.4051 17.8138 30.5838 17.6957 30.7406C17.5776 30.8973 17.4293 31.0288 17.2596 31.1273C16.6981 31.4267 16.0946 31.6395 15.4695 31.7584C15.0076 31.8481 14.5832 32.0742 14.2511 32.4075C13.9903 32.6687 13.7934 32.9867 13.6759 33.3366C13.5584 33.6866 13.5234 34.0589 13.5736 34.4246C13.6238 34.7903 13.758 35.1395 13.9655 35.4447C14.1731 35.75 14.4484 36.0032 14.77 36.1844C15.1257 36.387 15.528 36.4936 15.9374 36.4936C16.3468 36.4936 16.7492 36.387 17.1049 36.1844C17.3979 36.0191 17.6529 35.7939 17.8531 35.5235C18.0532 35.2531 18.1942 34.9436 18.2667 34.615C18.4003 33.9769 18.6206 33.36 18.9214 32.7815C19.0177 32.6114 19.1473 32.4625 19.3025 32.3436C19.4577 32.2247 19.6353 32.1383 19.8246 32.0895C20.0139 32.0408 20.2111 32.0307 20.4044 32.0599C20.5977 32.0891 20.7832 32.1569 20.9497 32.2594C21.5453 32.5986 22.1802 32.8636 22.8403 33.0485C23.0349 33.0956 23.2182 33.1811 23.3792 33.3C23.5403 33.419 23.676 33.5689 23.7782 33.7411C23.8805 33.9133 23.9472 34.1042 23.9746 34.3026C24.0019 34.5009 23.9893 34.7028 23.9374 34.8962C23.7516 35.4921 23.4789 36.0573 23.128 36.5735C22.8648 36.9637 22.7245 37.4237 22.7252 37.8943C22.7255 38.2634 22.8113 38.6274 22.9756 38.9579C23.14 39.2885 23.3786 39.5765 23.6727 39.7995C23.9668 40.0226 24.3085 40.1746 24.6711 40.2437C25.0337 40.3129 25.4073 40.2972 25.7629 40.198C26.1577 40.0898 26.5175 39.8807 26.807 39.5912C27.0965 39.3017 27.3056 38.9419 27.4138 38.5471C27.5046 38.2231 27.5258 37.8835 27.4761 37.5507C27.4265 37.2179 27.307 36.8994 27.1256 36.616C26.7801 36.0873 26.5037 35.5167 26.303 34.9179C26.2471 34.7233 26.2312 34.5194 26.2563 34.3184C26.2813 34.1175 26.3467 33.9237 26.4486 33.7488C26.5505 33.5738 26.6867 33.4213 26.8491 33.3004C27.0115 33.1795 27.1967 33.0927 27.3936 33.0452C28.0503 32.8608 28.6821 32.5968 29.2747 32.2589C29.4419 32.1562 29.6279 32.0879 29.8219 32.0582C30.0159 32.0285 30.2139 32.0378 30.4042 32.0858C30.5944 32.1338 30.7732 32.2193 30.9299 32.3374C31.0866 32.4555 31.2181 32.6038 31.3167 32.7735C31.616 33.3351 31.8287 33.9386 31.9478 34.5636C32.0375 35.0255 32.2636 35.4499 32.5969 35.782C32.8581 36.0428 33.1761 36.2397 33.526 36.3572C33.8759 36.4747 34.2483 36.5098 34.614 36.4595C34.9797 36.4093 35.3289 36.2751 35.6341 36.0676C35.9394 35.8601 36.1925 35.5847 36.3737 35.2631C36.5764 34.9074 36.683 34.5051 36.683 34.0957C36.683 33.6863 36.5764 33.284 36.3737 32.9282C36.2088 32.6349 35.9837 32.3796 35.7133 32.1793C35.4428 31.9789 35.1331 31.8379 34.8044 31.7655C34.1663 31.6322 33.5494 31.4122 32.9709 31.1117C32.8009 31.0153 32.652 30.8856 32.5332 30.7304C32.4144 30.5752 32.328 30.3977 32.2793 30.2084C32.2306 30.0191 32.2204 29.822 32.2496 29.6287C32.2787 29.4354 32.3464 29.25 32.4487 29.0834C32.7904 28.4895 33.0582 27.8561 33.2459 27.1971C33.2929 27.0025 33.3784 26.8192 33.4973 26.6581C33.6162 26.497 33.7663 26.3614 33.9385 26.2592C34.1107 26.157 34.3016 26.0904 34.5 26.0632C34.6984 26.036 34.9002 26.0488 35.0936 26.1009C35.6896 26.2859 36.2549 26.5584 36.7709 26.9094C37.161 27.1726 37.6211 27.3129 38.0917 27.3122C38.4607 27.3116 38.8247 27.2257 39.155 27.0611C39.4854 26.8966 39.7732 26.6579 39.996 26.3636C40.2188 26.0694 40.3706 25.7277 40.4395 25.3651C40.5084 25.0025 40.4925 24.6289 40.3931 24.2735Z" fill="white" stroke="#0C0F1E" stroke-width="0.571646" stroke-linecap="round" stroke-linejoin="round"/>
<path d="M23.3105 20.1682C23.9524 20.1682 24.4727 19.6478 24.4727 19.0058C24.4727 18.3638 23.9524 17.8433 23.3105 17.8433C22.6686 17.8433 22.1482 18.3638 22.1482 19.0058C22.1482 19.6478 22.6686 20.1682 23.3105 20.1682Z" fill="#75E4A5"/>
<path d="M23.1847 31.1808C23.6051 31.1808 23.946 30.8399 23.946 30.4194C23.946 29.9989 23.6051 29.658 23.1847 29.658C22.7642 29.658 22.4233 29.9989 22.4233 30.4194C22.4233 30.8399 22.7642 31.1808 23.1847 31.1808Z" fill="#75E4A5"/>
<path d="M23.9457 27.2628C24.2117 27.2628 24.4273 27.0471 24.4273 26.7811C24.4273 26.5151 24.2117 26.2994 23.9457 26.2994C23.6797 26.2994 23.4641 26.5151 23.4641 26.7811C23.4641 27.0471 23.6797 27.2628 23.9457 27.2628Z" fill="#75E4A5"/>
<path d="M31.3449 10.7563C31.6109 10.7563 31.8265 10.5407 31.8265 10.2747C31.8265 10.0086 31.6109 9.79297 31.3449 9.79297C31.0789 9.79297 30.8633 10.0086 30.8633 10.2747C30.8633 10.5407 31.0789 10.7563 31.3449 10.7563Z" fill="#75E4A5"/>
<path d="M26.5311 25.1142C26.6366 25.1142 26.7222 25.0286 26.7222 24.9231C26.7222 24.8176 26.6366 24.7321 26.5311 24.7321C26.4256 24.7321 26.3401 24.8176 26.3401 24.9231C26.3401 25.0286 26.4256 25.1142 26.5311 25.1142Z" fill="#75E4A5"/>
<path d="M37.817 25.1383C37.9225 25.1383 38.0081 25.0528 38.0081 24.9472C38.0081 24.8417 37.9225 24.7562 37.817 24.7562C37.7115 24.7562 37.626 24.8417 37.626 24.9472C37.626 25.0528 37.7115 25.1383 37.817 25.1383Z" fill="#75E4A5"/>
<path d="M34.1036 34.1316C34.2091 34.1316 34.2947 34.046 34.2947 33.9405C34.2947 33.835 34.2091 33.7495 34.1036 33.7495C33.9981 33.7495 33.9126 33.835 33.9126 33.9405C33.9126 34.046 33.9981 34.1316 34.1036 34.1316Z" fill="#75E4A5"/>
<path d="M16.6476 15.8265C16.7531 15.8265 16.8386 15.7409 16.8386 15.6354C16.8386 15.5299 16.7531 15.4443 16.6476 15.4443C16.5421 15.4443 16.4565 15.5299 16.4565 15.6354C16.4565 15.7409 16.5421 15.8265 16.6476 15.8265Z" fill="#75E4A5"/>
<path d="M20.3138 25.7355C20.5381 25.7355 20.72 25.5536 20.72 25.3293C20.72 25.105 20.5381 24.9231 20.3138 24.9231C20.0895 24.9231 19.9077 25.105 19.9077 25.3293C19.9077 25.5536 20.0895 25.7355 20.3138 25.7355Z" fill="#0C0F1E"/>
<path d="M18.7929 21.7935C18.8549 21.7935 18.9052 21.7432 18.9052 21.6812C18.9052 21.6192 18.8549 21.5689 18.7929 21.5689C18.7309 21.5689 18.6807 21.6192 18.6807 21.6812C18.6807 21.7432 18.7309 21.7935 18.7929 21.7935Z" fill="#0C0F1E"/>
<path d="M29.9052 28.9849C29.9672 28.9849 30.0175 28.9346 30.0175 28.8726C30.0175 28.8106 29.9672 28.7603 29.9052 28.7603C29.8432 28.7603 29.793 28.8106 29.793 28.8726C29.793 28.9346 29.8432 28.9849 29.9052 28.9849Z" fill="#0C0F1E"/>
<path d="M19.9077 29.0971C19.9697 29.0971 20.0199 29.0469 20.0199 28.9848C20.0199 28.9228 19.9697 28.8726 19.9077 28.8726C19.8457 28.8726 19.7954 28.9228 19.7954 28.9848C19.7954 29.0469 19.8457 29.0971 19.9077 29.0971Z" fill="#0C0F1E"/>
<path d="M33.9011 16.0419C34.0133 16.0419 34.1044 15.9509 34.1044 15.8386C34.1044 15.7263 34.0133 15.6353 33.9011 15.6353C33.7888 15.6353 33.6978 15.7263 33.6978 15.8386C33.6978 15.9509 33.7888 16.0419 33.9011 16.0419Z" fill="#0C0F1E"/>
<path d="M30.2775 26.6024C30.4825 26.6024 30.6487 26.4362 30.6487 26.2312C30.6487 26.0261 30.4825 25.8599 30.2775 25.8599C30.0725 25.8599 29.9062 26.0261 29.9062 26.2312C29.9062 26.4362 30.0725 26.6024 30.2775 26.6024Z" fill="#0C0F1E"/>
<path d="M11.9205 19.6619C12.1256 19.6619 12.2918 19.4957 12.2918 19.2907C12.2918 19.0856 12.1256 18.9194 11.9205 18.9194C11.7155 18.9194 11.5493 19.0856 11.5493 19.2907C11.5493 19.4957 11.7155 19.6619 11.9205 19.6619Z" fill="#0C0F1E"/>
<path d="M27.4539 21.2317C27.611 21.2317 27.7383 21.1043 27.7383 20.9472C27.7383 20.7901 27.611 20.6627 27.4539 20.6627C27.2968 20.6627 27.1694 20.7901 27.1694 20.9472C27.1694 21.1043 27.2968 21.2317 27.4539 21.2317Z" fill="#0C0F1E"/>
<path d="M37.6255 19.2902C37.7826 19.2902 37.9099 19.1628 37.9099 19.0057C37.9099 18.8486 37.7826 18.7212 37.6255 18.7212C37.4684 18.7212 37.3411 18.8486 37.3411 19.0057C37.3411 19.1628 37.4684 19.2902 37.6255 19.2902Z" fill="#0C0F1E"/>
<path d="M16.6478 33.9411C16.8529 33.9411 17.0191 33.7749 17.0191 33.5698C17.0191 33.3648 16.8529 33.1985 16.6478 33.1985C16.4428 33.1985 16.2766 33.3648 16.2766 33.5698C16.2766 33.7749 16.4428 33.9411 16.6478 33.9411Z" fill="#0C0F1E"/>
<path d="M23.0954 21.9755C23.2145 21.9755 23.311 21.879 23.311 21.7599C23.311 21.6408 23.2145 21.5443 23.0954 21.5443C22.9764 21.5443 22.8799 21.6408 22.8799 21.7599C22.8799 21.879 22.9764 21.9755 23.0954 21.9755Z" fill="#75E4A5"/>
<path d="M26.3401 11.6618C26.4591 11.6618 26.5556 11.5653 26.5556 11.4462C26.5556 11.3271 26.4591 11.2306 26.3401 11.2306C26.221 11.2306 26.1245 11.3271 26.1245 11.4462C26.1245 11.5653 26.221 11.6618 26.3401 11.6618Z" fill="#75E4A5"/>
<path d="M24.4739 12.642C24.5929 12.642 24.6894 12.5455 24.6894 12.4264C24.6894 12.3073 24.5929 12.2108 24.4739 12.2108C24.3548 12.2108 24.2583 12.3073 24.2583 12.4264C24.2583 12.5455 24.3548 12.642 24.4739 12.642Z" fill="#75E4A5"/>
<path d="M30.6482 20.6839C30.7672 20.6839 30.8638 20.5874 30.8638 20.4683C30.8638 20.3492 30.7672 20.2527 30.6482 20.2527C30.5291 20.2527 30.4326 20.3492 30.4326 20.4683C30.4326 20.5874 30.5291 20.6839 30.6482 20.6839Z" fill="#75E4A5"/>
<path d="M27.2385 30.8506C27.3576 30.8506 27.4541 30.754 27.4541 30.635C27.4541 30.5159 27.3576 30.4194 27.2385 30.4194C27.1195 30.4194 27.0229 30.5159 27.0229 30.635C27.0229 30.754 27.1195 30.8506 27.2385 30.8506Z" fill="#75E4A5"/>
<path d="M25.116 38.1406C25.235 38.1406 25.3315 38.044 25.3315 37.925C25.3315 37.8059 25.235 37.7094 25.116 37.7094C24.9969 37.7094 24.9004 37.8059 24.9004 37.925C24.9004 38.044 24.9969 38.1406 25.116 38.1406Z" fill="#75E4A5"/>
<path d="M11.6077 24.9477C11.7267 24.9477 11.8232 24.8512 11.8232 24.7321C11.8232 24.613 11.7267 24.5165 11.6077 24.5165C11.4886 24.5165 11.3921 24.613 11.3921 24.7321C11.3921 24.8512 11.4886 24.9477 11.6077 24.9477Z" fill="#75E4A5"/>
<path d="M29.4165 23.3398C29.3794 23.3287 29.3396 23.3302 29.3034 23.3441C29.2672 23.358 29.2366 23.3836 29.2165 23.4167C29.206 23.4341 29.1911 23.4482 29.1732 23.4578C29.1554 23.4673 29.1353 23.4719 29.1151 23.471C29.0896 23.4694 29.0654 23.4592 29.0464 23.4421C29.0275 23.4249 29.015 23.4019 29.0108 23.3766C28.9916 23.2636 28.9459 23.1567 28.8773 23.0648C28.8655 23.0483 28.8595 23.0282 28.8606 23.0079C28.8616 22.9876 28.8695 22.9682 28.883 22.953L28.9038 22.9294C28.9161 22.9165 28.9318 22.9074 28.949 22.903C28.9663 22.8987 28.9845 22.8993 29.0014 22.9049C29.0378 22.9148 29.0765 22.9126 29.1116 22.8985C29.1467 22.8845 29.1762 22.8594 29.1957 22.827C29.2114 22.8008 29.2196 22.7708 29.2196 22.7402C29.2196 22.7097 29.2114 22.6797 29.1957 22.6534C29.1749 22.6162 29.141 22.588 29.1006 22.5743C29.0603 22.5605 29.0162 22.5623 28.977 22.5791C28.9378 22.5959 28.9062 22.6266 28.8884 22.6654C28.8705 22.7041 28.8676 22.7481 28.8802 22.7888C28.8843 22.8059 28.8835 22.8238 28.878 22.8404C28.8725 22.8571 28.8625 22.8719 28.849 22.8832L28.8311 22.8992C28.8161 22.913 28.7968 22.9212 28.7764 22.9224C28.756 22.9236 28.7359 22.9177 28.7193 22.9058C28.6269 22.8374 28.5198 22.7913 28.4066 22.7714C28.3814 22.7676 28.3582 22.7553 28.3411 22.7365C28.3239 22.7176 28.3137 22.6935 28.3123 22.668C28.3109 22.6476 28.3153 22.6272 28.3249 22.6092C28.3344 22.5911 28.3489 22.576 28.3665 22.5657C28.399 22.5463 28.4242 22.5167 28.4382 22.4816C28.4523 22.4465 28.4544 22.4077 28.4443 22.3713C28.4366 22.3429 28.4216 22.3169 28.4008 22.296C28.3801 22.2751 28.3543 22.2599 28.3259 22.2519C28.2855 22.2387 28.2416 22.2408 28.2026 22.258C28.1637 22.2751 28.1324 22.3061 28.1149 22.3448C28.0973 22.3836 28.0947 22.4275 28.1076 22.4681C28.1204 22.5087 28.1478 22.5431 28.1844 22.5647C28.2023 22.5752 28.217 22.5903 28.2269 22.6086C28.2368 22.6268 28.2415 22.6473 28.2406 22.668C28.2391 22.6935 28.2289 22.7176 28.2117 22.7365C28.1946 22.7553 28.1714 22.7676 28.1462 22.7714C28.0327 22.7915 27.9254 22.8375 27.8325 22.9058C27.8162 22.9178 27.7961 22.9236 27.7759 22.9224C27.7557 22.9212 27.7365 22.913 27.7217 22.8992L27.6981 22.8784C27.6854 22.866 27.6764 22.8503 27.6722 22.833C27.6681 22.8157 27.6688 22.7976 27.6745 22.7808C27.6845 22.7444 27.6821 22.7057 27.6679 22.6707C27.6537 22.6358 27.6283 22.6065 27.5957 22.5874C27.5695 22.5717 27.5395 22.5635 27.5089 22.5635C27.4784 22.5635 27.4484 22.5717 27.4222 22.5874C27.3849 22.6082 27.3568 22.6421 27.343 22.6825C27.3293 22.7229 27.331 22.7669 27.3478 22.8061C27.3646 22.8453 27.3954 22.8769 27.4341 22.8948C27.4728 22.9127 27.5168 22.9156 27.5575 22.903C27.5745 22.8988 27.5923 22.8994 27.609 22.9047C27.6256 22.91 27.6405 22.9199 27.6519 22.9332L27.6689 22.952C27.6823 22.9673 27.6903 22.9866 27.6913 23.007C27.6923 23.0273 27.6864 23.0473 27.6745 23.0639C27.606 23.1558 27.5602 23.2627 27.541 23.3757C27.5369 23.4009 27.5243 23.424 27.5054 23.4411C27.4865 23.4583 27.4623 23.4685 27.4368 23.4701C27.4166 23.4709 27.3965 23.4664 27.3786 23.4568C27.3608 23.4473 27.3458 23.4331 27.3354 23.4158C27.3153 23.3826 27.2847 23.3571 27.2485 23.3432C27.2123 23.3292 27.1725 23.3277 27.1354 23.3389C27.1079 23.3471 27.0831 23.3622 27.0632 23.3828C27.0433 23.4033 27.029 23.4287 27.0217 23.4564C27.0103 23.4964 27.0138 23.5392 27.0315 23.5769C27.0492 23.6146 27.0799 23.6446 27.118 23.6614C27.1561 23.6782 27.1989 23.6807 27.2387 23.6685C27.2785 23.6562 27.3125 23.63 27.3344 23.5946C27.3449 23.5769 27.3599 23.5623 27.3779 23.5525C27.3959 23.5426 27.4162 23.5377 27.4368 23.5385C27.4622 23.5402 27.4863 23.5505 27.5052 23.5676C27.5241 23.5847 27.5367 23.6077 27.541 23.6328C27.5602 23.7459 27.606 23.8527 27.6745 23.9447C27.6864 23.9612 27.6923 23.9812 27.6913 24.0016C27.6903 24.0219 27.6823 24.0412 27.6689 24.0565L27.6481 24.0801C27.6358 24.0929 27.6201 24.1021 27.6028 24.1064C27.5855 24.1108 27.5674 24.1101 27.5505 24.1046C27.514 24.0946 27.4753 24.0969 27.4402 24.1109C27.4052 24.125 27.3756 24.1501 27.3561 24.1824C27.3405 24.2087 27.3323 24.2387 27.3323 24.2692C27.3323 24.2998 27.3405 24.3298 27.3561 24.356C27.377 24.3933 27.4108 24.4215 27.4512 24.4352C27.4916 24.4489 27.5356 24.4472 27.5748 24.4304C27.614 24.4136 27.6456 24.3828 27.6635 24.3441C27.6814 24.3054 27.6843 24.2614 27.6717 24.2206C27.6676 24.2036 27.6683 24.1857 27.6738 24.169C27.6793 24.1524 27.6894 24.1376 27.7028 24.1263L27.7207 24.1102C27.7358 24.0963 27.7552 24.0882 27.7756 24.0871C27.796 24.0861 27.8162 24.0923 27.8325 24.1046C27.9251 24.1726 28.0321 24.2183 28.1453 24.2381C28.1705 24.2419 28.1936 24.2542 28.2108 24.273C28.228 24.2918 28.2382 24.316 28.2396 24.3414C28.2409 24.3618 28.2366 24.3822 28.227 24.4003C28.2174 24.4184 28.203 24.4334 28.1854 24.4438C28.1521 24.4636 28.1266 24.494 28.1128 24.5301C28.099 24.5663 28.0978 24.606 28.1094 24.6429C28.1176 24.6703 28.1325 24.6952 28.1529 24.7152C28.1733 24.7353 28.1984 24.7498 28.2259 24.7575C28.2664 24.7708 28.3103 24.7686 28.3492 24.7515C28.3882 24.7343 28.4194 24.7034 28.437 24.6646C28.4545 24.6258 28.4571 24.5819 28.4443 24.5414C28.4315 24.5008 28.4041 24.4664 28.3674 24.4447C28.3495 24.4343 28.3347 24.4192 28.3248 24.401C28.3149 24.3827 28.3103 24.3621 28.3113 24.3414C28.3128 24.316 28.3229 24.2918 28.3401 24.273C28.3573 24.2542 28.3804 24.2419 28.4056 24.2381C28.5188 24.2183 28.6258 24.1726 28.7184 24.1046C28.7347 24.0923 28.7549 24.0861 28.7753 24.0871C28.7957 24.0882 28.8152 24.0963 28.8302 24.1102L28.8538 24.131C28.8665 24.1434 28.8755 24.1592 28.8796 24.1764C28.8838 24.1937 28.883 24.2118 28.8773 24.2287C28.8687 24.2616 28.8698 24.2963 28.8807 24.3285C28.8916 24.3607 28.9117 24.3891 28.9385 24.41C28.9653 24.4309 28.9977 24.4435 29.0316 24.4461C29.0655 24.4488 29.0995 24.4414 29.1292 24.4249C29.1524 24.4117 29.1721 24.3933 29.187 24.3712C29.2019 24.3491 29.2115 24.3238 29.215 24.2974C29.2186 24.271 29.216 24.2441 29.2075 24.2189C29.199 24.1936 29.1848 24.1707 29.166 24.1518C29.144 24.1293 29.1162 24.1135 29.0857 24.106C29.0552 24.0985 29.0233 24.0996 28.9934 24.1093C28.9763 24.1134 28.9584 24.1127 28.9418 24.1072C28.9251 24.1017 28.9103 24.0916 28.899 24.0782L28.8821 24.0593C28.8686 24.0441 28.8607 24.0247 28.8596 24.0044C28.8586 23.9841 28.8645 23.964 28.8764 23.9475C28.9449 23.8556 28.9907 23.7487 29.0099 23.6356C29.0142 23.6105 29.0268 23.5875 29.0457 23.5704C29.0646 23.5533 29.0887 23.543 29.1141 23.5413C29.1347 23.5406 29.155 23.5454 29.173 23.5553C29.191 23.5652 29.2061 23.5797 29.2165 23.5974C29.2385 23.6328 29.2725 23.659 29.3122 23.6713C29.352 23.6836 29.3949 23.6811 29.4329 23.6642C29.471 23.6474 29.5017 23.6174 29.5194 23.5797C29.5371 23.5421 29.5406 23.4992 29.5292 23.4592C29.5223 23.4313 29.5083 23.4056 29.4885 23.3847C29.4688 23.3638 29.444 23.3483 29.4165 23.3398Z" fill="#75E4A5"/>
<path d="M8.90052 21.8138C8.82859 21.7916 8.75126 21.7941 8.68094 21.821C8.61062 21.848 8.5514 21.8978 8.51278 21.9625C8.49232 21.9965 8.46297 22.0242 8.42789 22.0428C8.39281 22.0613 8.35334 22.0699 8.31373 22.0677C8.26461 22.0646 8.21797 22.045 8.18134 22.0121C8.14471 21.9793 8.12023 21.935 8.11184 21.8865C8.07393 21.6662 7.9851 21.4578 7.85241 21.2779C7.82886 21.2461 7.81703 21.2071 7.81892 21.1676C7.82081 21.128 7.83631 21.0903 7.86278 21.0609L7.90429 21.0137C7.92816 20.989 7.95851 20.9714 7.99187 20.9631C8.02523 20.9547 8.06026 20.9559 8.09297 20.9665C8.16476 20.986 8.24098 20.981 8.30963 20.9524C8.37828 20.9238 8.43548 20.8731 8.47222 20.8085C8.50896 20.7438 8.52316 20.6687 8.51259 20.5951C8.50202 20.5215 8.46728 20.4534 8.41383 20.4017C8.36038 20.35 8.29125 20.3175 8.21733 20.3094C8.1434 20.3012 8.06886 20.3179 8.00544 20.3567C7.94201 20.3956 7.8933 20.4544 7.86697 20.524C7.84063 20.5936 7.83817 20.6699 7.85995 20.741C7.86843 20.775 7.86731 20.8106 7.85673 20.8439C7.84616 20.8772 7.82653 20.9069 7.80005 20.9297L7.76326 20.9618C7.73401 20.9882 7.69658 21.0037 7.65724 21.0058C7.61791 21.0079 7.57906 20.9963 7.54722 20.9731C7.36733 20.8403 7.15901 20.7512 6.93873 20.7127C6.88999 20.7047 6.84543 20.6803 6.81235 20.6436C6.77927 20.607 6.75963 20.5601 6.75665 20.5108C6.75441 20.4712 6.76313 20.4318 6.78186 20.3968C6.80058 20.3618 6.82858 20.3327 6.86278 20.3127C6.92541 20.2746 6.97396 20.2172 7.0011 20.1491C7.02825 20.081 7.03251 20.006 7.01326 19.9352C6.99833 19.8799 6.96925 19.8294 6.92889 19.7887C6.88853 19.748 6.83828 19.7185 6.78307 19.7031C6.705 19.6807 6.62146 19.6873 6.54784 19.7216C6.47423 19.7559 6.4155 19.8157 6.38247 19.8899C6.34945 19.9642 6.34435 20.0478 6.36812 20.1255C6.3919 20.2032 6.44294 20.2697 6.51184 20.3127C6.54647 20.333 6.57491 20.3623 6.59411 20.3975C6.6133 20.4328 6.62253 20.4726 6.6208 20.5127C6.61787 20.5619 6.59837 20.6086 6.56547 20.6453C6.53258 20.6819 6.48824 20.7064 6.43967 20.7146C6.21885 20.7528 6.0101 20.8423 5.83024 20.976C5.79822 20.9989 5.75935 21.0101 5.72006 21.0079C5.68077 21.0057 5.64342 20.9901 5.6142 20.9637L5.56703 20.9222C5.54228 20.8983 5.52473 20.868 5.51639 20.8346C5.50805 20.8012 5.50925 20.7662 5.51986 20.7335C5.5393 20.6617 5.53432 20.5855 5.50571 20.5168C5.4771 20.4481 5.42648 20.3909 5.36181 20.3542C5.29714 20.3174 5.2221 20.3032 5.14848 20.3138C5.07486 20.3244 5.00684 20.3591 4.95512 20.4126C4.9034 20.466 4.87092 20.5352 4.86278 20.6091C4.85463 20.6831 4.8713 20.7576 4.91015 20.821C4.949 20.8845 5.00783 20.9332 5.07738 20.9595C5.14694 20.9859 5.22328 20.9883 5.29439 20.9665C5.32837 20.9578 5.36414 20.9589 5.39755 20.9696C5.43095 20.9804 5.4606 21.0004 5.48307 21.0274L5.51514 21.0633C5.5416 21.0927 5.55716 21.1303 5.55922 21.1698C5.56128 21.2093 5.54972 21.2483 5.52646 21.2803C5.3931 21.4599 5.3039 21.6684 5.26609 21.8889C5.25786 21.9374 5.23342 21.9818 5.19676 22.0147C5.16009 22.0476 5.11337 22.0671 5.0642 22.07C5.02472 22.0723 4.98538 22.0636 4.95046 22.0451C4.91553 22.0265 4.88635 21.9988 4.86609 21.9648C4.82719 21.9002 4.76779 21.8505 4.69735 21.8235C4.62691 21.7966 4.54948 21.794 4.47741 21.8162C4.42415 21.8323 4.37581 21.8616 4.33689 21.9013C4.29797 21.9411 4.26972 21.99 4.25477 22.0436C4.23236 22.1217 4.23893 22.2052 4.27325 22.2789C4.30757 22.3525 4.36735 22.4112 4.44155 22.4443C4.51576 22.4773 4.5994 22.4824 4.67707 22.4586C4.75473 22.4348 4.82119 22.3838 4.8642 22.3149C4.88448 22.2802 4.91382 22.2518 4.94906 22.2326C4.9843 22.2134 5.02411 22.2042 5.0642 22.2059C5.1135 22.2089 5.16033 22.2285 5.19702 22.2616C5.2337 22.2947 5.25805 22.3393 5.26609 22.388C5.3041 22.6081 5.39328 22.8163 5.52646 22.9956C5.54972 23.0276 5.56128 23.0667 5.55922 23.1062C5.55716 23.1457 5.5416 23.1833 5.51514 23.2127L5.47363 23.2598C5.44976 23.2846 5.41942 23.3021 5.38606 23.3105C5.3527 23.3188 5.31766 23.3176 5.28495 23.307C5.21295 23.2874 5.13646 23.2923 5.06755 23.3209C4.99863 23.3496 4.94119 23.4003 4.90427 23.4652C4.86735 23.53 4.85306 23.6054 4.86364 23.6792C4.87421 23.7531 4.90906 23.8214 4.96269 23.8733C5.01633 23.9252 5.08569 23.9578 5.15988 23.9659C5.23406 23.9741 5.30885 23.9573 5.37246 23.9183C5.43606 23.8792 5.48488 23.8201 5.51123 23.7503C5.53757 23.6805 5.53995 23.6039 5.51797 23.5325C5.50898 23.4985 5.50994 23.4627 5.52072 23.4292C5.53151 23.3958 5.55168 23.3661 5.57882 23.3438L5.61467 23.3108C5.64418 23.2845 5.68183 23.2691 5.72132 23.2672C5.76082 23.2653 5.79977 23.277 5.83165 23.3004C6.01151 23.4331 6.21988 23.522 6.44014 23.5599C6.48864 23.5683 6.53289 23.5928 6.56575 23.6294C6.59862 23.666 6.61818 23.7127 6.62127 23.7618C6.62352 23.8014 6.61491 23.8409 6.59638 23.876C6.57784 23.9111 6.55008 23.9404 6.51609 23.9609C6.45144 23.9995 6.40164 24.0587 6.37469 24.1291C6.34775 24.1994 6.34521 24.2768 6.3675 24.3487C6.38357 24.402 6.41284 24.4503 6.45259 24.4892C6.49234 24.5282 6.54128 24.5564 6.59486 24.5714C6.64498 24.5858 6.69778 24.5885 6.74908 24.579C6.80039 24.5696 6.84881 24.5484 6.89052 24.5171C6.93223 24.4857 6.96609 24.4451 6.98944 24.3985C7.01279 24.3518 7.02498 24.3004 7.02505 24.2482C7.0249 24.1914 7.01021 24.1355 6.98239 24.086C6.95456 24.0364 6.91453 23.9948 6.86609 23.9651C6.83142 23.9447 6.80297 23.9151 6.78378 23.8797C6.76459 23.8443 6.75537 23.8044 6.75712 23.7642C6.76027 23.7149 6.77996 23.6682 6.81302 23.6315C6.84607 23.5948 6.89053 23.5704 6.9392 23.5622C7.15912 23.5241 7.36714 23.4353 7.54675 23.3028C7.57863 23.2794 7.61758 23.2677 7.65707 23.2695C7.69657 23.2714 7.73422 23.2868 7.76373 23.3131L7.8109 23.3547C7.83565 23.3785 7.8532 23.4089 7.86154 23.4423C7.86988 23.4756 7.86867 23.5107 7.85807 23.5434C7.83874 23.6142 7.84307 23.6894 7.8704 23.7575C7.89774 23.8256 7.94657 23.883 8.00948 23.9208C8.06017 23.9517 8.11824 23.9683 8.1776 23.969C8.23695 23.9697 8.29538 23.9543 8.34675 23.9246C8.41829 23.8836 8.47228 23.8178 8.49843 23.7396C8.52458 23.6614 8.52106 23.5763 8.48854 23.5005C8.45603 23.4248 8.39679 23.3636 8.3221 23.3287C8.24742 23.2938 8.16251 23.2876 8.08354 23.3113C8.04965 23.3202 8.0139 23.3194 7.98048 23.3088C7.94706 23.2982 7.91736 23.2782 7.89486 23.2513L7.86278 23.2112C7.83631 23.1818 7.82081 23.1441 7.81892 23.1046C7.81703 23.065 7.82886 23.0261 7.85241 22.9942C7.98492 22.8146 8.07374 22.6065 8.11184 22.3866C8.12004 22.3379 8.14444 22.2934 8.18109 22.2604C8.21773 22.2273 8.26448 22.2076 8.31373 22.2045C8.35395 22.2027 8.39389 22.2119 8.42929 22.2311C8.46468 22.2503 8.49419 22.2788 8.51467 22.3135C8.54437 22.3619 8.58596 22.4019 8.6355 22.4298C8.68504 22.4576 8.74087 22.4723 8.79769 22.4724C8.84986 22.4724 8.90129 22.4602 8.94794 22.4368C8.99459 22.4135 9.03518 22.3796 9.06651 22.3379C9.09784 22.2962 9.11905 22.2478 9.12847 22.1964C9.1379 22.1451 9.13527 22.0923 9.1208 22.0422C9.10621 21.9887 9.07837 21.9397 9.03988 21.8998C9.00138 21.8599 8.95345 21.8304 8.90052 21.8138Z" fill="#75E4A5"/>
<path d="M17.0416 8.52233C17.0085 8.51205 16.9729 8.51321 16.9406 8.52561C16.9082 8.53802 16.881 8.56096 16.8633 8.59073C16.8539 8.60616 16.8404 8.61871 16.8243 8.62702C16.8083 8.63534 16.7903 8.6391 16.7723 8.63791C16.7494 8.63675 16.7276 8.62786 16.7105 8.61269C16.6933 8.59751 16.6818 8.57696 16.6779 8.55441C16.6604 8.45343 16.6196 8.35794 16.5586 8.27559C16.5479 8.26093 16.5426 8.24308 16.5435 8.22499C16.5443 8.2069 16.5513 8.18963 16.5633 8.17605L16.5822 8.15434C16.5932 8.14287 16.6072 8.13475 16.6227 8.13091C16.6381 8.12707 16.6543 8.12767 16.6694 8.13264C16.7024 8.14149 16.7373 8.13914 16.7687 8.12597C16.8002 8.1128 16.8264 8.08954 16.8432 8.05986C16.8599 8.03018 16.8664 7.99576 16.8615 7.96202C16.8566 7.92827 16.8406 7.8971 16.8161 7.87343C16.7916 7.84975 16.7598 7.8349 16.7259 7.83122C16.6921 7.82753 16.6579 7.83521 16.6288 7.85306C16.5998 7.87091 16.5775 7.89791 16.5655 7.92982C16.5534 7.96173 16.5523 7.99673 16.5623 8.02932C16.5668 8.04481 16.5665 8.06126 16.5616 8.07661C16.5568 8.09196 16.5475 8.10554 16.535 8.11566L16.519 8.13076C16.5054 8.14289 16.4882 8.14999 16.47 8.15085C16.4519 8.15171 16.434 8.14628 16.4194 8.13547C16.3367 8.07446 16.241 8.03359 16.1397 8.01611C16.1171 8.01235 16.0964 8.00092 16.0812 7.98374C16.066 7.96656 16.0572 7.94468 16.0562 7.92176C16.0552 7.90375 16.0591 7.88581 16.0674 7.8698C16.0757 7.85378 16.0881 7.84029 16.1034 7.83071C16.129 7.8152 16.1496 7.79258 16.1626 7.76559C16.1757 7.73861 16.1806 7.70841 16.1768 7.67869C16.173 7.64896 16.1607 7.62097 16.1413 7.59813C16.1219 7.57528 16.0963 7.55857 16.0675 7.55C16.0445 7.54336 16.0202 7.54216 15.9966 7.5465C15.973 7.55083 15.9507 7.56059 15.9315 7.57499C15.9123 7.58939 15.8967 7.60805 15.8859 7.6295C15.8752 7.65095 15.8695 7.67461 15.8694 7.69861C15.8694 7.72493 15.8763 7.75081 15.8892 7.77371C15.9022 7.79661 15.9209 7.81576 15.9435 7.82929C15.9589 7.83891 15.9715 7.85255 15.9798 7.86876C15.9881 7.88496 15.9919 7.90312 15.9906 7.92129C15.9897 7.94421 15.9808 7.96609 15.9656 7.98327C15.9504 8.00045 15.9298 8.01188 15.9072 8.01564C15.806 8.03331 15.7102 8.07416 15.6274 8.135C15.613 8.14582 15.5953 8.15127 15.5773 8.15041C15.5593 8.14955 15.5422 8.14243 15.5289 8.13028L15.5072 8.11141C15.4959 8.10026 15.4879 8.08622 15.484 8.07082C15.4802 8.05543 15.4807 8.03927 15.4855 8.02413C15.4927 7.99797 15.4928 7.97037 15.4859 7.94411C15.4791 7.91786 15.4654 7.89389 15.4463 7.87461C15.4272 7.85534 15.4033 7.84145 15.3772 7.83434C15.351 7.82722 15.3234 7.82715 15.2971 7.83411C15.2709 7.84108 15.247 7.85484 15.2278 7.87401C15.2086 7.89318 15.1948 7.91707 15.1877 7.94329C15.1807 7.9695 15.1807 7.9971 15.1878 8.02331C15.1948 8.04951 15.2087 8.07339 15.2279 8.09254C15.2476 8.11252 15.2724 8.12671 15.2996 8.13353C15.3268 8.14035 15.3554 8.13956 15.3822 8.13123C15.3977 8.12706 15.414 8.12742 15.4293 8.13227C15.4446 8.13712 15.4582 8.14625 15.4685 8.15859L15.4836 8.17557C15.4957 8.18908 15.5028 8.20637 15.5037 8.22451C15.5045 8.24264 15.4991 8.26052 15.4883 8.27512C15.4273 8.35747 15.3864 8.45296 15.369 8.55394C15.3654 8.57664 15.354 8.59739 15.3368 8.61262C15.3196 8.62785 15.2976 8.63663 15.2746 8.63744C15.2566 8.63863 15.2386 8.63487 15.2225 8.62655C15.2065 8.61823 15.193 8.60568 15.1836 8.59026C15.1694 8.5675 15.1495 8.54883 15.1259 8.53609C15.1023 8.52336 15.0758 8.51701 15.0489 8.51766C15.0221 8.51831 14.9959 8.52594 14.973 8.53981C14.95 8.55367 14.9311 8.57328 14.918 8.59671C14.9049 8.62014 14.8982 8.64657 14.8984 8.6734C14.8987 8.70022 14.906 8.72652 14.9195 8.74968C14.933 8.77285 14.9524 8.79209 14.9756 8.8055C14.9988 8.81891 15.0251 8.82603 15.052 8.82615C15.0782 8.82624 15.104 8.81956 15.1269 8.80675C15.1498 8.79394 15.169 8.77543 15.1826 8.75303C15.1921 8.73725 15.2056 8.7243 15.2218 8.7155C15.238 8.70671 15.2562 8.7024 15.2746 8.70302C15.2976 8.70383 15.3196 8.7126 15.3368 8.72784C15.354 8.74307 15.3654 8.76382 15.369 8.78652C15.3864 8.8875 15.4273 8.98299 15.4883 9.06534C15.4991 9.07993 15.5045 9.09781 15.5037 9.11595C15.5028 9.13409 15.4957 9.15138 15.4836 9.16488L15.4647 9.18659C15.4537 9.19806 15.4396 9.20618 15.4242 9.21002C15.4088 9.21386 15.3926 9.21326 15.3774 9.20829C15.3444 9.19935 15.3093 9.20165 15.2778 9.21484C15.2462 9.22802 15.2199 9.25133 15.203 9.28111C15.1861 9.31088 15.1796 9.34543 15.1845 9.37931C15.1894 9.41318 15.2054 9.44446 15.2301 9.46823C15.2547 9.49199 15.2865 9.50689 15.3206 9.51058C15.3546 9.51426 15.3889 9.50653 15.418 9.48859C15.4472 9.47065 15.4695 9.44352 15.4815 9.41148C15.4936 9.37944 15.4946 9.3443 15.4845 9.3116C15.4806 9.29609 15.4811 9.27979 15.4859 9.26454C15.4907 9.24928 15.4997 9.23568 15.5119 9.22527L15.5289 9.21017C15.5424 9.19804 15.5596 9.19094 15.5778 9.19008C15.5959 9.18922 15.6138 9.19465 15.6284 9.20546C15.7107 9.26645 15.8062 9.30733 15.9072 9.32481C15.9298 9.32858 15.9504 9.34001 15.9656 9.35719C15.9808 9.37437 15.9897 9.39625 15.9906 9.41917C15.9921 9.43724 15.9884 9.45534 15.98 9.47143C15.9717 9.48751 15.959 9.50095 15.9435 9.51022C15.9138 9.52807 15.891 9.55531 15.8786 9.58762C15.8662 9.61993 15.865 9.65546 15.8751 9.68855C15.8824 9.71318 15.8959 9.73552 15.9144 9.75344C15.9328 9.77136 15.9555 9.78427 15.9803 9.79093C16.0162 9.80166 16.0548 9.79892 16.0889 9.78323C16.123 9.76753 16.1502 9.73995 16.1654 9.70565C16.1806 9.67135 16.1828 9.63268 16.1716 9.59688C16.1603 9.56108 16.1364 9.53061 16.1043 9.51117C16.0885 9.50179 16.0754 9.48828 16.0666 9.47208C16.0578 9.45588 16.0536 9.43759 16.0543 9.41917C16.0553 9.39625 16.0641 9.37437 16.0793 9.35719C16.0946 9.34001 16.1152 9.32858 16.1378 9.32481C16.239 9.30715 16.3348 9.2663 16.4175 9.20546C16.4321 9.19465 16.45 9.18922 16.4681 9.19008C16.4863 9.19094 16.5036 9.19804 16.5171 9.21017L16.5378 9.22904C16.5493 9.24007 16.5574 9.25411 16.5613 9.26956C16.5651 9.285 16.5645 9.30121 16.5595 9.31632C16.5507 9.34926 16.553 9.3842 16.5662 9.41565C16.5794 9.44711 16.6026 9.47329 16.6323 9.49008C16.662 9.50688 16.6964 9.51334 16.7301 9.50844C16.7639 9.50354 16.795 9.48756 16.8187 9.46302C16.8424 9.43848 16.8572 9.40676 16.8609 9.37286C16.8646 9.33896 16.8569 9.30479 16.839 9.27573C16.8212 9.24668 16.7942 9.22438 16.7623 9.21234C16.7304 9.2003 16.6954 9.19921 16.6628 9.20923C16.6473 9.21334 16.631 9.21295 16.6157 9.2081C16.6004 9.20326 16.5868 9.19416 16.5765 9.18187L16.5614 9.16488C16.5494 9.1513 16.5424 9.13403 16.5416 9.11594C16.5407 9.09785 16.5461 9.08 16.5567 9.06534C16.6177 8.98299 16.6585 8.8875 16.676 8.78652C16.68 8.76397 16.6914 8.74342 16.7086 8.72824C16.7257 8.71307 16.7475 8.70418 16.7704 8.70302C16.7888 8.70225 16.8071 8.70649 16.8233 8.7153C16.8395 8.72411 16.853 8.73715 16.8623 8.75303C16.8822 8.78459 16.9127 8.80794 16.9484 8.81877C16.9841 8.8296 17.0224 8.82719 17.0565 8.81198C17.0905 8.79677 17.1179 8.76978 17.1336 8.73598C17.1494 8.70218 17.1523 8.66384 17.1421 8.62801C17.1356 8.60334 17.123 8.58071 17.1054 8.56223C17.0879 8.54375 17.0659 8.53002 17.0416 8.52233Z" fill="#75E4A5"/>
<path d="M45.2171 24.4804C45.1625 24.4635 45.1037 24.4654 45.0503 24.4858C44.9968 24.5063 44.9518 24.5441 44.9223 24.5932C44.907 24.6188 44.885 24.6398 44.8587 24.6539C44.8323 24.6679 44.8026 24.6745 44.7728 24.6729C44.7356 24.6707 44.7002 24.6559 44.6725 24.631C44.6449 24.606 44.6265 24.5724 44.6204 24.5356C44.5915 24.3685 44.524 24.2106 44.4233 24.0742C44.4055 24.05 44.3965 24.0203 44.3979 23.9903C44.3993 23.9603 44.4109 23.9316 44.4308 23.9091L44.4619 23.8742C44.4803 23.8555 44.5034 23.8422 44.5288 23.8359C44.5542 23.8296 44.5809 23.8304 44.6058 23.8383C44.6491 23.8502 44.6947 23.8505 44.7381 23.8391C44.7815 23.8277 44.8211 23.8051 44.8529 23.7735C44.8847 23.7418 44.9076 23.7024 44.9193 23.6591C44.931 23.6158 44.9311 23.5701 44.9195 23.5268C44.9079 23.4835 44.885 23.444 44.8532 23.4123C44.8215 23.3806 44.7819 23.3579 44.7386 23.3464C44.6952 23.3349 44.6496 23.3351 44.6063 23.3469C44.563 23.3587 44.5236 23.3818 44.4921 23.4137C44.4592 23.4463 44.436 23.4873 44.4249 23.5323C44.4138 23.5772 44.4154 23.6243 44.4294 23.6685C44.4355 23.6941 44.4343 23.721 44.426 23.746C44.4176 23.771 44.4025 23.7931 44.3822 23.81L44.3549 23.8345C44.3327 23.8546 44.3043 23.8665 44.2745 23.8682C44.2446 23.8699 44.2151 23.8614 44.1907 23.844C44.0547 23.7426 43.8966 23.6747 43.7294 23.6458C43.6925 23.6394 43.6589 23.6208 43.6339 23.593C43.6088 23.5652 43.5938 23.5298 43.5912 23.4925C43.5897 23.4625 43.5965 23.4326 43.6107 23.4061C43.6249 23.3796 43.646 23.3574 43.6718 23.342C43.7197 23.3132 43.7568 23.2695 43.7775 23.2177C43.7982 23.1658 43.8014 23.1085 43.7865 23.0547C43.7749 23.0126 43.7527 22.9743 43.7219 22.9434C43.6912 22.9125 43.653 22.89 43.611 22.8783C43.5518 22.8612 43.4884 22.8663 43.4326 22.8924C43.3767 22.9185 43.3322 22.9639 43.3073 23.0202C43.2823 23.0766 43.2786 23.1401 43.2968 23.199C43.315 23.2578 43.3539 23.3081 43.4063 23.3406C43.4324 23.356 43.4539 23.3782 43.4685 23.4049C43.483 23.4316 43.49 23.4617 43.4888 23.492C43.4864 23.5294 43.4714 23.5649 43.4463 23.5927C43.4213 23.6205 43.3875 23.6391 43.3506 23.6454C43.1834 23.6742 43.0254 23.7421 42.8893 23.8435C42.865 23.8609 42.8354 23.8694 42.8056 23.8677C42.7757 23.866 42.7473 23.8541 42.7251 23.8341L42.6902 23.8029C42.6715 23.7846 42.6583 23.7615 42.652 23.7361C42.6456 23.7107 42.6465 23.684 42.6544 23.659C42.669 23.6052 42.6656 23.5481 42.6447 23.4964C42.6239 23.4447 42.5867 23.4013 42.5388 23.3727C42.5003 23.3495 42.4563 23.337 42.4114 23.3365C42.3664 23.336 42.3222 23.3475 42.2832 23.3698C42.2287 23.4009 42.1875 23.4509 42.1676 23.5104C42.1477 23.5699 42.1503 23.6346 42.175 23.6922C42.1998 23.7499 42.2448 23.7964 42.3017 23.8229C42.3585 23.8494 42.4231 23.8541 42.4832 23.836C42.5088 23.8299 42.5356 23.831 42.5606 23.8394C42.5856 23.8477 42.6078 23.8629 42.6247 23.8831L42.6492 23.9105C42.6691 23.933 42.6808 23.9616 42.6823 23.9916C42.6839 24.0216 42.6752 24.0512 42.6577 24.0756C42.5567 24.2119 42.4888 24.3699 42.4596 24.537C42.4535 24.5738 42.4352 24.6074 42.4075 24.6324C42.3798 24.6573 42.3444 24.6721 42.3072 24.6743C42.2773 24.676 42.2474 24.6695 42.2208 24.6555C42.1943 24.6414 42.1721 24.6203 42.1568 24.5946C42.1273 24.5455 42.0823 24.5077 42.0288 24.4873C41.9754 24.4668 41.9166 24.4649 41.8619 24.4818C41.8215 24.4939 41.7847 24.5161 41.7552 24.5463C41.7256 24.5765 41.7043 24.6137 41.6931 24.6545C41.6821 24.6925 41.6802 24.7326 41.6873 24.7716C41.6945 24.8106 41.7106 24.8473 41.7344 24.879C41.7581 24.9107 41.7889 24.9364 41.8243 24.9542C41.8597 24.972 41.8988 24.9813 41.9384 24.9814C41.9817 24.9814 42.0244 24.9702 42.0622 24.949C42.1 24.9278 42.1318 24.8972 42.1544 24.8602C42.17 24.8339 42.1924 24.8124 42.2192 24.7979C42.246 24.7833 42.2763 24.7763 42.3068 24.7776C42.344 24.7798 42.3793 24.7946 42.407 24.8195C42.4347 24.8445 42.4531 24.8781 42.4591 24.9149C42.4884 25.082 42.5562 25.24 42.6572 25.3763C42.6747 25.4007 42.6834 25.4303 42.6819 25.4603C42.6803 25.4903 42.6686 25.5189 42.6487 25.5414L42.6176 25.5763C42.5993 25.595 42.5761 25.6083 42.5507 25.6146C42.5253 25.6209 42.4987 25.6201 42.4737 25.6122C42.4305 25.6003 42.3849 25.6 42.3415 25.6114C42.2981 25.6228 42.2585 25.6454 42.2267 25.677C42.1948 25.7087 42.1719 25.7481 42.1602 25.7914C42.1485 25.8347 42.1485 25.8804 42.1601 25.9237C42.1717 25.967 42.1945 26.0065 42.2263 26.0382C42.2581 26.0699 42.2976 26.0926 42.341 26.1041C42.3844 26.1156 42.43 26.1154 42.4732 26.1036C42.5165 26.0917 42.5559 26.0687 42.5874 26.0368C42.6203 26.0044 42.6435 25.9635 42.6546 25.9187C42.6657 25.8739 42.6641 25.8269 42.6501 25.783C42.6441 25.7573 42.6452 25.7305 42.6536 25.7055C42.6619 25.6805 42.6771 25.6583 42.6973 25.6414L42.7247 25.6169C42.747 25.5966 42.7756 25.5846 42.8057 25.5831C42.8358 25.5815 42.8655 25.5905 42.8898 25.6084C43.0258 25.7092 43.1834 25.7767 43.3501 25.8056C43.3871 25.8119 43.4208 25.8305 43.4459 25.8583C43.4709 25.8861 43.4859 25.9216 43.4884 25.9589C43.4899 25.989 43.4832 26.0189 43.469 26.0454C43.4548 26.0719 43.4336 26.0941 43.4077 26.1094C43.3587 26.1387 43.3211 26.1837 43.3008 26.237C43.2805 26.2903 43.2788 26.3489 43.2959 26.4033C43.3078 26.444 43.3299 26.481 43.3601 26.5107C43.3904 26.5404 43.4277 26.5619 43.4685 26.5732C43.5277 26.5898 43.5908 26.5845 43.6463 26.5584C43.7019 26.5323 43.7462 26.487 43.7712 26.4309C43.7962 26.3748 43.8001 26.3116 43.7823 26.2528C43.7645 26.1941 43.7261 26.1437 43.6742 26.1108C43.6478 26.0956 43.6261 26.0735 43.6113 26.0468C43.5966 26.0201 43.5895 25.9899 43.5907 25.9594C43.5933 25.9221 43.6083 25.8867 43.6334 25.8589C43.6584 25.8311 43.6921 25.8125 43.7289 25.8061C43.8959 25.777 44.0538 25.7095 44.1902 25.6089C44.2143 25.5909 44.2439 25.582 44.2739 25.5835C44.3038 25.5851 44.3323 25.597 44.3544 25.6174L44.3893 25.6485C44.408 25.6668 44.4212 25.69 44.4276 25.7154C44.4339 25.7408 44.4331 25.7674 44.4251 25.7924C44.4108 25.8462 44.4143 25.9032 44.4352 25.9549C44.456 26.0065 44.493 26.05 44.5407 26.0788C44.5792 26.102 44.6232 26.1145 44.6682 26.115C44.7131 26.1155 44.7574 26.1039 44.7964 26.0816C44.8509 26.0505 44.892 26.0005 44.9119 25.941C44.9319 25.8816 44.9292 25.8168 44.9045 25.7592C44.8798 25.7016 44.8347 25.6551 44.7779 25.6285C44.721 25.602 44.6564 25.5974 44.5964 25.6155C44.5707 25.6216 44.5439 25.6204 44.5189 25.6121C44.4939 25.6037 44.4717 25.5886 44.4549 25.5683L44.4303 25.5409C44.4104 25.5184 44.3988 25.4898 44.3974 25.4597C44.396 25.4297 44.405 25.4001 44.4228 25.3758C44.5235 25.2395 44.591 25.0815 44.62 24.9144C44.626 24.8776 44.6444 24.844 44.6721 24.8191C44.6998 24.7941 44.7351 24.7793 44.7723 24.7771C44.8028 24.7759 44.8331 24.7829 44.8599 24.7974C44.8867 24.8119 44.9091 24.8335 44.9247 24.8597C44.957 24.9124 45.0073 24.9515 45.0664 24.9699C45.1254 24.9882 45.1891 24.9844 45.2455 24.9592C45.302 24.934 45.3474 24.8892 45.3732 24.833C45.399 24.7769 45.4036 24.7133 45.386 24.654C45.3749 24.6131 45.3536 24.5757 45.3241 24.5453C45.2945 24.5149 45.2577 24.4926 45.2171 24.4804Z" fill="#75E4A5"/>
<path opacity="0.29" d="M40.9507 25.6014L35.2625 23.5051L29.629 25.5726C28.9087 25.9212 28.2795 26.1287 28.2795 26.8226V30.2386C28.267 32.6355 28.9084 34.9904 30.1347 37.0499C31.3422 39.1058 33.1515 40.7417 35.3182 41.7367C37.621 40.9693 39.3389 38.9254 40.3899 37.174C41.6163 35.1146 42.2577 32.7596 42.245 30.3627V27.2938C42.2739 26.9022 42.1581 26.5135 41.9195 26.2016C41.681 25.8896 41.3362 25.6761 40.9507 25.6014Z" fill="#75E4A5"/>
<path d="M39.8263 26.9773L35.2626 25.2961L30.7433 26.9537C30.1654 27.2334 29.6584 27.4009 29.6584 27.9523V30.6961C29.6481 32.6202 30.1631 34.5106 31.148 36.1636C32.1155 37.8156 33.5669 39.1306 35.306 39.931C37.1527 39.315 38.5315 37.674 39.3749 36.2707C40.3594 34.6184 40.8749 32.7289 40.8659 30.8056V28.3377C40.8894 28.0229 40.7964 27.7105 40.6048 27.4598C40.4132 27.209 40.1361 27.0373 39.8263 26.9773Z" fill="#75E4A5"/>
<path d="M38.718 31.6942H36.0345V29.0089H34.4925V31.6942H31.8071V33.2357H34.4925V35.9192H36.034V33.2362H38.718V31.6942Z" fill="white"/>
</svg>
