<svg width="51" height="50" viewBox="0 0 51 50" fill="none" xmlns="http://www.w3.org/2000/svg">
<path d="M36.5181 17.6962C35.2501 17.8984 33.9716 18.0288 32.6889 18.0867C32.2812 18.1029 31.8874 18.2385 31.5563 18.4768C31.2252 18.7151 30.9715 19.0455 30.8268 19.4269C30.682 19.8083 30.6526 20.2238 30.7423 20.6217C30.8319 21.0197 31.0366 21.3825 31.3308 21.665C31.5667 21.8763 31.8422 22.1042 32.1596 22.34C32.8871 22.8967 33.5262 23.5602 34.0554 24.308C34.0946 24.3566 34.13 24.4084 34.161 24.4627C34.403 24.8199 34.6175 25.1951 34.8025 25.5848C34.8421 25.6546 34.8748 25.7281 34.9002 25.8042C35.2459 26.6559 35.4888 27.5458 35.6238 28.4551C35.6249 28.5016 35.6306 28.5479 35.6407 28.5933C36.2822 32.8546 35.3634 38.2296 33.9572 40.2792C33.5668 40.8519 33.0077 41.2889 32.3576 41.5294C31.7075 41.7699 30.9986 41.8019 30.3294 41.6212C23.9955 39.923 20.8483 37.0183 19.2945 34.4811C19.2646 34.4473 19.2402 34.4089 19.2224 34.3674C18.7297 33.5423 18.3468 32.6566 18.0832 31.7325C18.0596 31.6268 18.0261 31.5212 18.0025 31.4155C17.9775 31.2933 17.9554 31.1796 17.9285 31.074L17.9049 30.9518C17.8799 30.8296 17.8577 30.716 17.8389 30.5938C17.7819 30.2226 17.7574 29.8471 17.7657 29.4716C17.7651 27.7332 18.2708 26.0321 19.221 24.5763C20.1713 23.1205 21.5249 21.973 23.1167 21.274H23.1247C24.2577 20.7665 25.4856 20.5058 26.7271 20.5094C26.969 20.5079 27.2108 20.5187 27.4516 20.5419C28.3134 19.5513 28.7926 18.8098 27.6945 17.7363C26.2634 16.3296 26.1907 15.1745 26.5233 14.3452C27.8865 14.5323 29.2621 14.6138 30.6379 14.5891C32.0936 14.5971 33.9568 14.532 36.2417 14.3452" fill="white"/>
<path d="M36.5181 17.6962C35.2501 17.8984 33.9716 18.0288 32.6889 18.0867C32.2812 18.1029 31.8874 18.2385 31.5563 18.4768C31.2252 18.7151 30.9715 19.0455 30.8268 19.4269C30.682 19.8083 30.6527 20.2238 30.7423 20.6217C30.8319 21.0197 31.0366 21.3825 31.3308 21.665C31.5667 21.8763 31.8422 22.1042 32.1596 22.34C32.8871 22.8967 33.5262 23.5602 34.0554 24.3079C34.0946 24.3566 34.13 24.4084 34.161 24.4627C34.403 24.8199 34.6175 25.1951 34.8025 25.5848C34.8421 25.6546 34.8748 25.7281 34.9002 25.8042C35.2459 26.6559 35.4888 27.5458 35.6238 28.4551C35.6249 28.5016 35.6306 28.5479 35.6407 28.5933C36.2822 32.8546 35.3634 38.2296 33.9572 40.2792C33.5668 40.8519 33.0077 41.2889 32.3576 41.5294C31.7075 41.7699 30.9986 41.8019 30.3294 41.6212C23.9955 39.923 20.8483 37.0183 19.2945 34.4811C19.2646 34.4473 19.2402 34.4089 19.2224 34.3674C18.7297 33.5423 18.3468 32.6566 18.0832 31.7325C18.0596 31.6268 18.0261 31.5212 18.0025 31.4155C17.9775 31.2933 17.9554 31.1796 17.9285 31.074L17.9049 30.9518C17.8799 30.8296 17.8577 30.716 17.8389 30.5938C17.7819 30.2226 17.7574 29.8471 17.7657 29.4716C17.7651 27.7332 18.2708 26.0321 19.221 24.5763C20.1713 23.1205 21.5249 21.973 23.1167 21.274H23.1247C24.2577 20.7665 25.4856 20.5058 26.7271 20.5094C26.969 20.5079 27.2108 20.5187 27.4516 20.5419C28.3134 19.5513 28.7926 18.8098 27.6945 17.7363C26.2634 16.3296 26.1907 15.1745 26.5233 14.3452C27.8865 14.5323 29.2621 14.6138 30.6379 14.5891C32.0936 14.5971 33.9568 14.532 36.2417 14.3452" stroke="#0C0F1E" stroke-width="0.571646" stroke-miterlimit="10"/>
<path d="M20.4349 11.6783C20.4349 11.6783 19.7844 14.785 21.8896 16.6552C21.9146 18.5335 22.4273 20.4043 23.1254 21.2741H23.1174C21.5258 21.9731 20.1721 23.1205 19.2219 24.5762C18.2716 26.0319 17.7659 27.7329 17.7665 29.4713C17.7665 29.4713 12.074 26.1614 15.4495 19.8265C18.825 13.4916 17.7835 11.8326 17.7835 11.8326" fill="white"/>
<path d="M20.4349 11.6783C20.4349 11.6783 19.7844 14.785 21.8896 16.6552C21.9146 18.5335 22.4273 20.4043 23.1254 21.2741H23.1174C21.5258 21.9731 20.1721 23.1205 19.2219 24.5762C18.2716 26.0319 17.7659 27.7329 17.7665 29.4713C17.7665 29.4713 12.074 26.1614 15.4495 19.8265C18.825 13.4916 17.7835 11.8326 17.7835 11.8326" stroke="#0C0F1E" stroke-width="0.571646" stroke-linecap="round" stroke-linejoin="round"/>
<path d="M27.6303 7.97839V10.0845C27.6303 10.0845 30.7134 10.8246 30.6393 14.5897C29.2635 14.6144 27.8879 14.5329 26.5247 14.3458C26.1921 15.1751 26.2643 16.3303 27.6959 17.7369C28.7935 18.8105 28.3148 19.5501 27.453 20.5425C27.2122 20.5194 26.9704 20.5085 26.7285 20.51C25.4869 20.5056 24.2586 20.7654 23.1252 21.2723C22.4266 20.402 21.9143 18.5317 21.8893 16.6534C21.8657 14.8076 22.3138 12.9694 23.4931 12.0911C25.8827 10.3289 25.1591 8.10056 25.1591 8.10056" fill="#75E4A5"/>
<path d="M27.6303 7.97839V10.0845C27.6303 10.0845 30.7134 10.8246 30.6393 14.5897C29.2635 14.6144 27.8879 14.5329 26.5247 14.3458C26.1921 15.1751 26.2643 16.3303 27.6959 17.7369C28.7935 18.8105 28.3148 19.5501 27.453 20.5425C27.2122 20.5194 26.9704 20.5085 26.7285 20.51C25.4869 20.5056 24.2586 20.7654 23.1252 21.2723C22.4266 20.402 21.9143 18.5317 21.8893 16.6534C21.8657 14.8076 22.3138 12.9694 23.4931 12.0911C25.8827 10.3289 25.1591 8.10056 25.1591 8.10056" stroke="#0C0F1E" stroke-width="0.571646" stroke-linecap="round" stroke-linejoin="round"/>
<path d="M23.1336 21.282L23.1255 21.2739" stroke="#0C0F1E" stroke-width="0.571646" stroke-linecap="round" stroke-linejoin="round"/>
<path d="M26.0364 30.8882C23.3534 24.716 25.9633 22.2603 27.4513 20.5443L26.0364 30.8882Z" fill="white"/>
<path d="M26.0364 30.8882C23.3534 24.716 25.9633 22.2603 27.4513 20.5443" stroke="#0C0F1E" stroke-width="0.571646" stroke-linecap="round" stroke-linejoin="round"/>
<path d="M27.6952 12.9241C27.1746 13.2744 26.7675 13.7691 26.5239 14.3474L27.6952 12.9241Z" fill="white"/>
<path d="M27.6952 12.9241C27.1746 13.2744 26.7675 13.7691 26.5239 14.3474" stroke="#0C0F1E" stroke-width="0.571646" stroke-linecap="round" stroke-linejoin="round"/>
<path d="M28.5451 27.9254C28.5451 27.9254 27.8182 30.8844 31.6079 32.1822L28.5451 27.9254Z" fill="white"/>
<path d="M28.5451 27.9254C28.5451 27.9254 27.8182 30.8844 31.6079 32.1822" stroke="#0C0F1E" stroke-width="0.571646" stroke-linecap="round" stroke-linejoin="round"/>
<path d="M29.6369 31.2471C29.6369 31.2471 27.7171 33.4276 30.8308 35.2444L29.6369 31.2471Z" fill="white"/>
<path d="M29.6369 31.2471C29.6369 31.2471 27.7171 33.4276 30.8308 35.2444" stroke="#0C0F1E" stroke-width="0.571646" stroke-linecap="round" stroke-linejoin="round"/>
</svg>
