<svg width="51" height="50" viewBox="0 0 51 50" fill="none" xmlns="http://www.w3.org/2000/svg">
<path d="M16.8174 36.9419H19.0344L20.6381 41.2976L22.7013 33.0429L24.0009 37.1693H26.1405L27.9749 33.0429L29.9617 41.2976L31.4895 36.9419H33.5537C32.9405 34.4004 39.5914 28.0556 39.5914 28.0556C41.2424 26.5599 42.7079 24.6867 42.8881 22.6495C42.9052 22.5086 42.9137 22.3669 42.9136 22.225C42.9019 21.1241 42.4564 20.0722 41.6737 19.2979C40.8911 18.5235 39.8346 18.0892 38.7337 18.0892C37.6327 18.0892 36.5762 18.5235 35.7936 19.2979C35.0109 20.0722 34.5654 21.1241 34.5537 22.225C34.542 21.1241 34.0965 20.0722 33.3138 19.2979C32.5312 18.5235 31.4747 18.0892 30.3738 18.0892C29.2728 18.0892 28.2163 18.5235 27.4336 19.2979C26.651 20.0722 26.2055 21.1241 26.1938 22.225C26.1939 22.3669 26.2025 22.5086 26.2197 22.6495C26.541 26.2773 30.9306 29.3839 33.2061 30.7627" fill="white"/>
<path d="M16.8174 36.9419H19.0344L20.6381 41.2976L22.7013 33.0429L24.0009 37.1693H26.1405L27.9749 33.0429L29.9617 41.2976L31.4895 36.9419H33.5537C32.9405 34.4004 39.5914 28.0556 39.5914 28.0556C41.2424 26.5599 42.7079 24.6867 42.8881 22.6495C42.9052 22.5086 42.9137 22.3669 42.9136 22.225C42.9019 21.1241 42.4564 20.0722 41.6737 19.2979C40.8911 18.5235 39.8346 18.0892 38.7337 18.0892C37.6327 18.0892 36.5762 18.5235 35.7936 19.2979C35.0109 20.0722 34.5654 21.1241 34.5537 22.225C34.542 21.1241 34.0965 20.0722 33.3138 19.2979C32.5312 18.5235 31.4747 18.0892 30.3738 18.0892C29.2728 18.0892 28.2163 18.5235 27.4336 19.2979C26.651 20.0722 26.2055 21.1241 26.1938 22.225C26.1939 22.3669 26.2025 22.5086 26.2197 22.6495C26.541 26.2773 30.9306 29.3839 33.2061 30.7627" stroke="#0C0F1E" stroke-width="0.571646" stroke-linecap="round" stroke-linejoin="round"/>
<path d="M25.3301 9.45514L22.6276 8.13107C22.501 8.06907 22.3482 8.1214 22.2862 8.24796L13.9402 25.2827C13.8782 25.4092 13.9305 25.5621 14.0571 25.6241L16.7596 26.9482C16.8862 27.0102 17.039 26.9578 17.101 26.8313L25.447 9.79657C25.509 9.67001 25.4567 9.51714 25.3301 9.45514Z" fill="white" stroke="#0C0F1E" stroke-width="0.571646" stroke-linecap="round" stroke-linejoin="round"/>
<path d="M8.22852 36.9424L12.837 27.5367C12.8629 27.4837 12.899 27.4363 12.9433 27.3973C12.9875 27.3582 13.039 27.3283 13.0948 27.3092C13.1506 27.2901 13.2097 27.2822 13.2686 27.2859C13.3274 27.2897 13.385 27.305 13.438 27.331L15.7927 28.4848C15.8456 28.5108 15.893 28.5469 15.932 28.5911C15.9709 28.6354 16.0008 28.6869 16.0199 28.7427C16.0389 28.7986 16.0468 28.8576 16.043 28.9164C16.0392 28.9753 16.0239 29.0328 15.9979 29.0858L15.4625 30.1777C13.9611 33.2425 11.387 35.6496 8.22852 36.9424Z" fill="white" stroke="#0C0F1E" stroke-width="0.571646" stroke-linecap="round" stroke-linejoin="round"/>
<path d="M16.3517 26.7476L14.4667 25.8241C14.3401 25.7621 14.1873 25.8144 14.1253 25.941L13.5556 27.1037C13.4936 27.2303 13.5459 27.3831 13.6725 27.4451L15.5575 28.3687C15.684 28.4307 15.8369 28.3783 15.8989 28.2518L16.4686 27.089C16.5306 26.9625 16.4783 26.8096 16.3517 26.7476Z" fill="white" stroke="#0C0F1E" stroke-width="0.571646" stroke-linecap="round" stroke-linejoin="round"/>
<path d="M10.0164 36.9424H15.3659" stroke="#0C0F1E" stroke-width="0.571646" stroke-linecap="round" stroke-linejoin="round"/>
<path d="M23.5883 11.1798L23.0775 10.9295C23.0134 10.8981 22.936 10.9246 22.9046 10.9887L16.4768 24.1081C16.4454 24.1722 16.4719 24.2497 16.536 24.2811L17.0469 24.5313C17.111 24.5628 17.1884 24.5362 17.2198 24.4721L23.6475 11.3527C23.6789 11.2886 23.6524 11.2112 23.5883 11.1798Z" fill="#75E4A5"/>
<path d="M41.0126 24.2844C41.5787 23.7053 41.8936 22.9264 41.8889 22.1167C41.8843 21.3069 41.5606 20.5316 40.988 19.959C40.4153 19.3865 39.64 19.0628 38.8302 19.0583C38.0205 19.0538 37.2416 19.3687 36.6626 19.9349C36.6626 19.9349 40.898 20.6542 41.0126 24.2844Z" fill="#75E4A5"/>
</svg>
