<svg width="51" height="50" viewBox="0 0 51 50" fill="none" xmlns="http://www.w3.org/2000/svg">
<path d="M37.6456 24.7586C37.6456 24.7586 34.7093 29.5794 34.3248 32.3728C33.9404 35.1662 34.0692 40.5129 34.0692 40.5129H22.4154C22.4154 40.5129 23.2173 35.0383 19.8461 34.5982C15.3805 35.6303 15.5489 33.7096 15.5489 33.7096V31.5445C15.5423 31.4049 15.4997 31.2693 15.4254 31.151C15.351 31.0326 15.2473 30.9355 15.1244 30.869C14.1621 30.2685 14.4593 28.2515 14.4593 28.2515C14.4593 28.2515 12.5725 28.1572 12.8739 27.0666C16.14 23.8015 15.2098 20.8096 15.2098 20.8096C15.2109 19.122 15.5814 17.4551 16.2952 15.9259C17.0091 14.3968 18.049 13.0424 19.342 11.9579C20.6349 10.8734 22.1496 10.085 23.7796 9.64818C25.4097 9.21133 27.1156 9.13656 28.7776 9.42912C30.4396 9.72169 32.0175 10.3745 33.4004 11.3417C34.7832 12.309 35.9377 13.5671 36.7826 15.028C37.6275 16.4888 38.1424 18.1169 38.2911 19.7979C38.4399 21.4789 38.2189 23.1721 37.6437 24.7586H37.6456Z" stroke="#0C0F1E" stroke-width="0.576982" stroke-linecap="round" stroke-linejoin="round"/>
<path d="M22.1335 30.4554C22.4519 30.4554 22.7099 30.1973 22.7099 29.8789C22.7099 29.5605 22.4519 29.3024 22.1335 29.3024C21.8152 29.3024 21.5571 29.5605 21.5571 29.8789C21.5571 30.1973 21.8152 30.4554 22.1335 30.4554Z" fill="#0C0F1E"/>
<path d="M28.7922 26.6461C29.1106 26.6461 29.3687 26.3879 29.3687 26.0695C29.3687 25.7512 29.1106 25.493 28.7922 25.493C28.4739 25.493 28.2158 25.7512 28.2158 26.0695C28.2158 26.3879 28.4739 26.6461 28.7922 26.6461Z" fill="#0C0F1E"/>
<path d="M34.5233 25.3275C34.7484 25.3275 34.9309 25.1451 34.9309 24.9199C34.9309 24.6948 34.7484 24.5123 34.5233 24.5123C34.2982 24.5123 34.1157 24.6948 34.1157 24.9199C34.1157 25.1451 34.2982 25.3275 34.5233 25.3275Z" fill="#0C0F1E"/>
<path d="M30.2825 21.8672C30.5076 21.8672 30.6901 21.6847 30.6901 21.4596C30.6901 21.2344 30.5076 21.0519 30.2825 21.0519C30.0575 21.0519 29.875 21.2344 29.875 21.4596C29.875 21.6847 30.0575 21.8672 30.2825 21.8672Z" fill="#0C0F1E"/>
<path d="M20.2449 19.7951C20.5632 19.7951 20.8213 19.537 20.8213 19.2186C20.8213 18.9002 20.5632 18.6421 20.2449 18.6421C19.9265 18.6421 19.6685 18.9002 19.6685 19.2186C19.6685 19.537 19.9265 19.7951 20.2449 19.7951Z" fill="#0C0F1E"/>
<path d="M17.0945 25.9116C17.4128 25.9116 17.6709 25.6535 17.6709 25.3351C17.6709 25.0167 17.4128 24.7586 17.0945 24.7586C16.7761 24.7586 16.5181 25.0167 16.5181 25.3351C16.5181 25.6535 16.7761 25.9116 17.0945 25.9116Z" fill="#0C0F1E"/>
<path d="M22.9429 26.3169C23.08 26.3169 23.191 26.2058 23.191 26.0688C23.191 25.9317 23.08 25.8206 22.9429 25.8206C22.8059 25.8206 22.6948 25.9317 22.6948 26.0688C22.6948 26.2058 22.8059 26.3169 22.9429 26.3169Z" fill="#0C0F1E"/>
<path d="M23.1912 18.2818C23.3282 18.2818 23.4393 18.1707 23.4393 18.0337C23.4393 17.8966 23.3282 17.7855 23.1912 17.7855C23.0542 17.7855 22.9431 17.8966 22.9431 18.0337C22.9431 18.1707 23.0542 18.2818 23.1912 18.2818Z" fill="#0C0F1E"/>
<path d="M32.3961 37.7954C32.5331 37.7954 32.6442 37.6843 32.6442 37.5473C32.6442 37.4102 32.5331 37.2991 32.3961 37.2991C32.259 37.2991 32.1479 37.4102 32.1479 37.5473C32.1479 37.6843 32.259 37.7954 32.3961 37.7954Z" fill="#0C0F1E"/>
<path d="M28.2164 31.2708C28.3534 31.2708 28.4645 31.1597 28.4645 31.0227C28.4645 30.8856 28.3534 30.7745 28.2164 30.7745C28.0793 30.7745 27.9683 30.8856 27.9683 31.0227C27.9683 31.1597 28.0793 31.2708 28.2164 31.2708Z" fill="#0C0F1E"/>
<path d="M19.2032 28.484C19.3402 28.484 19.4513 28.3729 19.4513 28.2359C19.4513 28.0988 19.3402 27.9877 19.2032 27.9877C19.0662 27.9877 18.9551 28.0988 18.9551 28.2359C18.9551 28.3729 19.0662 28.484 19.2032 28.484Z" fill="#0C0F1E"/>
<path d="M26.3912 36.2411C26.5282 36.2411 26.6393 36.13 26.6393 35.9929C26.6393 35.8559 26.5282 35.7448 26.3912 35.7448C26.2542 35.7448 26.1431 35.8559 26.1431 35.9929C26.1431 36.13 26.2542 36.2411 26.3912 36.2411Z" fill="#0C0F1E"/>
<path d="M18.1302 32.8836C18.2672 32.8836 18.3783 32.7725 18.3783 32.6355C18.3783 32.4984 18.2672 32.3873 18.1302 32.3873C17.9932 32.3873 17.8821 32.4984 17.8821 32.6355C17.8821 32.7725 17.9932 32.8836 18.1302 32.8836Z" fill="#0C0F1E"/>
<path d="M24.847 28.0562C24.8906 28.0562 24.926 28.0208 24.926 27.9772C24.926 27.9336 24.8906 27.8982 24.847 27.8982C24.8034 27.8982 24.7681 27.9336 24.7681 27.9772C24.7681 28.0208 24.8034 28.0562 24.847 28.0562Z" fill="#0C0F1E"/>
<path d="M15.4838 27.2288C15.5274 27.2288 15.5627 27.1934 15.5627 27.1498C15.5627 27.1062 15.5274 27.0708 15.4838 27.0708C15.4401 27.0708 15.4048 27.1062 15.4048 27.1498C15.4048 27.1934 15.4401 27.2288 15.4838 27.2288Z" fill="#0C0F1E"/>
<path d="M30.6913 29.9585C30.7349 29.9585 30.7703 29.9231 30.7703 29.8795C30.7703 29.8358 30.7349 29.8005 30.6913 29.8005C30.6477 29.8005 30.6123 29.8358 30.6123 29.8795C30.6123 29.9231 30.6477 29.9585 30.6913 29.9585Z" fill="#0C0F1E"/>
<path d="M24.3837 19.0331C24.4273 19.0331 24.4626 18.9977 24.4626 18.9541C24.4626 18.9105 24.4273 18.8751 24.3837 18.8751C24.34 18.8751 24.3047 18.9105 24.3047 18.9541C24.3047 18.9977 24.34 19.0331 24.3837 19.0331Z" fill="#0C0F1E"/>
<path d="M27.1522 22.8032C27.1958 22.8032 27.2312 22.7679 27.2312 22.7243C27.2312 22.6806 27.1958 22.6453 27.1522 22.6453C27.1086 22.6453 27.0732 22.6806 27.0732 22.7243C27.0732 22.7679 27.1086 22.8032 27.1522 22.8032Z" fill="#0C0F1E"/>
<path d="M23.3915 23.6751C23.4351 23.6751 23.4705 23.6398 23.4705 23.5961C23.4705 23.5525 23.4351 23.5172 23.3915 23.5172C23.3479 23.5172 23.3125 23.5525 23.3125 23.5961C23.3125 23.6398 23.3479 23.6751 23.3915 23.6751Z" fill="#0C0F1E"/>
<path d="M17.0155 30.7406C17.0591 30.7406 17.0945 30.7052 17.0945 30.6616C17.0945 30.6179 17.0591 30.5826 17.0155 30.5826C16.9719 30.5826 16.9365 30.6179 16.9365 30.6616C16.9365 30.7052 16.9719 30.7406 17.0155 30.7406Z" fill="#0C0F1E"/>
<path d="M18.1312 22.8032C18.1749 22.8032 18.2102 22.7679 18.2102 22.7243C18.2102 22.6806 18.1749 22.6453 18.1312 22.6453C18.0876 22.6453 18.0522 22.6806 18.0522 22.7243C18.0522 22.7679 18.0876 22.8032 18.1312 22.8032Z" fill="#0C0F1E"/>
<path d="M28.7142 33.407C28.7579 33.407 28.7932 33.3716 28.7932 33.328C28.7932 33.2844 28.7579 33.249 28.7142 33.249C28.6706 33.249 28.6353 33.2844 28.6353 33.328C28.6353 33.3716 28.6706 33.407 28.7142 33.407Z" fill="#0C0F1E"/>
<path d="M24.058 33.7335C24.1016 33.7335 24.1369 33.6982 24.1369 33.6545C24.1369 33.6109 24.1016 33.5756 24.058 33.5756C24.0144 33.5756 23.979 33.6109 23.979 33.6545C23.979 33.6982 24.0144 33.7335 24.058 33.7335Z" fill="#0C0F1E"/>
<path d="M20.2446 12.7957C20.2446 12.7957 26.4437 8.76265 31.1177 11.8994C35.7918 15.0362 36.688 17.831 36.688 19.2183C36.688 19.2183 33.8932 12.2178 20.2446 12.7957Z" fill="#75E4A5"/>
</svg>
