<svg width="51" height="50" viewBox="0 0 51 50" fill="none" xmlns="http://www.w3.org/2000/svg">
<path d="M22.9062 9.03412V40.5124" stroke="#0C0F1E" stroke-width="0.692835" stroke-miterlimit="10"/>
<path d="M28.4697 9.03406V40.5124" stroke="#0C0F1E" stroke-width="0.692835" stroke-miterlimit="10"/>
<path d="M29.9386 36.3491C27.9645 34.851 26.4952 34.5387 25.6933 34.5095H25.6867C24.8848 34.5406 23.416 34.8529 21.4414 36.3491C18.3754 38.6746 9.38531 38.0972 11.3443 27.6797C13.9193 18.7996 14.4419 17.6368 14.6933 14.0477C14.9428 10.4505 20.2259 11.1915 20.5457 21.1797C20.3733 22.752 20.4417 24.3413 20.7485 25.893C20.7485 25.893 25.165 28.858 30.6353 25.893C30.9421 24.3413 31.0105 22.752 30.8381 21.1797C31.1579 11.1915 36.4409 10.4505 36.6905 14.0477C36.94 17.6373 37.4631 18.8 40.0395 27.6797C41.9867 38.0972 33.0056 38.6746 29.9386 36.3491Z" fill="white" stroke="#0C0F1E" stroke-width="0.571646" stroke-miterlimit="10"/>
<path d="M21.9174 29.53C21.3727 28.373 20.9793 27.1506 20.7471 25.8931" stroke="#0C0F1E" stroke-width="0.571646" stroke-miterlimit="10"/>
<path d="M25.6934 34.5076C25.9155 34.4885 26.1393 34.5044 26.3565 34.5548" stroke="#0C0F1E" stroke-width="0.571646" stroke-miterlimit="10"/>
<path d="M30.6332 25.8931C30.4009 27.1506 30.0076 28.373 29.4629 29.53" stroke="#0C0F1E" stroke-width="0.571646" stroke-miterlimit="10"/>
<path d="M25.0229 34.5544C25.2402 34.504 25.464 34.4881 25.6862 34.5072" stroke="#0C0F1E" stroke-width="0.571646" stroke-miterlimit="10"/>
<path d="M34.6266 13.7166C33.134 15.4863 32.3153 17.7269 32.3153 20.042C32.234 22.7483 31.7817 25.4305 30.9709 28.0137C30.9709 28.0137 35.8808 25.175 36.2922 21.7401C36.7035 18.3052 34.254 15.3524 34.6266 13.7166Z" fill="#75E4A5"/>
<path d="M17.6535 34.185C17.8809 34.185 18.0653 34.0006 18.0653 33.7732C18.0653 33.5457 17.8809 33.3613 17.6535 33.3613C17.4261 33.3613 17.2417 33.5457 17.2417 33.7732C17.2417 34.0006 17.4261 34.185 17.6535 34.185Z" fill="#0C0F1E"/>
<path d="M16.3046 26.569C16.532 26.569 16.7164 26.3846 16.7164 26.1571C16.7164 25.9296 16.532 25.7452 16.3046 25.7452C16.0772 25.7452 15.8928 25.9296 15.8928 26.1571C15.8928 26.3846 16.0772 26.569 16.3046 26.569Z" fill="#75E4A5"/>
<path d="M24.6115 32.2908C24.8389 32.2908 25.0233 32.1064 25.0233 31.8789C25.0233 31.6514 24.8389 31.467 24.6115 31.467C24.3841 31.467 24.1997 31.6514 24.1997 31.8789C24.1997 32.1064 24.3841 32.2908 24.6115 32.2908Z" fill="#75E4A5"/>
<path d="M14.0529 30.939C14.2803 30.939 14.4646 30.7546 14.4646 30.5272C14.4646 30.2997 14.2803 30.1153 14.0529 30.1153C13.8255 30.1153 13.6411 30.2997 13.6411 30.5272C13.6411 30.7546 13.8255 30.939 14.0529 30.939Z" fill="#0C0F1E"/>
<path d="M36.2917 23.4733C36.5191 23.4733 36.7034 23.2889 36.7034 23.0614C36.7034 22.8339 36.5191 22.6495 36.2917 22.6495C36.0642 22.6495 35.8799 22.8339 35.8799 23.0614C35.8799 23.2889 36.0642 23.4733 36.2917 23.4733Z" fill="#75E4A5"/>
<path d="M30.048 32.2908C30.2754 32.2908 30.4598 32.1064 30.4598 31.8789C30.4598 31.6514 30.2754 31.467 30.048 31.467C29.8206 31.467 29.6362 31.6514 29.6362 31.8789C29.6362 32.1064 29.8206 32.2908 30.048 32.2908Z" fill="#0C0F1E"/>
<path d="M33.2468 35.7582C33.4742 35.7582 33.6586 35.5738 33.6586 35.3463C33.6586 35.1188 33.4742 34.9344 33.2468 34.9344C33.0193 34.9344 32.835 35.1188 32.835 35.3463C32.835 35.5738 33.0193 35.7582 33.2468 35.7582Z" fill="#0C0F1E"/>
<path d="M25.6861 28.7826C25.7841 28.7826 25.8635 28.7032 25.8635 28.6052C25.8635 28.5072 25.7841 28.4278 25.6861 28.4278C25.5882 28.4278 25.5088 28.5072 25.5088 28.6052C25.5088 28.7032 25.5882 28.7826 25.6861 28.7826Z" fill="#0C0F1E"/>
<path d="M18.4098 25.4878C18.5077 25.4878 18.5871 25.4084 18.5871 25.3104C18.5871 25.2125 18.5077 25.1331 18.4098 25.1331C18.3118 25.1331 18.2324 25.2125 18.2324 25.3104C18.2324 25.4084 18.3118 25.4878 18.4098 25.4878Z" fill="#0C0F1E"/>
<path d="M20.0692 31.2929C20.1672 31.2929 20.2466 31.2135 20.2466 31.1156C20.2466 31.0176 20.1672 30.9382 20.0692 30.9382C19.9713 30.9382 19.8918 31.0176 19.8918 31.1156C19.8918 31.2135 19.9713 31.2929 20.0692 31.2929Z" fill="#0C0F1E"/>
<path d="M36.1141 27.1425C36.2121 27.1425 36.2915 27.0631 36.2915 26.9651C36.2915 26.8671 36.2121 26.7877 36.1141 26.7877C36.0162 26.7877 35.9368 26.8671 35.9368 26.9651C35.9368 27.0631 36.0162 27.1425 36.1141 27.1425Z" fill="#0C0F1E"/>
<path d="M15.5592 32.777C15.6572 32.777 15.7366 32.6976 15.7366 32.5996C15.7366 32.5017 15.6572 32.4222 15.5592 32.4222C15.4613 32.4222 15.3818 32.5017 15.3818 32.5996C15.3818 32.6976 15.4613 32.777 15.5592 32.777Z" fill="#0C0F1E"/>
<path d="M38.2511 30.2926C38.349 30.2926 38.4284 30.2132 38.4284 30.1152C38.4284 30.0172 38.349 29.9378 38.2511 29.9378C38.1531 29.9378 38.0737 30.0172 38.0737 30.1152C38.0737 30.2132 38.1531 30.2926 38.2511 30.2926Z" fill="#0C0F1E"/>
<path d="M34.3917 15.0676C34.4896 15.0676 34.569 14.9882 34.569 14.8902C34.569 14.7922 34.4896 14.7128 34.3917 14.7128C34.2938 14.7128 34.2144 14.7922 34.2144 14.8902C34.2144 14.9882 34.2938 15.0676 34.3917 15.0676Z" fill="#0C0F1E"/>
<path d="M36.8326 32.4676C36.9305 32.4676 37.0099 32.3882 37.0099 32.2902C37.0099 32.1922 36.9305 32.1128 36.8326 32.1128C36.7347 32.1128 36.6553 32.1922 36.6553 32.2902C36.6553 32.3882 36.7347 32.4676 36.8326 32.4676Z" fill="#0C0F1E"/>
<path d="M33.2467 29.1374C33.3446 29.1374 33.424 29.0579 33.424 28.96C33.424 28.862 33.3446 28.7826 33.2467 28.7826C33.1487 28.7826 33.0693 28.862 33.0693 28.96C33.0693 29.0579 33.1487 29.1374 33.2467 29.1374Z" fill="#75E4A5"/>
<path d="M17.6539 20.9449C17.7518 20.9449 17.8312 20.8654 17.8312 20.7675C17.8312 20.6695 17.7518 20.5901 17.6539 20.5901C17.556 20.5901 17.4766 20.6695 17.4766 20.7675C17.4766 20.8654 17.556 20.9449 17.6539 20.9449Z" fill="#0C0F1E"/>
<path d="M17.4764 17.0539C17.5744 17.0539 17.6538 16.9745 17.6538 16.8765C17.6538 16.7785 17.5744 16.6991 17.4764 16.6991C17.3785 16.6991 17.2991 16.7785 17.2991 16.8765C17.2991 16.9745 17.3785 17.0539 17.4764 17.0539Z" fill="#75E4A5"/>
<path d="M12.901 31.8786C12.9318 31.8786 12.9568 31.8536 12.9568 31.8228C12.9568 31.792 12.9318 31.767 12.901 31.767C12.8702 31.767 12.8452 31.792 12.8452 31.8228C12.8452 31.8536 12.8702 31.8786 12.901 31.8786Z" fill="#0C0F1E"/>
<path d="M33.4235 25.9489C33.4543 25.9489 33.4793 25.9239 33.4793 25.8931C33.4793 25.8623 33.4543 25.8373 33.4235 25.8373C33.3927 25.8373 33.3677 25.8623 33.3677 25.8931C33.3677 25.9239 33.3927 25.9489 33.4235 25.9489Z" fill="#0C0F1E"/>
<path d="M18.5511 29.34C18.5819 29.34 18.6069 29.3151 18.6069 29.2842C18.6069 29.2534 18.5819 29.2285 18.5511 29.2285C18.5203 29.2285 18.4954 29.2534 18.4954 29.2842C18.4954 29.3151 18.5203 29.34 18.5511 29.34Z" fill="#0C0F1E"/>
<path d="M15.3815 20.6456C15.4123 20.6456 15.4373 20.6207 15.4373 20.5898C15.4373 20.559 15.4123 20.5341 15.3815 20.5341C15.3507 20.5341 15.3257 20.559 15.3257 20.5898C15.3257 20.6207 15.3507 20.6456 15.3815 20.6456Z" fill="#0C0F1E"/>
<path d="M33.6593 32.655C33.6901 32.655 33.7151 32.63 33.7151 32.5992C33.7151 32.5684 33.6901 32.5434 33.6593 32.5434C33.6285 32.5434 33.6035 32.5684 33.6035 32.5992C33.6035 32.63 33.6285 32.655 33.6593 32.655Z" fill="#0C0F1E"/>
<path d="M13.9967 34.3876C14.0275 34.3876 14.0524 34.3626 14.0524 34.3318C14.0524 34.301 14.0275 34.276 13.9967 34.276C13.9659 34.276 13.9409 34.301 13.9409 34.3318C13.9409 34.3626 13.9659 34.3876 13.9967 34.3876Z" fill="#75E4A5"/>
<path d="M34.57 23.5844C34.6008 23.5844 34.6257 23.5594 34.6257 23.5286C34.6257 23.4978 34.6008 23.4728 34.57 23.4728C34.5391 23.4728 34.5142 23.4978 34.5142 23.5286C34.5142 23.5594 34.5391 23.5844 34.57 23.5844Z" fill="#0C0F1E"/>
<path d="M14.7938 28.7169C14.8246 28.7169 14.8496 28.6919 14.8496 28.6611C14.8496 28.6303 14.8246 28.6053 14.7938 28.6053C14.763 28.6053 14.738 28.6303 14.738 28.6611C14.738 28.6919 14.763 28.7169 14.7938 28.7169Z" fill="#0C0F1E"/>
<path d="M34.1583 21.2932C34.1891 21.2932 34.2141 21.2682 34.2141 21.2374C34.2141 21.2066 34.1891 21.1816 34.1583 21.1816C34.1275 21.1816 34.1025 21.2066 34.1025 21.2374C34.1025 21.2682 34.1275 21.2932 34.1583 21.2932Z" fill="#0C0F1E"/>
</svg>
