<svg width="51" height="50" viewBox="0 0 51 50" fill="none" xmlns="http://www.w3.org/2000/svg">
<path d="M13.1114 38.3484V35.8139C13.1097 35.54 13.1876 35.2716 13.3356 35.0411C13.4835 34.8106 13.6952 34.6279 13.9449 34.5154C14.1946 34.4028 14.4716 34.3651 14.7423 34.4069C15.013 34.4487 15.2657 34.5681 15.4698 34.7507C18.1434 37.1182 22.809 40.2432 27.9751 39.1776C35.7147 37.5804 44.5788 27.0521 38.8439 15.6229C38.3061 14.4999 37.447 13.5619 36.3755 12.9276C32.5958 10.796 30.7255 15.6163 29.4416 15.8955C27.9746 16.2144 26.8944 13.1526 26.8944 9.83563" stroke="#0C0F1E" stroke-width="0.49314" stroke-miterlimit="10"/>
<path d="M23.5059 9.83606C23.5059 9.83606 23.187 16.0233 26.5677 20.9983C29.0101 24.5912 26.7936 30.5469 22.2752 31.1516C19.0096 31.5884 16.1729 28.845 16.1729 25.5497V23.9332" stroke="#0C0F1E" stroke-width="0.49314" stroke-miterlimit="10"/>
<path d="M12.4732 23.9332V27.0615C12.4747 27.3965 12.4047 27.7279 12.2678 28.0336C12.131 28.3394 11.9303 28.6123 11.6794 28.8342C10.9562 29.47 10.4157 30.2872 10.1137 31.2016C9.41188 33.3087 9.60384 38.4115 9.60384 38.4115" stroke="#0C0F1E" stroke-width="0.49314" stroke-miterlimit="10"/>
<path d="M18.165 34.6956C18.165 34.6956 26.6749 41.8489 34.0688 33.4559C34.6641 32.8128 34.9883 31.9647 34.974 31.0885C34.9268 30.0923 34.4249 28.9857 32.4127 28.9857C28.7547 28.9857 29.9735 36.5253 18.165 34.6956Z" fill="#75E4A5"/>
<path d="M24.2769 32.9145C24.5298 32.9145 24.7349 32.7094 24.7349 32.4564C24.7349 32.2034 24.5298 31.9983 24.2769 31.9983C24.0239 31.9983 23.8188 32.2034 23.8188 32.4564C23.8188 32.7094 24.0239 32.9145 24.2769 32.9145Z" fill="#75E4A5"/>
<path d="M27.5748 31.0223C27.684 31.0223 27.7725 30.9338 27.7725 30.8246C27.7725 30.7155 27.684 30.627 27.5748 30.627C27.4657 30.627 27.3772 30.7155 27.3772 30.8246C27.3772 30.9338 27.4657 31.0223 27.5748 31.0223Z" fill="#0C0F1E"/>
<path d="M28.5538 29.3704C28.663 29.3704 28.7515 29.2819 28.7515 29.1727C28.7515 29.0635 28.663 28.975 28.5538 28.975C28.4447 28.975 28.3562 29.0635 28.3562 29.1727C28.3562 29.2819 28.4447 29.3704 28.5538 29.3704Z" fill="#0C0F1E"/>
<path d="M26.8913 32.0719C27.0004 32.0719 27.0889 31.9834 27.0889 31.8742C27.0889 31.765 27.0004 31.6765 26.8913 31.6765C26.7821 31.6765 26.6936 31.765 26.6936 31.8742C26.6936 31.9834 26.7821 32.0719 26.8913 32.0719Z" fill="#0C0F1E"/>
<path d="M28.3585 35.1662C28.4677 35.1662 28.5562 35.0777 28.5562 34.9685C28.5562 34.8593 28.4677 34.7708 28.3585 34.7708C28.2494 34.7708 28.1609 34.8593 28.1609 34.9685C28.1609 35.0777 28.2494 35.1662 28.3585 35.1662Z" fill="#0C0F1E"/>
<path d="M21.873 33.4586C21.9821 33.4586 22.0706 33.3701 22.0706 33.2609C22.0706 33.1517 21.9821 33.0632 21.873 33.0632C21.7638 33.0632 21.6753 33.1517 21.6753 33.2609C21.6753 33.3701 21.7638 33.4586 21.873 33.4586Z" fill="#75E4A5"/>
</svg>
