<svg width="51" height="50" viewBox="0 0 51 50" fill="none" xmlns="http://www.w3.org/2000/svg">
<path d="M30.9074 11.8241L28.1838 10.4897C28.0572 10.4276 27.9043 10.48 27.8423 10.6065L19.4383 27.7598C19.3762 27.8864 19.4286 28.0393 19.5551 28.1013L22.2788 29.4357C22.4054 29.4977 22.5583 29.4454 22.6203 29.3188L31.0243 12.1655C31.0863 12.039 31.034 11.8861 30.9074 11.8241Z" fill="white" stroke="#0C0F1E" stroke-width="0.571646" stroke-linecap="round" stroke-linejoin="round"/>
<path d="M13.6895 39.4968L18.3286 30.0275C18.3814 29.9198 18.4748 29.8375 18.5883 29.7987C18.7018 29.7598 18.8261 29.7677 18.9338 29.8204L21.3046 30.9817C21.4123 31.0346 21.4946 31.128 21.5334 31.2415C21.5722 31.355 21.5644 31.4792 21.5116 31.5869L20.9725 32.6865C19.4607 35.7719 16.8692 38.1952 13.6895 39.4968Z" fill="white" stroke="#0C0F1E" stroke-width="0.571646" stroke-linecap="round" stroke-linejoin="round"/>
<path d="M21.8681 29.2342L19.9674 28.303C19.8409 28.241 19.688 28.2933 19.626 28.4199L19.0509 29.5937C18.9889 29.7202 19.0413 29.8731 19.1678 29.9351L21.0685 30.8663C21.195 30.9283 21.3479 30.876 21.4099 30.7494L21.985 29.5757C22.047 29.4491 21.9947 29.2962 21.8681 29.2342Z" fill="white" stroke="#0C0F1E" stroke-width="0.571646" stroke-linecap="round" stroke-linejoin="round"/>
<path d="M17.3035 39.4968H29.4855" stroke="#0C0F1E" stroke-width="0.571646" stroke-linecap="round" stroke-linejoin="round"/>
<path d="M31.8103 39.4968H38.4457" stroke="#0C0F1E" stroke-width="0.571646" stroke-linecap="round" stroke-linejoin="round"/>
<path d="M29.1537 13.5602L28.6378 13.3075C28.5737 13.2761 28.4963 13.3026 28.4649 13.3667L21.9929 26.5764C21.9615 26.6405 21.988 26.7179 22.0521 26.7493L22.5681 27.0021C22.6322 27.0335 22.7096 27.007 22.741 26.9429L29.2129 13.7332C29.2443 13.6691 29.2178 13.5917 29.1537 13.5602Z" fill="#75E4A5"/>
<path d="M38.1944 37.5246H20.0293C19.8907 37.5246 19.7783 37.6369 19.7783 37.7755V38.2869C19.7783 38.4255 19.8907 38.5378 20.0293 38.5378H38.1944C38.333 38.5378 38.4453 38.4255 38.4453 38.2869V37.7755C38.4453 37.6369 38.333 37.5246 38.1944 37.5246Z" fill="#75E4A5"/>
</svg>
