<svg width="51" height="50" viewBox="0 0 51 50" fill="none" xmlns="http://www.w3.org/2000/svg">
<path d="M38.4314 10.7583C40.7428 8.96584 42.9899 12.9578 39.7244 16.7456C36.4588 20.5333 33.4418 17.8776 31.922 19.1512C30.4022 20.4248 30.4706 24.1856 30.3116 25.0248C30.1527 25.864 28.6564 26.0003 29.0649 27.6781C29.3159 28.7111 28.9145 30.2003 28.6442 31.2701C28.4758 31.9394 28.3569 32.4446 28.4824 32.5701C28.8074 32.8951 28.83 34.2328 28.83 34.5196C28.83 34.8064 27.8324 38.7229 27.2876 39.0866C26.2363 39.4895 25.0732 39.4895 24.022 39.0866C23.4772 38.7229 22.4796 34.8073 22.4796 34.5196C22.4796 34.2319 22.5022 32.8946 22.8272 32.5701C22.9517 32.4446 22.8338 31.9394 22.6649 31.2701C22.3947 30.2003 21.9942 28.7106 22.2446 27.6781C22.6531 26.0003 21.156 25.864 20.9979 25.0248C20.8399 24.1856 20.9069 20.4206 19.3876 19.1512C17.8682 17.8819 14.8517 20.5342 11.5852 16.7456C8.3187 12.9569 10.5649 8.96584 12.8781 10.7583" fill="white"/>
<path d="M38.4314 10.7583C40.7428 8.96584 42.9899 12.9578 39.7244 16.7456C36.4588 20.5333 33.4418 17.8776 31.922 19.1512C30.4022 20.4248 30.4706 24.1856 30.3116 25.0248C30.1527 25.864 28.6564 26.0003 29.0649 27.6781C29.3159 28.7111 28.9145 30.2003 28.6442 31.2701C28.4758 31.9394 28.3569 32.4446 28.4824 32.5701C28.8074 32.8951 28.83 34.2328 28.83 34.5196C28.83 34.8064 27.8324 38.7229 27.2876 39.0866C26.2363 39.4896 25.0732 39.4896 24.022 39.0866C23.4772 38.7229 22.4796 34.8073 22.4796 34.5196C22.4796 34.2319 22.5022 32.8946 22.8272 32.5701C22.9517 32.4446 22.8338 31.9394 22.6649 31.2701C22.3947 30.2003 21.9942 28.7106 22.2446 27.6781C22.6531 26.0003 21.156 25.864 20.9979 25.0248C20.8399 24.1856 20.9069 20.4206 19.3876 19.1512C17.8682 17.8819 14.8517 20.5342 11.5852 16.7456C8.3187 12.9569 10.5649 8.96584 12.8781 10.7583" stroke="#0C0F1E" stroke-width="0.571646" stroke-linecap="round" stroke-linejoin="round"/>
<path d="M22.6652 31.2692C22.6652 31.2692 22.7218 32.8733 24.7878 32.8733L22.6652 31.2692Z" fill="white"/>
<path d="M22.6652 31.2692C22.6652 31.2692 22.7218 32.8733 24.7878 32.8733" stroke="#0C0F1E" stroke-width="0.571646" stroke-linecap="round" stroke-linejoin="round"/>
<path d="M16.8751 15.7352C17.7261 15.0884 17.7155 13.6424 16.8514 12.5055C15.9872 11.3686 14.5969 10.9714 13.7458 11.6182C12.8948 12.2651 12.9055 13.7111 13.7696 14.8479C14.6337 15.9848 16.0241 16.3821 16.8751 15.7352Z" fill="white" stroke="#0C0F1E" stroke-width="0.571646" stroke-linecap="round" stroke-linejoin="round"/>
<path d="M16.4824 14.7969C16.6802 14.3945 16.4661 13.8841 16.0041 13.6569C15.5421 13.4298 15.0072 13.5719 14.8093 13.9744C14.6114 14.3768 14.8256 14.8872 15.2876 15.1143C15.7496 15.3415 16.2845 15.1993 16.4824 14.7969Z" fill="#75E4A5"/>
<path d="M32.4354 18.8761C32.0491 18.8761 28.467 17.4634 27.6199 16.1327C26.7727 14.802 25.6543 14.9534 25.6543 14.9534C25.6543 14.9534 24.5354 14.802 23.6892 16.1327C22.843 17.4634 19.2604 18.8761 18.8737 18.8761" fill="white"/>
<path d="M32.4354 18.8761C32.0491 18.8761 28.467 17.4634 27.6199 16.1327C26.7727 14.802 25.6543 14.9534 25.6543 14.9534C25.6543 14.9534 24.5354 14.802 23.6892 16.1327C22.843 17.4634 19.2604 18.8761 18.8737 18.8761" stroke="#0C0F1E" stroke-width="0.571646" stroke-linecap="round" stroke-linejoin="round"/>
<path d="M28.6436 31.2692C28.6436 31.2692 28.5879 32.8733 26.5238 32.8733L28.6436 31.2692Z" fill="white"/>
<path d="M28.6436 31.2692C28.6436 31.2692 28.5879 32.8733 26.5238 32.8733" stroke="#0C0F1E" stroke-width="0.571646" stroke-linecap="round" stroke-linejoin="round"/>
<path d="M37.5398 14.8478C38.404 13.711 38.4146 12.265 37.5636 11.6181C36.7126 10.9713 35.3222 11.3685 34.4581 12.5054C33.5939 13.6423 33.5833 15.0883 34.4343 15.7351C35.2853 16.382 36.6757 15.9847 37.5398 14.8478Z" fill="white" stroke="#0C0F1E" stroke-width="0.571646" stroke-linecap="round" stroke-linejoin="round"/>
<path d="M36.0224 15.1142C36.4844 14.8871 36.6986 14.3767 36.5007 13.9743C36.3028 13.5718 35.7679 13.4297 35.3059 13.6568C34.8439 13.884 34.6298 14.3944 34.8276 14.7968C35.0255 15.1993 35.5604 15.3414 36.0224 15.1142Z" fill="#75E4A5"/>
<path d="M25.6547 25.148V31.2692" stroke="#0C0F1E" stroke-width="0.571646" stroke-linecap="round" stroke-linejoin="round"/>
<path d="M24.9418 19.2083C24.9418 19.2083 24.9672 19.1998 25.0125 19.1828C25.6806 18.956 26.2619 18.5275 26.6762 17.9564C27.1748 17.1045 27.5922 18.0677 28.9087 18.5819C30.2252 19.096 30.2262 19.305 30.2262 19.305C29.9467 19.6787 29.7793 20.1242 29.7436 20.5894C29.7436 21.2484 29.5601 19.6022 24.9418 19.2083Z" fill="#75E4A5"/>
<path d="M22.9948 13.13C23.344 12.7806 23.7587 12.5035 24.2151 12.3145C24.6715 12.1254 25.1607 12.0281 25.6547 12.0281C26.1487 12.0281 26.6378 12.1254 27.0942 12.3145C27.5506 12.5035 27.9653 12.7806 28.3146 13.13" fill="white"/>
<path d="M22.9948 13.13C23.344 12.7806 23.7587 12.5035 24.2151 12.3145C24.6715 12.1254 25.1607 12.0281 25.6547 12.0281C26.1487 12.0281 26.6378 12.1254 27.0942 12.3145C27.5506 12.5035 27.9653 12.7806 28.3146 13.13" stroke="#0C0F1E" stroke-width="0.571646" stroke-linecap="round" stroke-linejoin="round"/>
</svg>
