<svg width="51" height="50" viewBox="0 0 51 50" fill="none" xmlns="http://www.w3.org/2000/svg">
<path d="M28.9511 32.8281C35.1114 32.8281 40.1054 27.8342 40.1054 21.6739C40.1054 15.5136 35.1114 10.5197 28.9511 10.5197C22.7908 10.5197 17.7969 15.5136 17.7969 21.6739C17.7969 27.8342 22.7908 32.8281 28.9511 32.8281Z" fill="white" stroke="#0C0F1E" stroke-width="0.571646" stroke-linecap="round" stroke-linejoin="round"/>
<path d="M20.4788 21.6739C20.4788 19.4268 21.3714 17.2717 22.9603 15.6828C24.5493 14.0939 26.7043 13.2012 28.9514 13.2012" fill="white"/>
<path d="M20.4788 21.6739C20.4788 19.4268 21.3714 17.2717 22.9603 15.6828C24.5493 14.0939 26.7043 13.2012 28.9514 13.2012" stroke="#0C0F1E" stroke-width="0.571646" stroke-linecap="round" stroke-linejoin="round"/>
<path d="M31.8492 23.6007C31.8492 24.3443 31.5538 25.0575 31.028 25.5833C30.5022 26.1091 29.7891 26.4045 29.0455 26.4045C28.3019 26.4045 27.5887 26.1091 27.0629 25.5833C26.5371 25.0575 26.2417 24.3443 26.2417 23.6007C26.2417 20.013 29.0488 16.9899 29.0488 16.9899C29.0488 16.9899 31.8492 20.0125 31.8492 23.6007Z" fill="white" stroke="#0C0F1E" stroke-width="0.571646" stroke-linecap="round" stroke-linejoin="round"/>
<path d="M19.7188 32.8271L22.0239 30.5228L20.1003 28.5992L17.798 30.9044L17.3999 30.5073L11.614 36.2917C11.4356 36.4702 11.294 36.6822 11.1975 36.9154C11.1009 37.1486 11.0512 37.3986 11.0513 37.651C11.0513 37.9034 11.1011 38.1534 11.1977 38.3866C11.2944 38.6198 11.436 38.8316 11.6145 39.0101C11.793 39.1886 12.0049 39.3301 12.2382 39.4267C12.4714 39.5232 12.7214 39.5729 12.9738 39.5729C13.2262 39.5728 13.4762 39.5231 13.7094 39.4264C13.9426 39.3298 14.1544 39.1882 14.3329 39.0096L20.1187 33.2252L19.7188 32.8271Z" fill="white" stroke="#0C0F1E" stroke-width="0.571646" stroke-linecap="round" stroke-linejoin="round"/>
<path d="M16.864 34.2466L16.3784 33.761C16.2179 33.6005 15.9578 33.6005 15.7974 33.761L12.8231 36.7353C12.6627 36.8957 12.6627 37.1558 12.8231 37.3163L13.3087 37.8019C13.4691 37.9623 13.7292 37.9623 13.8897 37.8019L16.864 34.8275C17.0244 34.6671 17.0244 34.407 16.864 34.2466Z" fill="#75E4A5"/>
<path d="M33.1714 15.3256C33.7578 15.3256 34.2332 14.8501 34.2332 14.2636C34.2332 13.6771 33.7578 13.2017 33.1714 13.2017C32.585 13.2017 32.1096 13.6771 32.1096 14.2636C32.1096 14.8501 32.585 15.3256 33.1714 15.3256Z" fill="#75E4A5"/>
<path d="M23.5197 27.8591C23.9884 27.8591 24.3683 27.4791 24.3683 27.0103C24.3683 26.5416 23.9884 26.1616 23.5197 26.1616C23.0511 26.1616 22.6711 26.5416 22.6711 27.0103C22.6711 27.4791 23.0511 27.8591 23.5197 27.8591Z" fill="#0C0F1E"/>
<path d="M35.6742 21.0155C35.8792 21.0155 36.0454 20.8493 36.0454 20.6442C36.0454 20.4392 35.8792 20.2729 35.6742 20.2729C35.4692 20.2729 35.303 20.4392 35.303 20.6442C35.303 20.8493 35.4692 21.0155 35.6742 21.0155Z" fill="#0C0F1E"/>
<path d="M35.6974 25.6022C35.8061 25.6022 35.8941 25.5141 35.8941 25.4054C35.8941 25.2968 35.8061 25.2087 35.6974 25.2087C35.5888 25.2087 35.5007 25.2968 35.5007 25.4054C35.5007 25.5141 35.5888 25.6022 35.6974 25.6022Z" fill="#0C0F1E"/>
<path d="M31.51 29.4843C31.6974 29.4843 31.8492 29.3324 31.8492 29.1451C31.8492 28.9577 31.6974 28.8058 31.51 28.8058C31.3227 28.8058 31.1709 28.9577 31.1709 29.1451C31.1709 29.3324 31.3227 29.4843 31.51 29.4843Z" fill="#0C0F1E"/>
<path d="M22.2233 22.3065C22.3319 22.3065 22.42 22.2185 22.42 22.1098C22.42 22.0012 22.3319 21.9131 22.2233 21.9131C22.1147 21.9131 22.0266 22.0012 22.0266 22.1098C22.0266 22.2185 22.1147 22.3065 22.2233 22.3065Z" fill="#75E4A5"/>
<path d="M26.0441 17.8315C26.1527 17.8315 26.2408 17.7434 26.2408 17.6347C26.2408 17.5261 26.1527 17.438 26.0441 17.438C25.9355 17.438 25.8474 17.5261 25.8474 17.6347C25.8474 17.7434 25.9355 17.8315 26.0441 17.8315Z" fill="#75E4A5"/>
<path d="M27.4096 20.0402C27.4438 20.0402 27.4715 20.0125 27.4715 19.9783C27.4715 19.9441 27.4438 19.9163 27.4096 19.9163C27.3754 19.9163 27.3477 19.9441 27.3477 19.9783C27.3477 20.0125 27.3754 20.0402 27.4096 20.0402Z" fill="#0C0F1E"/>
<path d="M30.7878 22.1101C30.7878 22.1101 31.8557 25.2587 28.467 25.4059C29.5309 24.5435 30.3344 23.4025 30.7878 22.1101Z" fill="#75E4A5"/>
</svg>
