<svg width="50" height="50" viewBox="0 0 50 50" fill="none" xmlns="http://www.w3.org/2000/svg">
<path d="M39.6742 24.3462C39.5689 23.9616 39.3653 23.6111 39.0835 23.329C38.8016 23.047 38.4512 22.8432 38.0667 22.7377C37.7511 22.6494 37.4204 22.6287 37.0963 22.6771C36.7722 22.7255 36.462 22.8418 36.186 23.0184C35.6721 23.3549 35.1173 23.6244 34.5351 23.8203C34.3455 23.8745 34.1469 23.8898 33.9512 23.8653C33.7555 23.8408 33.5668 23.7769 33.3965 23.6776C33.2261 23.5783 33.0776 23.4455 32.9599 23.2873C32.8422 23.1291 32.7577 22.9488 32.7115 22.7571C32.5315 22.1181 32.2746 21.5034 31.9464 20.9264C31.8462 20.7636 31.7796 20.5825 31.7506 20.3936C31.7215 20.2048 31.7306 20.012 31.7772 19.8267C31.8238 19.6413 31.907 19.4672 32.0219 19.3145C32.1368 19.1619 32.2811 19.0337 32.4464 18.9377C32.9939 18.6465 33.5823 18.4398 34.1916 18.3245C34.6417 18.2368 35.0553 18.0167 35.3794 17.6924C35.6335 17.4379 35.8252 17.1281 35.9397 16.7871C36.0541 16.4462 36.0882 16.0834 36.0391 15.7271C35.9901 15.3708 35.8592 15.0307 35.6569 14.7334C35.4546 14.4361 35.1862 14.1896 34.8728 14.0132C34.5265 13.8157 34.1347 13.7118 33.736 13.7118C33.3373 13.7118 32.9455 13.8157 32.5992 14.0132C32.3135 14.1739 32.065 14.3931 31.8699 14.6564C31.6749 14.9198 31.5376 15.2214 31.4671 15.5415C31.3372 16.163 31.123 16.7639 30.8303 17.3273C30.7364 17.4929 30.6102 17.6378 30.4591 17.7536C30.3079 17.8693 30.1351 17.9533 29.9508 18.0008C29.7665 18.0483 29.5745 18.0581 29.3862 18.0298C29.198 18.0014 29.0175 17.9355 28.8553 17.8358C28.2759 17.5053 27.658 17.2471 27.0157 17.067C26.8263 17.021 26.6479 16.9376 26.4912 16.8217C26.3345 16.7057 26.2025 16.5597 26.103 16.392C26.0036 16.2243 25.9386 16.0385 25.9121 15.8453C25.8855 15.6522 25.8978 15.4557 25.9483 15.2674C26.1285 14.687 26.3938 14.1365 26.7355 13.6339C26.9917 13.2539 27.1282 12.8059 27.1275 12.3476C27.1271 11.9881 27.0436 11.6336 26.8836 11.3117C26.7235 10.9898 26.4911 10.7093 26.2047 10.4921C25.9182 10.2749 25.5855 10.1269 25.2323 10.0596C24.8792 9.99229 24.5153 10.0076 24.169 10.1042C23.7842 10.2093 23.4334 10.4128 23.1512 10.6947C22.869 10.9766 22.6651 11.3271 22.5596 11.7118C22.4712 12.0273 22.4505 12.358 22.4989 12.6821C22.5473 13.0062 22.6636 13.3164 22.8402 13.5924C23.1771 14.1061 23.4467 14.661 23.6421 15.2434C23.6964 15.4329 23.7117 15.6314 23.6872 15.8271C23.6628 16.0227 23.599 16.2113 23.4998 16.3817C23.4006 16.552 23.2679 16.7005 23.1098 16.8183C22.9517 16.9361 22.7715 17.0206 22.5799 17.067C21.9404 17.2468 21.3253 17.5041 20.7482 17.833C20.5855 17.9331 20.4044 17.9996 20.2156 18.0286C20.0267 18.0575 19.834 18.0484 19.6487 18.0017C19.4635 17.9551 19.2894 17.8717 19.1369 17.7567C18.9843 17.6417 18.8564 17.4973 18.7605 17.3321C18.4698 16.7843 18.263 16.196 18.1473 15.5868C18.0606 15.1367 17.8403 14.7231 17.5152 14.4C17.2609 14.1456 16.9511 13.9535 16.6102 13.8388C16.2692 13.7241 15.9064 13.6899 15.55 13.7389C15.1936 13.7879 14.8534 13.9187 14.5561 14.1211C14.2587 14.3236 14.0122 14.5921 13.836 14.9056C13.6383 15.2518 13.5341 15.6434 13.5336 16.0421C13.5331 16.4407 13.6363 16.8326 13.8332 17.1792C13.994 17.4649 14.2134 17.7134 14.4769 17.9085C14.7404 18.1036 15.0422 18.2409 15.3624 18.3113C15.9839 18.4412 16.5848 18.6554 17.1483 18.9481C17.3133 19.0427 17.4576 19.1696 17.5726 19.3211C17.6876 19.4726 17.7709 19.6458 17.8176 19.8302C17.8643 20.0146 17.8734 20.2065 17.8444 20.3945C17.8154 20.5825 17.7489 20.7628 17.6487 20.9245C17.3187 21.5041 17.0608 22.1219 16.8808 22.7641C16.8349 22.9536 16.7515 23.132 16.6356 23.2888C16.5197 23.4456 16.3736 23.5776 16.206 23.6771C16.0383 23.7766 15.8524 23.8416 15.6593 23.8682C15.4661 23.8948 15.2696 23.8825 15.0813 23.8321C14.5005 23.6519 13.9497 23.3866 13.4468 23.0448C13.067 22.7883 12.6189 22.6518 12.1605 22.6528C11.801 22.6531 11.4465 22.7366 11.1246 22.8967C10.8028 23.0568 10.5223 23.2891 10.3052 23.5756C10.088 23.8621 9.94009 24.1949 9.87294 24.5481C9.80578 24.9012 9.82123 25.2651 9.91807 25.6113C10.0229 25.996 10.2263 26.3468 10.508 26.629C10.7897 26.9112 11.1401 27.1152 11.5247 27.2207C11.8404 27.3091 12.1712 27.3297 12.4954 27.2814C12.8197 27.233 13.1301 27.1167 13.4063 26.9401C13.9198 26.6028 14.4747 26.3333 15.0572 26.1382C15.2467 26.084 15.4453 26.0686 15.6409 26.0931C15.8365 26.1175 16.0251 26.1813 16.1955 26.2805C16.3658 26.3797 16.5144 26.5124 16.6321 26.6705C16.7499 26.8286 16.8345 27.0088 16.8808 27.2005C17.0601 27.8399 17.3171 28.455 17.6459 29.0321C17.746 29.1945 17.8126 29.3754 17.8418 29.564C17.8709 29.7525 17.8621 29.9451 17.8158 30.1302C17.7695 30.3153 17.6866 30.4893 17.572 30.6419C17.4575 30.7945 17.3136 30.9227 17.1487 31.0189C16.6022 31.31 16.0147 31.5167 15.4063 31.6321C14.9559 31.7188 14.542 31.939 14.2185 32.2641C13.9645 32.5187 13.7727 32.8285 13.6582 33.1694C13.5438 33.5104 13.5098 33.8732 13.5588 34.2295C13.6079 34.5858 13.7387 34.9259 13.941 35.2232C14.1434 35.5205 14.4117 35.767 14.7251 35.9434C15.0715 36.1409 15.4633 36.2447 15.8619 36.2447C16.2606 36.2447 16.6524 36.1409 16.9987 35.9434C17.2846 35.783 17.5334 35.5639 17.7285 35.3005C17.9236 35.0371 18.0607 34.7353 18.1308 34.4151C18.2615 33.7937 18.4761 33.1929 18.7685 32.6292C18.8623 32.4636 18.9884 32.3186 19.1395 32.2029C19.2905 32.0872 19.4634 32.0032 19.6477 31.9558C19.8319 31.9084 20.0239 31.8987 20.212 31.9272C20.4002 31.9557 20.5806 32.0218 20.7426 32.1217C21.322 32.4521 21.9398 32.71 22.5822 32.8896C22.7717 32.9355 22.9502 33.0188 23.107 33.1347C23.2639 33.2506 23.3959 33.3966 23.4955 33.5643C23.595 33.732 23.66 33.9179 23.6867 34.111C23.7133 34.3042 23.7011 34.5008 23.6506 34.6891C23.4698 35.2696 23.2046 35.8203 22.8633 36.3236C22.6065 36.7033 22.4697 37.1515 22.4709 37.6099C22.4712 37.9694 22.5547 38.3239 22.7148 38.6458C22.8748 38.9676 23.1072 39.2481 23.3937 39.4652C23.6802 39.6824 24.013 39.8303 24.3661 39.8975C24.7193 39.9646 25.0832 39.9492 25.4294 39.8523C25.814 39.7472 26.1646 39.5437 26.4468 39.2621C26.7289 38.9804 26.933 38.6301 27.0388 38.2457C27.127 37.9302 27.1475 37.5995 27.0992 37.2755C27.0508 36.9514 26.9346 36.6412 26.7582 36.3651C26.4216 35.8512 26.1522 35.2964 25.9563 34.7141C25.9021 34.5245 25.8867 34.3259 25.9113 34.1303C25.9358 33.9346 25.9996 33.7459 26.0989 33.5756C26.1983 33.4052 26.331 33.2567 26.4892 33.139C26.6474 33.0213 26.8278 32.9368 27.0195 32.8905C27.6589 32.7105 28.2739 32.4533 28.8511 32.1245C29.0138 32.0244 29.1949 31.9579 29.3838 31.9289C29.5726 31.9 29.7653 31.9091 29.9506 31.9558C30.1358 32.0025 30.3099 32.0858 30.4624 32.2008C30.615 32.3158 30.743 32.4602 30.8388 32.6255C31.1301 33.1729 31.3369 33.7614 31.452 34.3707C31.5397 34.8207 31.7602 35.2341 32.085 35.5575C32.3394 35.8118 32.6492 36.0037 32.9901 36.1182C33.3311 36.2328 33.6939 36.2669 34.0502 36.218C34.4065 36.169 34.7466 36.0383 35.044 35.836C35.3414 35.6337 35.5879 35.3653 35.7643 35.0519C35.9618 34.7054 36.0656 34.3134 36.0656 33.9146C36.0656 33.5158 35.9618 33.1238 35.7643 32.7773C35.6036 32.4916 35.3844 32.2431 35.1211 32.048C34.8577 31.8529 34.5561 31.7157 34.236 31.6453C33.6144 31.5151 33.0136 31.3005 32.4501 31.0075C32.2848 30.9135 32.1401 30.7873 32.0245 30.6362C31.909 30.4852 31.825 30.3124 31.7776 30.1283C31.7301 29.9441 31.7202 29.7523 31.7484 29.5642C31.7766 29.3761 31.8423 29.1956 31.9416 29.0335C32.2724 28.4541 32.5306 27.8363 32.7105 27.1939C32.7564 27.0043 32.8397 26.8259 32.9556 26.6691C33.0715 26.5122 33.2175 26.3801 33.3852 26.2806C33.5529 26.181 33.7388 26.116 33.932 26.0894C34.1251 26.0627 34.3217 26.075 34.51 26.1255C35.0904 26.3064 35.6408 26.572 36.1435 26.9137C36.5235 27.1699 36.9715 27.3064 37.4298 27.3056C37.7895 27.3054 38.1442 27.2219 38.4662 27.0618C38.7883 26.9017 39.0689 26.6693 39.2863 26.3827C39.5036 26.0962 39.6517 25.7632 39.719 25.41C39.7863 25.0567 39.7709 24.6926 39.6742 24.3462Z" fill="white" stroke="#0C0F1E" stroke-width="0.571646" stroke-linecap="round" stroke-linejoin="round"/>
<path d="M23.0383 20.3489C23.6635 20.3489 24.1704 19.842 24.1704 19.2167C24.1704 18.5913 23.6635 18.0844 23.0383 18.0844C22.4131 18.0844 21.9062 18.5913 21.9062 19.2167C21.9062 19.842 22.4131 20.3489 23.0383 20.3489Z" fill="#75E4A5"/>
<path d="M22.9154 31.0738C23.325 31.0738 23.6569 30.7418 23.6569 30.3322C23.6569 29.9226 23.325 29.5906 22.9154 29.5906C22.5059 29.5906 22.174 29.9226 22.174 30.3322C22.174 30.7418 22.5059 31.0738 22.9154 31.0738Z" fill="#75E4A5"/>
<path d="M23.6569 27.2578C23.9158 27.2578 24.1257 27.0478 24.1257 26.7888C24.1257 26.5298 23.9158 26.3199 23.6569 26.3199C23.3979 26.3199 23.188 26.5298 23.188 26.7888C23.188 27.0478 23.3979 27.2578 23.6569 27.2578Z" fill="#75E4A5"/>
<path d="M30.8622 11.1823C31.1211 11.1823 31.331 10.9723 31.331 10.7133C31.331 10.4543 31.1211 10.2444 30.8622 10.2444C30.6032 10.2444 30.3933 10.4543 30.3933 10.7133C30.3933 10.9723 30.6032 11.1823 30.8622 11.1823Z" fill="#75E4A5"/>
<path d="M26.175 25.1657C26.2779 25.1657 26.3613 25.0822 26.3613 24.9793C26.3613 24.8764 26.2779 24.793 26.175 24.793C26.0721 24.793 25.9886 24.8764 25.9886 24.9793C25.9886 25.0822 26.0721 25.1657 26.175 25.1657Z" fill="#75E4A5"/>
<path d="M37.1658 25.1892C37.2687 25.1892 37.3521 25.1058 37.3521 25.0029C37.3521 24.9 37.2687 24.8165 37.1658 24.8165C37.0629 24.8165 36.9795 24.9 36.9795 25.0029C36.9795 25.1058 37.0629 25.1892 37.1658 25.1892Z" fill="#75E4A5"/>
<path d="M33.5508 33.9473C33.6537 33.9473 33.7372 33.8639 33.7372 33.761C33.7372 33.6581 33.6537 33.5746 33.5508 33.5746C33.4479 33.5746 33.3645 33.6581 33.3645 33.761C33.3645 33.8639 33.4479 33.9473 33.5508 33.9473Z" fill="#75E4A5"/>
<path d="M16.5489 16.1209C16.6518 16.1209 16.7352 16.0374 16.7352 15.9345C16.7352 15.8316 16.6518 15.7482 16.5489 15.7482C16.446 15.7482 16.3625 15.8316 16.3625 15.9345C16.3625 16.0374 16.446 16.1209 16.5489 16.1209Z" fill="#75E4A5"/>
<path d="M20.121 25.7709C20.3395 25.7709 20.5167 25.5937 20.5167 25.3751C20.5167 25.1565 20.3395 24.9792 20.121 24.9792C19.9024 24.9792 19.7252 25.1565 19.7252 25.3751C19.7252 25.5937 19.9024 25.7709 20.121 25.7709Z" fill="#0C0F1E"/>
<path d="M18.6392 21.9313C18.6997 21.9313 18.7486 21.8822 18.7486 21.8218C18.7486 21.7613 18.6997 21.7123 18.6392 21.7123C18.5788 21.7123 18.5298 21.7613 18.5298 21.8218C18.5298 21.8822 18.5788 21.9313 18.6392 21.9313Z" fill="#0C0F1E"/>
<path d="M29.4611 28.935C29.5215 28.935 29.5705 28.886 29.5705 28.8256C29.5705 28.7651 29.5215 28.7161 29.4611 28.7161C29.4007 28.7161 29.3517 28.7651 29.3517 28.8256C29.3517 28.886 29.4007 28.935 29.4611 28.935Z" fill="#0C0F1E"/>
<path d="M19.7248 29.0445C19.7852 29.0445 19.8342 28.9955 19.8342 28.935C19.8342 28.8746 19.7852 28.8256 19.7248 28.8256C19.6644 28.8256 19.6154 28.8746 19.6154 28.935C19.6154 28.9955 19.6644 29.0445 19.7248 29.0445Z" fill="#0C0F1E"/>
<path d="M33.3518 16.3298C33.461 16.3298 33.5495 16.2413 33.5495 16.1321C33.5495 16.0229 33.461 15.9344 33.3518 15.9344C33.2427 15.9344 33.1542 16.0229 33.1542 16.1321C33.1542 16.2413 33.2427 16.3298 33.3518 16.3298Z" fill="#0C0F1E"/>
<path d="M29.8229 26.6138C30.0224 26.6138 30.1842 26.452 30.1842 26.2524C30.1842 26.0529 30.0224 25.8911 29.8229 25.8911C29.6233 25.8911 29.4615 26.0529 29.4615 26.2524C29.4615 26.452 29.6233 26.6138 29.8229 26.6138Z" fill="#0C0F1E"/>
<path d="M11.946 19.8548C12.1456 19.8548 12.3074 19.693 12.3074 19.4935C12.3074 19.2939 12.1456 19.1321 11.946 19.1321C11.7465 19.1321 11.5847 19.2939 11.5847 19.4935C11.5847 19.693 11.7465 19.8548 11.946 19.8548Z" fill="#0C0F1E"/>
<path d="M27.0728 21.3841C27.2257 21.3841 27.3497 21.2601 27.3497 21.1071C27.3497 20.9542 27.2257 20.8302 27.0728 20.8302C26.9199 20.8302 26.7959 20.9542 26.7959 21.1071C26.7959 21.2601 26.9199 21.3841 27.0728 21.3841Z" fill="#0C0F1E"/>
<path d="M36.9796 19.4931C37.1326 19.4931 37.2565 19.3691 37.2565 19.2161C37.2565 19.0632 37.1326 18.9392 36.9796 18.9392C36.8267 18.9392 36.7028 19.0632 36.7028 19.2161C36.7028 19.3691 36.8267 19.4931 36.9796 19.4931Z" fill="#0C0F1E"/>
<path d="M16.5493 33.761C16.7489 33.761 16.9106 33.5992 16.9106 33.3996C16.9106 33.2 16.7489 33.0382 16.5493 33.0382C16.3498 33.0382 16.188 33.2 16.188 33.3996C16.188 33.5992 16.3498 33.761 16.5493 33.761Z" fill="#0C0F1E"/>
<path d="M22.8278 22.1086C22.9438 22.1086 23.0377 22.0146 23.0377 21.8987C23.0377 21.7827 22.9438 21.6887 22.8278 21.6887C22.7119 21.6887 22.6179 21.7827 22.6179 21.8987C22.6179 22.0146 22.7119 22.1086 22.8278 22.1086Z" fill="#75E4A5"/>
<path d="M25.9894 12.0646C26.1054 12.0646 26.1993 11.9707 26.1993 11.8547C26.1993 11.7388 26.1054 11.6448 25.9894 11.6448C25.8735 11.6448 25.7795 11.7388 25.7795 11.8547C25.7795 11.9707 25.8735 12.0646 25.9894 12.0646Z" fill="#75E4A5"/>
<path d="M24.171 13.0194C24.2869 13.0194 24.3809 12.9254 24.3809 12.8095C24.3809 12.6935 24.2869 12.5995 24.171 12.5995C24.055 12.5995 23.9611 12.6935 23.9611 12.8095C23.9611 12.9254 24.055 13.0194 24.171 13.0194Z" fill="#75E4A5"/>
<path d="M30.1829 20.851C30.2988 20.851 30.3928 20.757 30.3928 20.6411C30.3928 20.5251 30.2988 20.4312 30.1829 20.4312C30.067 20.4312 29.973 20.5251 29.973 20.6411C29.973 20.757 30.067 20.851 30.1829 20.851Z" fill="#75E4A5"/>
<path d="M26.8642 30.7515C26.9801 30.7515 27.0741 30.6575 27.0741 30.5416C27.0741 30.4257 26.9801 30.3317 26.8642 30.3317C26.7483 30.3317 26.6543 30.4257 26.6543 30.5416C26.6543 30.6575 26.7483 30.7515 26.8642 30.7515Z" fill="#75E4A5"/>
<path d="M24.7956 37.851C24.9115 37.851 25.0055 37.757 25.0055 37.6411C25.0055 37.5251 24.9115 37.4312 24.7956 37.4312C24.6797 37.4312 24.5857 37.5251 24.5857 37.6411C24.5857 37.757 24.6797 37.851 24.7956 37.851Z" fill="#75E4A5"/>
<path d="M11.6408 25.0029C11.7567 25.0029 11.8507 24.9089 11.8507 24.793C11.8507 24.6771 11.7567 24.5831 11.6408 24.5831C11.5249 24.5831 11.4309 24.6771 11.4309 24.793C11.4309 24.9089 11.5249 25.0029 11.6408 25.0029Z" fill="#75E4A5"/>
<path d="M28.9848 23.438C28.9489 23.4266 28.9102 23.4278 28.875 23.4412C28.8398 23.4547 28.8102 23.4796 28.791 23.512C28.7809 23.5292 28.7662 23.5432 28.7487 23.5525C28.7311 23.5618 28.7113 23.5661 28.6914 23.5649C28.6669 23.5635 28.6435 23.5537 28.6253 23.5372C28.607 23.5208 28.5949 23.4986 28.591 23.4743C28.5713 23.3639 28.5264 23.2596 28.4598 23.1695C28.4483 23.1536 28.4426 23.1341 28.4436 23.1145C28.4447 23.0948 28.4524 23.0761 28.4655 23.0615L28.4867 23.0384C28.4988 23.0261 28.5139 23.0175 28.5306 23.0132C28.5472 23.009 28.5646 23.0093 28.5811 23.0143C28.6171 23.024 28.6553 23.0214 28.6897 23.007C28.7242 22.9926 28.7528 22.9672 28.7712 22.9347C28.7896 22.9022 28.7967 22.8646 28.7914 22.8276C28.7861 22.7907 28.7687 22.7566 28.7418 22.7306C28.715 22.7047 28.6804 22.6883 28.6433 22.6842C28.6062 22.6801 28.5688 22.6885 28.5369 22.7079C28.5051 22.7274 28.4806 22.7568 28.4674 22.7917C28.4541 22.8266 28.4528 22.8649 28.4636 22.9006C28.4682 22.9175 28.4679 22.9354 28.4626 22.9521C28.4573 22.9689 28.4474 22.9837 28.4339 22.995L28.4155 23.0115C28.4009 23.0247 28.3823 23.0326 28.3626 23.0338C28.343 23.035 28.3235 23.0295 28.3075 23.0181C28.2173 22.9509 28.1126 22.906 28.0018 22.8869C27.9775 22.883 27.9553 22.8709 27.9389 22.8526C27.9224 22.8343 27.9126 22.811 27.9112 22.7864C27.9104 22.7668 27.9149 22.7473 27.9242 22.7299C27.9335 22.7126 27.9473 22.698 27.9641 22.6878C27.9956 22.669 28.0201 22.6403 28.0337 22.6062C28.0473 22.5721 28.0494 22.5345 28.0396 22.4991C28.032 22.4714 28.0174 22.4461 27.9972 22.4257C27.9769 22.4054 27.9517 22.3907 27.924 22.3831C27.8849 22.3717 27.8431 22.3749 27.8062 22.3921C27.7693 22.4092 27.7399 22.4391 27.7233 22.4762C27.7067 22.5134 27.7042 22.5553 27.7161 22.5942C27.728 22.6331 27.7536 22.6663 27.7881 22.6878C27.8056 22.698 27.8198 22.7127 27.8294 22.7304C27.839 22.7482 27.8435 22.7682 27.8424 22.7883C27.841 22.8129 27.8312 22.8362 27.8148 22.8545C27.7983 22.8728 27.7761 22.8849 27.7518 22.8888C27.6413 22.9079 27.5369 22.9528 27.4471 23.02C27.431 23.0313 27.4116 23.0369 27.3919 23.0357C27.3723 23.0345 27.3536 23.0266 27.3391 23.0134L27.316 22.9931C27.3038 22.981 27.2951 22.9659 27.2908 22.9492C27.2866 22.9326 27.287 22.9151 27.2919 22.8987C27.3014 22.8633 27.2992 22.8258 27.2856 22.7918C27.272 22.7577 27.2477 22.7291 27.2164 22.71C27.1906 22.6953 27.1613 22.6875 27.1315 22.6875C27.1018 22.6875 27.0725 22.6953 27.0466 22.71C27.0111 22.7307 26.9845 22.7637 26.9716 22.8028C26.9587 22.8418 26.9606 22.8842 26.9769 22.922C26.9931 22.9598 27.0226 22.9903 27.0598 23.0078C27.0969 23.0253 27.1393 23.0286 27.1787 23.0171C27.1957 23.013 27.2136 23.0136 27.2302 23.0191C27.2469 23.0245 27.2617 23.0344 27.273 23.0478L27.2896 23.0662C27.3029 23.0807 27.3108 23.0995 27.3118 23.1192C27.3128 23.1389 27.307 23.1584 27.2952 23.1742C27.2285 23.2642 27.1839 23.3686 27.165 23.479C27.1611 23.5033 27.149 23.5255 27.1307 23.542C27.1125 23.5584 27.0891 23.5682 27.0646 23.5696C27.0447 23.5708 27.0249 23.5666 27.0073 23.5572C26.9898 23.5479 26.9751 23.5339 26.965 23.5167C26.9458 23.4843 26.9162 23.4594 26.881 23.4459C26.8458 23.4325 26.8071 23.4313 26.7712 23.4427C26.7444 23.4506 26.7201 23.4651 26.7005 23.485C26.681 23.5049 26.6668 23.5295 26.6594 23.5564C26.648 23.5954 26.6512 23.6373 26.6684 23.6742C26.6855 23.7111 26.7154 23.7405 26.7525 23.7571C26.7897 23.7737 26.8316 23.7762 26.8705 23.7643C26.9093 23.7524 26.9426 23.7268 26.9641 23.6922C26.9742 23.6748 26.989 23.6605 27.0067 23.651C27.0244 23.6414 27.0444 23.6369 27.0646 23.638C27.0891 23.6394 27.1125 23.6491 27.1307 23.6656C27.149 23.6821 27.1611 23.7043 27.165 23.7286C27.1837 23.839 27.2283 23.9435 27.2952 24.0333C27.307 24.0494 27.3128 24.069 27.3118 24.0888C27.3107 24.1087 27.3029 24.1276 27.2896 24.1423L27.2693 24.1654C27.2572 24.1776 27.2421 24.1863 27.2254 24.1906C27.2088 24.1948 27.1914 24.1944 27.1749 24.1895C27.139 24.1797 27.1008 24.1822 27.0664 24.1965C27.032 24.2108 27.0034 24.2362 26.985 24.2685C26.9665 24.3009 26.9594 24.3385 26.9647 24.3754C26.97 24.4123 26.9874 24.4464 27.0141 24.4723C27.0409 24.4982 27.0756 24.5144 27.1126 24.5185C27.1496 24.5226 27.1869 24.5142 27.2187 24.4947C27.2504 24.4753 27.2748 24.4458 27.288 24.4109C27.3012 24.3761 27.3024 24.3379 27.2914 24.3022C27.2872 24.2853 27.2878 24.2674 27.2932 24.2508C27.2985 24.2341 27.3083 24.2193 27.3216 24.2079L27.34 24.1914C27.3547 24.1783 27.3734 24.1705 27.393 24.1695C27.4127 24.1685 27.4321 24.1742 27.448 24.1857C27.538 24.2524 27.6424 24.297 27.7528 24.3159C27.777 24.3202 27.7992 24.3325 27.8156 24.3509C27.832 24.3693 27.8418 24.3927 27.8433 24.4174C27.8446 24.4372 27.8404 24.4569 27.8312 24.4745C27.822 24.4921 27.808 24.5068 27.791 24.5169C27.763 24.5338 27.7406 24.5585 27.7264 24.5879C27.7122 24.6173 27.7069 24.6503 27.7111 24.6827C27.7153 24.7151 27.7288 24.7456 27.7501 24.7704C27.7713 24.7952 27.7993 24.8134 27.8306 24.8226C27.8558 24.8298 27.8823 24.8311 27.908 24.8264C27.9338 24.8216 27.9581 24.811 27.979 24.7952C27.9999 24.7795 28.0169 24.7591 28.0287 24.7357C28.0404 24.7123 28.0466 24.6865 28.0466 24.6603C28.0464 24.6318 28.039 24.6039 28.0249 24.5791C28.0109 24.5544 27.9908 24.5336 27.9664 24.5188C27.9493 24.5083 27.9353 24.4935 27.9258 24.4758C27.9163 24.4582 27.9116 24.4383 27.9122 24.4183C27.9137 24.3937 27.9235 24.3703 27.9399 24.3519C27.9563 24.3335 27.9785 24.3212 28.0028 24.3169C28.1132 24.2981 28.2176 24.2535 28.3075 24.1867C28.3236 24.1751 28.3431 24.1693 28.3629 24.1704C28.3828 24.1714 28.4016 24.1791 28.4164 24.1923L28.4395 24.2135C28.4518 24.2256 28.4605 24.2408 28.4647 24.2574C28.4689 24.274 28.4686 24.2915 28.4636 24.3079C28.456 24.3364 28.456 24.3664 28.4636 24.3949C28.4712 24.4234 28.4862 24.4494 28.5071 24.4702C28.5279 24.4911 28.5539 24.5061 28.5824 24.5137C28.6109 24.5213 28.6409 24.5213 28.6694 24.5136C28.6979 24.506 28.7238 24.4909 28.7447 24.4701C28.7655 24.4492 28.7805 24.4232 28.7881 24.3947C28.7957 24.3661 28.7956 24.3361 28.7879 24.3077C28.7802 24.2792 28.7652 24.2532 28.7443 24.2324C28.7227 24.211 28.6956 24.1958 28.666 24.1884C28.6365 24.1811 28.6055 24.182 28.5763 24.1909C28.5594 24.1952 28.5416 24.1946 28.525 24.1894C28.5083 24.1841 28.4934 24.1744 28.482 24.1612L28.4655 24.1428C28.4524 24.1279 28.4447 24.1091 28.4437 24.0893C28.4426 24.0695 28.4483 24.0499 28.4598 24.0338C28.5266 23.9438 28.5715 23.8394 28.591 23.729C28.5949 23.7047 28.607 23.6825 28.6253 23.6661C28.6435 23.6496 28.6669 23.6399 28.6914 23.6385C28.7115 23.6376 28.7314 23.6422 28.7491 23.6518C28.7668 23.6613 28.7816 23.6755 28.7919 23.6927C28.8067 23.7169 28.8275 23.7369 28.8523 23.7508C28.8771 23.7647 28.905 23.772 28.9334 23.772C28.9596 23.772 28.9854 23.766 29.0088 23.7544C29.0322 23.7428 29.0526 23.7258 29.0683 23.705C29.0841 23.6841 29.0947 23.6598 29.0995 23.6341C29.1042 23.6084 29.1029 23.582 29.0957 23.5568C29.0889 23.5292 29.0752 23.5037 29.0558 23.4829C29.0364 23.4621 29.0119 23.4466 28.9848 23.438Z" fill="#75E4A5"/>
<g opacity="0.57">
<path opacity="0.57" d="M47.0833 8.70003C47.047 8.56753 46.9769 8.44676 46.8798 8.34958C46.7827 8.2524 46.662 8.18217 46.5295 8.14579C46.4209 8.11502 46.3071 8.10752 46.1954 8.12377C46.0837 8.14003 45.9767 8.17968 45.8814 8.24013C45.704 8.35602 45.5125 8.44875 45.3116 8.51607C45.2462 8.53475 45.1778 8.54002 45.1104 8.53157C45.043 8.52311 44.9779 8.5011 44.9192 8.46686C44.8605 8.43262 44.8094 8.38686 44.7688 8.33233C44.7283 8.2778 44.6992 8.21563 44.6833 8.14956C44.6213 7.92926 44.5328 7.71733 44.4196 7.51843C44.3851 7.46235 44.3621 7.39993 44.3521 7.33484C44.342 7.26975 44.3451 7.20331 44.3612 7.13943C44.3772 7.07556 44.4059 7.01554 44.4455 6.96292C44.4851 6.9103 44.5348 6.86614 44.5918 6.83305C44.7803 6.73262 44.9829 6.66122 45.1927 6.62126C45.3479 6.59102 45.4904 6.51513 45.6021 6.40333C45.6899 6.31578 45.7562 6.20906 45.7958 6.09157C45.8354 5.97407 45.8472 5.849 45.8303 5.72618C45.8134 5.60335 45.7682 5.48612 45.6983 5.3837C45.6285 5.28128 45.5358 5.19645 45.4276 5.13588C45.3083 5.06784 45.1733 5.03206 45.0359 5.03206C44.8985 5.03206 44.7635 5.06784 44.6441 5.13588C44.5453 5.19137 44.4593 5.26719 44.3919 5.35833C44.3245 5.44948 44.2772 5.55388 44.2531 5.66465C44.2082 5.87807 44.1344 6.08437 44.0338 6.27786C44.0014 6.33488 43.9578 6.38479 43.9057 6.42463C43.8536 6.46447 43.7941 6.49342 43.7306 6.50975C43.667 6.52608 43.6009 6.52946 43.536 6.51968C43.4712 6.50991 43.409 6.48718 43.3531 6.45286C43.1533 6.33888 42.9402 6.24985 42.7187 6.18777C42.6533 6.172 42.5918 6.14331 42.5377 6.10337C42.4836 6.06344 42.4381 6.01308 42.4038 5.95526C42.3695 5.89745 42.3471 5.83335 42.338 5.76674C42.3289 5.70014 42.3332 5.63239 42.3507 5.56748C42.4128 5.36752 42.5042 5.17788 42.622 5.00475C42.7104 4.8738 42.7575 4.71936 42.7573 4.56135C42.7576 4.43732 42.729 4.31494 42.6739 4.20381C42.6188 4.09269 42.5387 3.99585 42.4399 3.92093C42.3411 3.846 42.2262 3.79502 42.1043 3.77199C41.9824 3.74897 41.8569 3.75453 41.7375 3.78824C41.6049 3.82444 41.4841 3.89454 41.3868 3.99164C41.2895 4.08874 41.2192 4.20949 41.1828 4.34201C41.1524 4.45076 41.1453 4.56471 41.1619 4.6764C41.1786 4.78808 41.2187 4.89499 41.2795 4.99012C41.3956 5.16744 41.4883 5.35895 41.5555 5.55994C41.5742 5.62524 41.5794 5.69365 41.571 5.76105C41.5626 5.82845 41.5406 5.89345 41.5064 5.95214C41.4722 6.01083 41.4265 6.062 41.372 6.10258C41.3176 6.14315 41.2554 6.17229 41.1894 6.18824C40.9691 6.25027 40.7571 6.33898 40.5583 6.45239C40.5022 6.48684 40.4398 6.50972 40.3747 6.51968C40.3097 6.52964 40.2433 6.52649 40.1794 6.5104C40.1156 6.49431 40.0557 6.46562 40.0031 6.42601C39.9505 6.38639 39.9064 6.33666 39.8734 6.27975C39.7729 6.09121 39.7014 5.88863 39.6611 5.6788C39.6312 5.5237 39.5552 5.38119 39.4432 5.26984C39.3557 5.18204 39.249 5.11572 39.1315 5.0761C39.014 5.03649 38.889 5.02464 38.7662 5.04151C38.6433 5.05838 38.5261 5.10349 38.4237 5.17331C38.3212 5.24313 38.2364 5.33575 38.1757 5.4439C38.1077 5.56326 38.072 5.69827 38.072 5.83564C38.072 5.97302 38.1077 6.10802 38.1757 6.22739C38.2311 6.32586 38.3067 6.41151 38.3975 6.47874C38.4883 6.54597 38.5923 6.59325 38.7026 6.61748C38.916 6.6624 39.1223 6.73619 39.3158 6.83682C39.3728 6.86922 39.4228 6.91276 39.4626 6.96485C39.5024 7.01694 39.5314 7.07652 39.5477 7.14003C39.5641 7.20354 39.5674 7.26969 39.5577 7.33454C39.5479 7.39939 39.5252 7.4616 39.4908 7.51748C39.3771 7.71737 39.2882 7.93044 39.2262 8.15192C39.2104 8.21727 39.1818 8.27879 39.1418 8.33287C39.1019 8.38695 39.0515 8.43248 38.9937 8.46677C38.9359 8.50107 38.8718 8.52343 38.8052 8.53255C38.7386 8.54166 38.6708 8.53734 38.6059 8.51984C38.4058 8.45777 38.216 8.36637 38.0427 8.24862C37.9118 8.16011 37.7574 8.11295 37.5993 8.11324C37.4753 8.11309 37.353 8.1417 37.2419 8.19682C37.1309 8.25193 37.0341 8.33205 36.9592 8.43088C36.8844 8.5297 36.8334 8.64455 36.8104 8.76638C36.7874 8.88822 36.793 9.01373 36.8267 9.13305C36.8628 9.26565 36.9329 9.38655 37.03 9.48382C37.1271 9.58109 37.2479 9.65138 37.3805 9.68777C37.4891 9.71861 37.6031 9.72614 37.7148 9.70989C37.8266 9.69363 37.9337 9.65394 38.029 9.59343C38.2062 9.47732 38.3975 9.38457 38.5984 9.31748C38.6637 9.29879 38.7321 9.2935 38.7995 9.30193C38.8669 9.31036 38.9319 9.33233 38.9906 9.36652C39.0493 9.40071 39.1005 9.44642 39.141 9.5009C39.1816 9.55538 39.2107 9.6175 39.2267 9.68352C39.2885 9.90386 39.3771 10.1158 39.4904 10.3147C39.5248 10.3707 39.5477 10.4331 39.5577 10.4982C39.5676 10.5633 39.5645 10.6297 39.5484 10.6935C39.5323 10.7573 39.5036 10.8173 39.464 10.8698C39.4244 10.9224 39.3746 10.9665 39.3177 10.9996C39.1294 11.1002 38.927 11.1718 38.7173 11.2118C38.562 11.2417 38.4193 11.3176 38.3078 11.4297C38.22 11.5173 38.1537 11.624 38.1142 11.7415C38.0746 11.859 38.0628 11.9841 38.0797 12.1069C38.0966 12.2297 38.1418 12.347 38.2116 12.4494C38.2815 12.5518 38.3742 12.6366 38.4823 12.6972C38.6017 12.7652 38.7367 12.801 38.8741 12.801C39.0115 12.801 39.1465 12.7652 39.2658 12.6972C39.3643 12.6418 39.45 12.5662 39.5172 12.4754C39.5844 12.3846 39.6317 12.2807 39.6559 12.1703C39.7012 11.9569 39.7751 11.7507 39.8757 11.5571C39.9081 11.5001 39.9516 11.4502 40.0036 11.4104C40.0557 11.3705 40.1152 11.3416 40.1787 11.3253C40.2422 11.3089 40.3083 11.3055 40.3731 11.3153C40.4379 11.3251 40.5001 11.3478 40.5559 11.3821C40.7557 11.496 40.9688 11.5849 41.1904 11.6467C41.2557 11.6625 41.3173 11.6912 41.3714 11.7311C41.4255 11.771 41.471 11.8214 41.5053 11.8792C41.5397 11.937 41.5621 12.0011 41.5713 12.0677C41.5804 12.1343 41.5762 12.2021 41.5588 12.267C41.4964 12.4669 41.4051 12.6565 41.2875 12.8297C41.199 12.9606 41.1518 13.1151 41.1522 13.2731C41.152 13.3971 41.1806 13.5195 41.2357 13.6305C41.2908 13.7416 41.371 13.8384 41.4698 13.9132C41.5686 13.9881 41.6835 14.0391 41.8053 14.0621C41.9271 14.085 42.0527 14.0795 42.172 14.0458C42.3045 14.0095 42.4254 13.9394 42.5226 13.8423C42.6199 13.7452 42.6902 13.6245 42.7267 13.492C42.7571 13.3833 42.7642 13.2693 42.7476 13.1576C42.7309 13.0459 42.6908 12.939 42.63 12.8439C42.5139 12.6665 42.421 12.475 42.3536 12.2741C42.3349 12.2088 42.3296 12.1403 42.3381 12.0729C42.3465 12.0055 42.3685 11.9404 42.4028 11.8817C42.437 11.823 42.4828 11.7719 42.5373 11.7313C42.5918 11.6908 42.654 11.6617 42.7201 11.6458C42.9404 11.5837 43.1524 11.495 43.3512 11.3816C43.4073 11.3472 43.4697 11.3243 43.5348 11.3143C43.5998 11.3044 43.6662 11.3075 43.73 11.3236C43.7939 11.3397 43.8538 11.3684 43.9064 11.408C43.959 11.4476 44.0031 11.4974 44.0361 11.5543C44.1366 11.7428 44.208 11.9454 44.2479 12.1552C44.2782 12.3103 44.3543 12.4528 44.4663 12.5642C44.5538 12.652 44.6605 12.7183 44.778 12.7579C44.8955 12.7975 45.0205 12.8094 45.1433 12.7925C45.2662 12.7756 45.3834 12.7305 45.4858 12.6607C45.5883 12.5909 45.6732 12.4983 45.7338 12.3901C45.8018 12.2707 45.8376 12.1356 45.8376 11.9981C45.8376 11.8607 45.8018 11.7256 45.7338 11.6062C45.6784 11.5077 45.6028 11.422 45.512 11.3548C45.4212 11.2876 45.3172 11.2403 45.2069 11.2161C44.9934 11.171 44.7871 11.097 44.5937 10.9963C44.5367 10.9639 44.4869 10.9203 44.4471 10.8683C44.4073 10.8162 44.3783 10.7567 44.362 10.6933C44.3457 10.6298 44.3423 10.5637 44.352 10.4989C44.3618 10.4341 44.3844 10.3719 44.4187 10.3161C44.5327 10.1163 44.6217 9.90318 44.6838 9.68164C44.6995 9.61628 44.7282 9.55474 44.7682 9.50064C44.8081 9.44655 44.8584 9.40099 44.9162 9.36666C44.974 9.33233 45.0381 9.30991 45.1047 9.30074C45.1713 9.29156 45.2391 9.29581 45.304 9.31324C45.504 9.37563 45.6936 9.46718 45.8668 9.58494C45.9977 9.67336 46.1522 9.72051 46.3102 9.72031C46.4343 9.72055 46.5567 9.69199 46.6679 9.63688C46.779 9.58178 46.8759 9.50162 46.9508 9.40272C47.0258 9.30383 47.0767 9.18889 47.0997 9.06696C47.1227 8.94502 47.1171 8.81942 47.0833 8.70003Z" fill="white" stroke="#0C0F1E" stroke-width="0.571646" stroke-linecap="round" stroke-linejoin="round"/>
<path opacity="0.57" d="M41.3481 7.32279C41.5635 7.32279 41.7382 7.14811 41.7382 6.93264C41.7382 6.71716 41.5635 6.54248 41.3481 6.54248C41.1327 6.54248 40.958 6.71716 40.958 6.93264C40.958 7.14811 41.1327 7.32279 41.3481 7.32279Z" fill="#75E4A5"/>
<path opacity="0.57" d="M41.3064 11.0195C41.4476 11.0195 41.5621 10.905 41.5621 10.7638C41.5621 10.6225 41.4476 10.5081 41.3064 10.5081C41.1652 10.5081 41.0508 10.6225 41.0508 10.7638C41.0508 10.905 41.1652 11.0195 41.3064 11.0195Z" fill="#75E4A5"/>
<path opacity="0.57" d="M41.5617 9.70389C41.651 9.70389 41.7235 9.63144 41.7235 9.54207C41.7235 9.4527 41.651 9.38025 41.5617 9.38025C41.4723 9.38025 41.3999 9.4527 41.3999 9.54207C41.3999 9.63144 41.4723 9.70389 41.5617 9.70389Z" fill="#75E4A5"/>
<path opacity="0.57" d="M44.0453 4.16433C44.1347 4.16433 44.2071 4.09188 44.2071 4.00252C44.2071 3.91315 44.1347 3.8407 44.0453 3.8407C43.956 3.8407 43.8835 3.91315 43.8835 4.00252C43.8835 4.09188 43.956 4.16433 44.0453 4.16433Z" fill="#75E4A5"/>
<path opacity="0.57" d="M42.4298 8.98285C42.4653 8.98285 42.4941 8.95406 42.4941 8.91855C42.4941 8.88304 42.4653 8.85425 42.4298 8.85425C42.3943 8.85425 42.3655 8.88304 42.3655 8.91855C42.3655 8.95406 42.3943 8.98285 42.4298 8.98285Z" fill="#75E4A5"/>
<path opacity="0.57" d="M46.2176 8.9914C46.2531 8.9914 46.2819 8.96261 46.2819 8.9271C46.2819 8.89158 46.2531 8.86279 46.2176 8.86279C46.1821 8.86279 46.1533 8.89158 46.1533 8.9271C46.1533 8.96261 46.1821 8.9914 46.2176 8.9914Z" fill="#75E4A5"/>
<path opacity="0.57" d="M44.9713 12.0092C45.0068 12.0092 45.0355 11.9804 45.0355 11.9449C45.0355 11.9094 45.0068 11.8806 44.9713 11.8806C44.9358 11.8806 44.907 11.9094 44.907 11.9449C44.907 11.9804 44.9358 12.0092 44.9713 12.0092Z" fill="#75E4A5"/>
<path opacity="0.57" d="M39.1123 5.8659C39.1478 5.8659 39.1765 5.83712 39.1765 5.8016C39.1765 5.76609 39.1478 5.7373 39.1123 5.7373C39.0768 5.7373 39.048 5.76609 39.048 5.8016C39.048 5.83712 39.0768 5.8659 39.1123 5.8659Z" fill="#75E4A5"/>
<path opacity="0.57" d="M40.3431 9.19115C40.4184 9.19115 40.4794 9.1301 40.4794 9.0548C40.4794 8.9795 40.4184 8.91846 40.3431 8.91846C40.2678 8.91846 40.2068 8.9795 40.2068 9.0548C40.2068 9.1301 40.2678 9.19115 40.3431 9.19115Z" fill="#0C0F1E"/>
<path opacity="0.57" d="M39.8317 7.86751C39.8525 7.86751 39.8693 7.8507 39.8693 7.82996C39.8693 7.80923 39.8525 7.79242 39.8317 7.79242C39.811 7.79242 39.7942 7.80923 39.7942 7.82996C39.7942 7.8507 39.811 7.86751 39.8317 7.86751Z" fill="#0C0F1E"/>
<path opacity="0.57" d="M43.5622 10.2817C43.5829 10.2817 43.5997 10.2649 43.5997 10.2441C43.5997 10.2234 43.5829 10.2066 43.5622 10.2066C43.5415 10.2066 43.5247 10.2234 43.5247 10.2441C43.5247 10.2649 43.5415 10.2817 43.5622 10.2817Z" fill="#0C0F1E"/>
<path opacity="0.57" d="M40.2061 10.3191C40.2268 10.3191 40.2436 10.3022 40.2436 10.2815C40.2436 10.2608 40.2268 10.244 40.2061 10.244C40.1854 10.244 40.1686 10.2608 40.1686 10.2815C40.1686 10.3022 40.1854 10.3191 40.2061 10.3191Z" fill="#0C0F1E"/>
<path opacity="0.57" d="M44.9039 5.93945C44.942 5.93945 44.9729 5.90856 44.9729 5.87045C44.9729 5.83234 44.942 5.80145 44.9039 5.80145C44.8658 5.80145 44.835 5.83234 44.835 5.87045C44.835 5.90856 44.8658 5.93945 44.9039 5.93945Z" fill="#0C0F1E"/>
<path opacity="0.57" d="M43.6863 9.48214C43.7551 9.48214 43.8108 9.42638 43.8108 9.35759C43.8108 9.2888 43.7551 9.23303 43.6863 9.23303C43.6175 9.23303 43.5618 9.2888 43.5618 9.35759C43.5618 9.42638 43.6175 9.48214 43.6863 9.48214Z" fill="#0C0F1E"/>
<path opacity="0.57" d="M37.5254 7.15242C37.5942 7.15242 37.6499 7.09666 37.6499 7.02787C37.6499 6.95908 37.5942 6.90332 37.5254 6.90332C37.4566 6.90332 37.4009 6.95908 37.4009 7.02787C37.4009 7.09666 37.4566 7.15242 37.5254 7.15242Z" fill="#0C0F1E"/>
<path opacity="0.57" d="M42.7395 7.67999C42.7923 7.67999 42.8351 7.63715 42.8351 7.58432C42.8351 7.53148 42.7923 7.48865 42.7395 7.48865C42.6866 7.48865 42.6438 7.53148 42.6438 7.58432C42.6438 7.63715 42.6866 7.67999 42.7395 7.67999Z" fill="#0C0F1E"/>
<path opacity="0.57" d="M46.1525 7.02857C46.2054 7.02857 46.2482 6.98573 46.2482 6.93289C46.2482 6.88005 46.2054 6.83722 46.1525 6.83722C46.0997 6.83722 46.0569 6.88005 46.0569 6.93289C46.0569 6.98573 46.0997 7.02857 46.1525 7.02857Z" fill="#0C0F1E"/>
<path opacity="0.57" d="M39.1118 11.9449C39.1806 11.9449 39.2364 11.8891 39.2364 11.8203C39.2364 11.7516 39.1806 11.6958 39.1118 11.6958C39.0431 11.6958 38.9873 11.7516 38.9873 11.8203C38.9873 11.8891 39.0431 11.9449 39.1118 11.9449Z" fill="#0C0F1E"/>
<path opacity="0.57" d="M41.2765 7.93009C41.3167 7.93009 41.3493 7.89749 41.3493 7.85729C41.3493 7.81708 41.3167 7.78448 41.2765 7.78448C41.2363 7.78448 41.2037 7.81708 41.2037 7.85729C41.2037 7.89749 41.2363 7.93009 41.2765 7.93009Z" fill="#75E4A5"/>
<path opacity="0.57" d="M42.3658 4.46873C42.406 4.46873 42.4386 4.43614 42.4386 4.39593C42.4386 4.35572 42.406 4.32312 42.3658 4.32312C42.3256 4.32312 42.293 4.35572 42.293 4.39593C42.293 4.43614 42.3256 4.46873 42.3658 4.46873Z" fill="#75E4A5"/>
<path opacity="0.57" d="M41.7395 4.79759C41.7797 4.79759 41.8123 4.76499 41.8123 4.72478C41.8123 4.68457 41.7797 4.65198 41.7395 4.65198C41.6993 4.65198 41.6667 4.68457 41.6667 4.72478C41.6667 4.76499 41.6993 4.79759 41.7395 4.79759Z" fill="#75E4A5"/>
<path opacity="0.57" d="M43.8116 7.49663C43.8518 7.49663 43.8844 7.46403 43.8844 7.42382C43.8844 7.38361 43.8518 7.35101 43.8116 7.35101C43.7714 7.35101 43.7388 7.38361 43.7388 7.42382C43.7388 7.46403 43.7714 7.49663 43.8116 7.49663Z" fill="#75E4A5"/>
<path opacity="0.57" d="M42.6673 10.9089C42.7075 10.9089 42.74 10.8763 42.74 10.8361C42.74 10.7958 42.7075 10.7632 42.6673 10.7632C42.6271 10.7632 42.5945 10.7958 42.5945 10.8361C42.5945 10.8763 42.6271 10.9089 42.6673 10.9089Z" fill="#75E4A5"/>
<path opacity="0.57" d="M41.954 13.3556C41.9942 13.3556 42.0268 13.323 42.0268 13.2828C42.0268 13.2426 41.9942 13.21 41.954 13.21C41.9138 13.21 41.8812 13.2426 41.8812 13.2828C41.8812 13.323 41.9138 13.3556 41.954 13.3556Z" fill="#75E4A5"/>
<path opacity="0.57" d="M37.4212 8.92764C37.4614 8.92764 37.494 8.89504 37.494 8.85484C37.494 8.81464 37.4614 8.78204 37.4212 8.78204C37.381 8.78204 37.3484 8.81464 37.3484 8.85484C37.3484 8.89504 37.381 8.92764 37.4212 8.92764Z" fill="#75E4A5"/>
<path opacity="0.57" d="M43.3974 8.38734C43.385 8.38338 43.3717 8.38375 43.3595 8.38837C43.3473 8.393 43.3371 8.40162 43.3304 8.41281C43.3269 8.41868 43.3218 8.42345 43.3157 8.42661C43.3097 8.42978 43.3028 8.4312 43.296 8.43074C43.2876 8.43021 43.2796 8.42684 43.2733 8.42119C43.2671 8.41553 43.2629 8.40792 43.2616 8.3996C43.2542 8.36151 43.238 8.32566 43.2144 8.29487C43.2102 8.28959 43.2078 8.28301 43.2078 8.27623C43.2078 8.26945 43.2102 8.26288 43.2144 8.2576L43.222 8.24958C43.226 8.24524 43.2312 8.24214 43.237 8.24064C43.2428 8.23914 43.2488 8.23929 43.2545 8.24108C43.2669 8.24439 43.2801 8.24348 43.2919 8.2385C43.3038 8.23351 43.3136 8.22473 43.32 8.21354C43.3263 8.20235 43.3287 8.18937 43.3269 8.17665C43.325 8.16393 43.319 8.15218 43.3097 8.14326C43.3005 8.13433 43.2885 8.12873 43.2758 8.12733C43.263 8.12593 43.2501 8.12881 43.2391 8.13553C43.2282 8.14224 43.2198 8.1524 43.2152 8.16442C43.2106 8.17644 43.2102 8.18963 43.2139 8.20193C43.2155 8.20778 43.2154 8.21396 43.2135 8.21973C43.2117 8.2255 43.2082 8.23062 43.2036 8.23448L43.1974 8.24014C43.1921 8.24439 43.1856 8.24671 43.1788 8.24671C43.172 8.24671 43.1654 8.24439 43.1602 8.24014C43.1293 8.21633 43.0933 8.20016 43.055 8.19297C43.0467 8.19159 43.0391 8.18744 43.0334 8.18118C43.0277 8.17493 43.0244 8.16694 43.0238 8.15852C43.0235 8.15178 43.025 8.14506 43.0282 8.13909C43.0313 8.13311 43.036 8.1281 43.0418 8.12456C43.0526 8.11808 43.0611 8.10818 43.0658 8.09641C43.0705 8.08464 43.0712 8.07165 43.0677 8.05945C43.0652 8.04989 43.0602 8.04115 43.0533 8.03412C43.0463 8.02708 43.0376 8.02199 43.0281 8.01935C43.0147 8.01549 43.0003 8.0166 42.9877 8.02246C42.975 8.02833 42.9649 8.03856 42.9592 8.05128C42.9534 8.06401 42.9525 8.07837 42.9565 8.09174C42.9605 8.10511 42.9691 8.1166 42.9809 8.12409C42.9869 8.12754 42.9919 8.13258 42.9952 8.13866C42.9985 8.14473 43.0001 8.1516 42.9998 8.15852C42.9993 8.16694 42.9959 8.17493 42.9902 8.18118C42.9846 8.18744 42.977 8.19159 42.9687 8.19297C42.9305 8.20016 42.8946 8.21633 42.8639 8.24014C42.8587 8.24439 42.8521 8.24671 42.8453 8.24671C42.8385 8.24671 42.832 8.24439 42.8267 8.24014L42.8187 8.23307C42.8144 8.22896 42.8113 8.22374 42.8098 8.21799C42.8083 8.21224 42.8084 8.20619 42.8102 8.20051C42.8134 8.18831 42.8127 8.17538 42.808 8.16364C42.8033 8.15191 42.795 8.142 42.7842 8.13541C42.7753 8.13032 42.7652 8.12764 42.755 8.12764C42.7447 8.12764 42.7346 8.13032 42.7257 8.13541C42.7117 8.14166 42.7006 8.15326 42.6951 8.16763C42.6896 8.18201 42.69 8.19799 42.6963 8.21207C42.7025 8.22615 42.7141 8.23716 42.7285 8.24269C42.7428 8.24822 42.7588 8.24781 42.7729 8.24156C42.7788 8.23999 42.7849 8.24013 42.7907 8.24197C42.7965 8.24381 42.8016 8.24727 42.8055 8.25194L42.8111 8.25807C42.8154 8.26331 42.8178 8.2699 42.8178 8.2767C42.8178 8.28351 42.8154 8.2901 42.8111 8.29534C42.7874 8.32604 42.7712 8.36193 42.7639 8.40007C42.7626 8.4084 42.7584 8.416 42.7522 8.42166C42.7459 8.42732 42.7379 8.43068 42.7295 8.43121C42.7227 8.43168 42.7158 8.43025 42.7098 8.42709C42.7037 8.42392 42.6986 8.41915 42.6951 8.41328C42.6884 8.40209 42.6782 8.39347 42.666 8.38885C42.6539 8.38422 42.6405 8.38385 42.6281 8.38781C42.6189 8.3905 42.6105 8.39552 42.6037 8.40237C42.5969 8.40922 42.592 8.41769 42.5894 8.42697C42.5856 8.44038 42.5867 8.45473 42.5925 8.46739C42.5984 8.48006 42.6086 8.49018 42.6213 8.49591C42.6341 8.50164 42.6484 8.5026 42.6618 8.4986C42.6752 8.4946 42.6866 8.48592 42.6941 8.47414C42.6976 8.46814 42.7026 8.4632 42.7087 8.45988C42.7148 8.45655 42.7216 8.45496 42.7286 8.45527C42.737 8.4558 42.745 8.45917 42.7512 8.46482C42.7575 8.47048 42.7616 8.47809 42.763 8.48641C42.7702 8.52457 42.7864 8.56047 42.8102 8.59114C42.8145 8.59646 42.8169 8.60313 42.8169 8.61002C42.8169 8.6169 42.8145 8.62357 42.8102 8.62889L42.8031 8.63691C42.799 8.6412 42.7938 8.64426 42.788 8.64576C42.7823 8.64726 42.7762 8.64714 42.7705 8.6454C42.7581 8.642 42.7449 8.64284 42.733 8.64778C42.7211 8.65273 42.7112 8.66149 42.7048 8.67269C42.6985 8.68389 42.696 8.6969 42.6978 8.70965C42.6997 8.72241 42.7057 8.73419 42.715 8.74314C42.7242 8.75209 42.7362 8.75769 42.749 8.75907C42.7619 8.76045 42.7748 8.75752 42.7857 8.75076C42.7967 8.74399 42.8051 8.73376 42.8096 8.72169C42.8141 8.70962 42.8145 8.69639 42.8106 8.68408C42.8091 8.67823 42.8092 8.67206 42.8111 8.66628C42.8129 8.66051 42.8164 8.65539 42.821 8.65153L42.8272 8.64587C42.8324 8.64162 42.839 8.6393 42.8458 8.6393C42.8526 8.6393 42.8591 8.64162 42.8644 8.64587C42.8951 8.66963 42.931 8.6858 42.9691 8.69305C42.9775 8.69452 42.9851 8.69876 42.9907 8.7051C42.9964 8.71143 42.9998 8.71949 43.0003 8.72796C43.0007 8.73479 42.9993 8.74162 42.9961 8.7477C42.993 8.75377 42.9882 8.75886 42.9823 8.7624C42.9727 8.76824 42.965 8.77674 42.9602 8.78686C42.9553 8.79699 42.9535 8.80831 42.955 8.81945C42.9564 8.83059 42.9611 8.84107 42.9683 8.84962C42.9756 8.85816 42.9852 8.86441 42.996 8.86761C43.0047 8.87009 43.0139 8.87051 43.0227 8.86886C43.0316 8.86721 43.04 8.86352 43.0472 8.85808C43.0545 8.85264 43.0603 8.8456 43.0644 8.83751C43.0684 8.82942 43.0705 8.82051 43.0705 8.81146C43.0702 8.80191 43.0675 8.79259 43.0626 8.78435C43.0577 8.77611 43.0509 8.76922 43.0427 8.76429C43.0368 8.76072 43.032 8.75565 43.0286 8.7496C43.0253 8.74355 43.0237 8.73674 43.0238 8.72985C43.0243 8.72137 43.0277 8.71332 43.0334 8.70698C43.039 8.70065 43.0466 8.69641 43.055 8.69494C43.0933 8.68781 43.1294 8.67163 43.1602 8.64776C43.1655 8.64347 43.1722 8.64113 43.179 8.64113C43.1859 8.64113 43.1925 8.64347 43.1979 8.64776L43.2059 8.65531C43.2103 8.65938 43.2133 8.6646 43.2148 8.67036C43.2163 8.67612 43.2162 8.68218 43.2144 8.68786C43.2117 8.69771 43.2116 8.7081 43.2142 8.71799C43.2168 8.72787 43.222 8.73689 43.2292 8.74413C43.2364 8.75138 43.2454 8.75659 43.2553 8.75925C43.2651 8.76191 43.2755 8.76191 43.2854 8.75926C43.2953 8.75662 43.3043 8.75141 43.3115 8.74417C43.3187 8.73693 43.3238 8.72792 43.3264 8.71804C43.3291 8.70816 43.329 8.69777 43.3263 8.68791C43.3236 8.67806 43.3184 8.66909 43.3111 8.66191C43.3036 8.65451 43.2943 8.64929 43.2841 8.64679C43.2738 8.6443 43.2631 8.64463 43.2531 8.64776C43.2472 8.64921 43.2411 8.64902 43.2353 8.64718C43.2296 8.64535 43.2245 8.64195 43.2205 8.63738L43.2149 8.63124C43.2106 8.62589 43.2083 8.61923 43.2083 8.61237C43.2083 8.60551 43.2106 8.59886 43.2149 8.5935C43.2385 8.56274 43.2547 8.52688 43.262 8.48877C43.2634 8.48045 43.2676 8.47284 43.2738 8.46718C43.2801 8.46153 43.2881 8.45816 43.2965 8.45763C43.3034 8.45736 43.3102 8.45898 43.3163 8.4623C43.3224 8.46563 43.3274 8.47053 43.3309 8.4765C43.3359 8.48461 43.3428 8.49135 43.3511 8.49613C43.3593 8.5009 43.3686 8.50356 43.3781 8.50387C43.3871 8.50392 43.396 8.50188 43.4041 8.49789C43.4122 8.4939 43.4192 8.48808 43.4247 8.48089C43.4301 8.4737 43.4338 8.46534 43.4355 8.45647C43.4371 8.4476 43.4367 8.43847 43.4342 8.4298C43.4323 8.42015 43.4278 8.41117 43.4214 8.40373C43.415 8.39629 43.4067 8.39064 43.3974 8.38734Z" fill="#75E4A5"/>
</g>
</svg>
