<svg width="107" height="22" viewBox="0 0 107 22" fill="none" xmlns="http://www.w3.org/2000/svg">
<g clip-path="url(#clip0_1_873)">
<path opacity="0.2" d="M1.99466 13.003C3.09628 13.003 3.98931 12.1099 3.98931 11.0083C3.98931 9.90671 3.09628 9.01367 1.99466 9.01367C0.893038 9.01367 0 9.90671 0 11.0083C0 12.1099 0.893038 13.003 1.99466 13.003Z" fill="#212622"/>
<path d="M10.0103 13.003C11.1119 13.003 12.0049 12.1099 12.0049 11.0083C12.0049 9.90671 11.1119 9.01367 10.0103 9.01367C8.90866 9.01367 8.01562 9.90671 8.01562 11.0083C8.01562 12.1099 8.90866 13.003 10.0103 13.003Z" fill="#212622"/>
<path opacity="0.2" d="M6.00247 16.9922C7.10409 16.9922 7.99713 16.0992 7.99713 14.9976C7.99713 13.896 7.10409 13.0029 6.00247 13.0029C4.90085 13.0029 4.00781 13.896 4.00781 14.9976C4.00781 16.0992 4.90085 16.9922 6.00247 16.9922Z" fill="#212622"/>
<path d="M13.9986 16.9922C15.1002 16.9922 15.9932 16.0992 15.9932 14.9976C15.9932 13.896 15.1002 13.0029 13.9986 13.0029C12.8969 13.0029 12.0039 13.896 12.0039 14.9976C12.0039 16.0992 12.8969 16.9922 13.9986 16.9922Z" fill="#212622"/>
<path d="M10.0103 21.0001C11.1119 21.0001 12.0049 20.107 12.0049 19.0054C12.0049 17.9038 11.1119 17.0107 10.0103 17.0107C8.90866 17.0107 8.01562 17.9038 8.01562 19.0054C8.01562 20.107 8.90866 21.0001 10.0103 21.0001Z" fill="#212622"/>
<path d="M6.00247 8.99615C7.10409 8.99615 7.99713 8.10311 7.99713 7.00149C7.99713 5.89987 7.10409 5.00684 6.00247 5.00684C4.90085 5.00684 4.00781 5.89987 4.00781 7.00149C4.00781 8.10311 4.90085 8.99615 6.00247 8.99615Z" fill="#212622"/>
<path opacity="0.2" d="M13.9986 8.99615C15.1002 8.99615 15.9932 8.10311 15.9932 7.00149C15.9932 5.89987 15.1002 5.00684 13.9986 5.00684C12.8969 5.00684 12.0039 5.89987 12.0039 7.00149C12.0039 8.10311 12.8969 8.99615 13.9986 8.99615Z" fill="#212622"/>
<path d="M10.0103 4.98931C11.1119 4.98931 12.0049 4.09628 12.0049 2.99466C12.0049 1.89304 11.1119 1 10.0103 1C8.90866 1 8.01562 1.89304 8.01562 2.99466C8.01562 4.09628 8.90866 4.98931 10.0103 4.98931Z" fill="#212622"/>
<path opacity="0.2" d="M18.0064 13.003C19.108 13.003 20.001 12.1099 20.001 11.0083C20.001 9.90671 19.108 9.01367 18.0064 9.01367C16.9048 9.01367 16.0117 9.90671 16.0117 11.0083C16.0117 12.1099 16.9048 13.003 18.0064 13.003Z" fill="#212622"/>
</g>
<path d="M33.9874 17.119C32.2548 17.119 30.8237 16.5433 29.6942 15.3918C28.5647 14.2404 28 12.8203 28 11.1316C28 9.43188 28.5647 8.0118 29.6942 6.87135C30.8237 5.71993 32.2548 5.14422 33.9874 5.14422C35.0291 5.14422 35.9886 5.39096 36.8659 5.88442C37.7542 6.36692 38.445 7.02487 38.9385 7.85828L36.9811 8.99325C36.6959 8.47785 36.2902 8.0776 35.7638 7.79248C35.2375 7.4964 34.6453 7.34837 33.9874 7.34837C32.8689 7.34837 31.9642 7.69927 31.2733 8.40109C30.5934 9.10291 30.2535 10.0131 30.2535 11.1316C30.2535 12.2391 30.5934 13.1438 31.2733 13.8457C31.9642 14.5475 32.8689 14.8984 33.9874 14.8984C34.6453 14.8984 35.2375 14.7558 35.7638 14.4707C36.3012 14.1746 36.7069 13.7744 36.9811 13.2699L38.9385 14.4049C38.445 15.2383 37.7596 15.9018 36.8824 16.3952C36.0051 16.8777 35.0401 17.119 33.9874 17.119Z" fill="#212622"/>
<path d="M51.6003 5.37451V16.8887H49.3468V9.42092L46.1064 14.7668H45.8432L42.6028 9.43737V16.8887H40.3329V5.37451H42.6686L45.9748 10.8191L49.2646 5.37451H51.6003Z" fill="#212622"/>
<path d="M56.0157 14.7174H60.8681V16.8887H53.7457V5.37451H60.7858V7.54575H56.0157V9.99663H60.3746V12.135H56.0157V14.7174Z" fill="#212622"/>
<path d="M74.1961 5.37451V7.54575H71.0873V16.8887H68.8174V7.54575H65.725V5.37451H74.1961Z" fill="#212622"/>
<path d="M76.4424 10.0789C76.6398 9.55251 76.9633 9.15774 77.4129 8.89456C77.8735 8.63137 78.3834 8.49978 78.9426 8.49978V10.8684C78.2957 10.7917 77.7145 10.9232 77.1991 11.2632C76.6946 11.6031 76.4424 12.1679 76.4424 12.9574V16.8887H74.3205V8.66427H76.4424V10.0789Z" fill="#212622"/>
<path d="M86.129 8.66427H88.2509V16.8887H86.129V15.9182C85.4929 16.7187 84.5992 17.119 83.4478 17.119C82.3512 17.119 81.4082 16.7023 80.6186 15.8689C79.84 15.0245 79.4508 13.9937 79.4508 12.7765C79.4508 11.5593 79.84 10.534 80.6186 9.70055C81.4082 8.85617 82.3512 8.43399 83.4478 8.43399C84.5992 8.43399 85.4929 8.83424 86.129 9.63475V8.66427ZM82.2141 14.4543C82.6418 14.8819 83.1846 15.0958 83.8426 15.0958C84.5005 15.0958 85.0434 14.8819 85.471 14.4543C85.9097 14.0156 86.129 13.4564 86.129 12.7765C86.129 12.0966 85.9097 11.5428 85.471 11.1151C85.0434 10.6765 84.5005 10.4572 83.8426 10.4572C83.1846 10.4572 82.6418 10.6765 82.2141 11.1151C81.7865 11.5428 81.5726 12.0966 81.5726 12.7765C81.5726 13.4564 81.7865 14.0156 82.2141 14.4543Z" fill="#212622"/>
<path d="M91.2277 7.67734C90.8768 7.67734 90.5698 7.55123 90.3066 7.29902C90.0544 7.03584 89.9283 6.72879 89.9283 6.37788C89.9283 6.02698 90.0544 5.71993 90.3066 5.45675C90.5698 5.19357 90.8768 5.06198 91.2277 5.06198C91.5896 5.06198 91.8966 5.19357 92.1488 5.45675C92.412 5.71993 92.5436 6.02698 92.5436 6.37788C92.5436 6.72879 92.412 7.03584 92.1488 7.29902C91.8966 7.55123 91.5896 7.67734 91.2277 7.67734ZM90.175 16.8887V8.66427H92.2969V16.8887H90.175Z" fill="#212622"/>
<path d="M94.239 16.8887V4.88104H96.3609V16.8887H94.239Z" fill="#212622"/>
<path d="M102.593 4.88104V5.63533H101.513V8.88104H100.725V5.63533H99.6506V4.88104H102.593Z" fill="#5D6B98"/>
<path d="M106.948 4.88104V8.88104H106.165V6.28676L105.039 8.1439H104.948L103.822 6.29247V8.88104H103.034V4.88104H103.845L104.994 6.77247L106.137 4.88104H106.948Z" fill="#5D6B98"/>
<defs>
<clipPath id="clip0_1_873">
<rect width="20" height="20" fill="white" transform="translate(0 1)"/>
</clipPath>
</defs>
</svg>
