<svg width="50" height="50" viewBox="0 0 50 50" fill="none" xmlns="http://www.w3.org/2000/svg">
<path d="M17.3061 22.1278C17.5922 22.1066 17.8709 22.0262 18.1244 21.8918C18.3779 21.7574 18.6008 21.5718 18.779 21.3469C18.9572 21.122 19.0868 20.8626 19.1597 20.5851C19.2325 20.3075 19.2471 20.0179 19.2023 19.7344C19.008 17.1156 16.0537 14.7396 12.4099 17.9892C9.03249 21.0038 7.36505 26.6769 9.64948 33.1561C11.9339 39.6354 17.7386 40.6255 20.5655 36.717C22.9532 33.4151 20.7542 28.9552 18.566 28.9552" fill="white"/>
<path d="M17.3061 22.1278C17.5922 22.1066 17.8709 22.0262 18.1244 21.8918C18.3779 21.7574 18.6008 21.5718 18.779 21.3469C18.9572 21.122 19.0868 20.8626 19.1597 20.5851C19.2325 20.3075 19.2471 20.0179 19.2023 19.7344C19.008 17.1156 16.0537 14.7396 12.4099 17.9892C9.03249 21.0038 7.36505 26.6769 9.64948 33.1561C11.9339 39.6354 17.7386 40.6255 20.5655 36.717C22.9532 33.4151 20.7542 28.9552 18.566 28.9552" stroke="#0C0F1E" stroke-width="0.571646" stroke-linecap="round" stroke-linejoin="round"/>
<path d="M23.1046 11.1902C23.1046 11.1902 24.1837 21.2661 20.6616 21.2661L23.1046 11.1902Z" fill="white"/>
<path d="M23.1046 11.1902C23.1046 11.1902 24.1837 21.2661 20.6616 21.2661" stroke="#0C0F1E" stroke-width="0.571646" stroke-linecap="round" stroke-linejoin="round"/>
<path d="M32.3736 22.1278C32.0874 22.1066 31.8087 22.0263 31.5551 21.8919C31.3015 21.7575 31.0786 21.572 30.9004 21.3471C30.7221 21.1222 30.5924 20.8627 30.5195 20.5852C30.4467 20.3076 30.4321 20.0179 30.4769 19.7344C30.6712 17.1156 33.6264 14.7396 37.2694 17.9892C40.6477 21.0038 42.3165 26.6769 40.0297 33.1561C37.7429 39.6354 31.9406 40.6255 29.1146 36.717C26.7269 33.4151 28.9259 28.9552 31.1132 28.9552" fill="white"/>
<path d="M32.3736 22.1278C32.0874 22.1066 31.8087 22.0263 31.5551 21.8919C31.3015 21.7575 31.0786 21.572 30.9004 21.3471C30.7221 21.1222 30.5924 20.8627 30.5195 20.5852C30.4467 20.3076 30.4321 20.0179 30.4769 19.7344C30.6712 17.1156 33.6264 14.7396 37.2694 17.9892C40.6477 21.0038 42.3165 26.6769 40.0297 33.1561C37.7429 39.6354 31.9406 40.6255 29.1146 36.717C26.7269 33.4151 28.9259 28.9552 31.1132 28.9552" stroke="#0C0F1E" stroke-width="0.571646" stroke-linecap="round" stroke-linejoin="round"/>
<path d="M32.8361 28.9132C29.5993 29.2693 27.4927 28.0641 26.5531 27.009C25.6135 25.9538 24.8395 26.2613 24.8395 26.2613C24.8395 26.2613 24.0659 25.9538 23.1263 27.009C22.1866 28.0641 20.0796 29.2693 16.8433 28.9132" fill="white"/>
<path d="M32.8361 28.9132C29.5993 29.2693 27.4927 28.0641 26.5531 27.009C25.6135 25.9538 24.8395 26.2613 24.8395 26.2613C24.8395 26.2613 24.0659 25.9538 23.1263 27.009C22.1866 28.0641 20.0796 29.2693 16.8433 28.9132" stroke="#0C0F1E" stroke-width="0.571646" stroke-linecap="round" stroke-linejoin="round"/>
<path d="M26.5742 11.1902C26.5742 11.1902 25.4961 21.2661 29.0172 21.2661L26.5742 11.1902Z" fill="white"/>
<path d="M26.5742 11.1902C26.5742 11.1902 25.4961 21.2661 29.0172 21.2661" stroke="#0C0F1E" stroke-width="0.571646" stroke-linecap="round" stroke-linejoin="round"/>
<path d="M15.1 29.3577C15.1935 29.3577 15.2693 29.2725 15.2693 29.1675C15.2693 29.0625 15.1935 28.9774 15.1 28.9774C15.0065 28.9774 14.9307 29.0625 14.9307 29.1675C14.9307 29.2725 15.0065 29.3577 15.1 29.3577Z" fill="#75E4A5"/>
<path d="M12.6106 24.5908C12.7872 24.5908 12.9304 24.4301 12.9304 24.2318C12.9304 24.0335 12.7872 23.8727 12.6106 23.8727C12.434 23.8727 12.2908 24.0335 12.2908 24.2318C12.2908 24.4301 12.434 24.5908 12.6106 24.5908Z" fill="#0C0F1E"/>
<path d="M35.355 28.046C35.5162 28.046 35.647 27.8992 35.647 27.7181C35.647 27.537 35.5162 27.3902 35.355 27.3902C35.1937 27.3902 35.063 27.537 35.063 27.7181C35.063 27.8992 35.1937 28.046 35.355 28.046Z" fill="#0C0F1E"/>
<path d="M29.4604 24.7802C29.5539 24.7802 29.6297 24.6951 29.6297 24.5901C29.6297 24.4851 29.5539 24.4 29.4604 24.4C29.3668 24.4 29.291 24.4851 29.291 24.5901C29.291 24.6951 29.3668 24.7802 29.4604 24.7802Z" fill="#75E4A5"/>
<path d="M11.3025 28.9778C11.3025 28.9778 13.1421 35.3504 20.2831 33.6061C20.2831 33.6061 19.5756 38.0523 15.5865 37.1665C10.4907 36.0358 11.3025 28.9778 11.3025 28.9778Z" fill="#75E4A5"/>
<path d="M38.3767 28.9778C38.3767 28.9778 36.537 35.3504 29.397 33.6061C29.397 33.6061 30.1045 38.0523 34.0927 37.1665C39.1866 36.0358 38.3767 28.9778 38.3767 28.9778Z" fill="#75E4A5"/>
</svg>
