<svg width="50" height="50" viewBox="0 0 50 50" fill="none" xmlns="http://www.w3.org/2000/svg">
<path d="M14.8362 15.9165C14.8362 15.9165 13.8159 13.584 15.7744 12.4731C17.7329 11.3623 18.9593 12.4731 18.9593 12.4731" fill="white"/>
<path d="M14.8362 15.9165C14.8362 15.9165 13.8159 13.584 15.7744 12.4731C17.7329 11.3623 18.9593 12.4731 18.9593 12.4731" stroke="#0C0F1E" stroke-width="0.571646" stroke-linecap="round" stroke-linejoin="round"/>
<path d="M17.1154 11.9796C17.1154 11.9796 17.8848 9.62728 20.8532 9.61549C21.3957 9.61243 21.9344 9.70718 22.4433 9.89521C23.7905 10.3957 24.0598 11.148 24.0598 11.6117V36.549C24.0598 36.549 24.1603 40.0995 20.1277 40.6254C16.0952 41.1513 15.5258 37.5122 15.5258 37.5122C15.5258 37.5122 12.0197 37.3377 12.5022 33.8749C12.5022 33.8749 7.94377 32.6485 10.8362 27.6065C10.8362 27.6065 7.78244 25.3131 11.3329 21.7627C11.3329 21.7627 9.75555 18.1391 13.4372 16.3273C17.1188 14.5155 20.0409 18.8405 19.164 20.6523" fill="white"/>
<path d="M17.1154 11.9796C17.1154 11.9796 17.8848 9.62728 20.8532 9.61549C21.3957 9.61243 21.9344 9.70718 22.4433 9.89521C23.7905 10.3957 24.0598 11.148 24.0598 11.6117V36.549C24.0598 36.549 24.1603 40.0995 20.1277 40.6254C16.0952 41.1513 15.5258 37.5122 15.5258 37.5122C15.5258 37.5122 12.0197 37.3377 12.5022 33.8749C12.5022 33.8749 7.94377 32.6485 10.8362 27.6065C10.8362 27.6065 7.78244 25.3131 11.3329 21.7627C11.3329 21.7627 9.75555 18.1391 13.4372 16.3273C17.1188 14.5155 20.0409 18.8405 19.164 20.6523" stroke="#0C0F1E" stroke-width="0.571646" stroke-linecap="round" stroke-linejoin="round"/>
<path d="M10.8359 27.6099C11.2996 28.0298 11.8579 28.3316 12.4632 28.4893C13.0686 28.6471 13.7031 28.6562 14.3128 28.516" fill="white"/>
<path d="M10.8359 27.6099C11.2996 28.0298 11.8579 28.3316 12.4632 28.4893C13.0686 28.6471 13.7031 28.6562 14.3128 28.516" stroke="#0C0F1E" stroke-width="0.571646" stroke-linecap="round" stroke-linejoin="round"/>
<path d="M15.043 19.983C15.043 19.983 15.2175 23.8693 18.5779 24.3372C18.8311 24.3539 19.0851 24.3539 19.3383 24.3372C21.4868 24.182 21.9382 22.7306 21.9382 22.7306" fill="white"/>
<path d="M15.043 19.983C15.043 19.983 15.2175 23.8693 18.5779 24.3372C18.8311 24.3539 19.0851 24.3539 19.3383 24.3372C21.4868 24.182 21.9382 22.7306 21.9382 22.7306" stroke="#0C0F1E" stroke-width="0.571646" stroke-linecap="round" stroke-linejoin="round"/>
<path d="M19.3387 24.3363C19.3387 24.3363 19.1339 27.1127 15.9783 27.1127L19.3387 24.3363Z" fill="white"/>
<path d="M19.3387 24.3363C19.3387 24.3363 19.1339 27.1127 15.9783 27.1127" stroke="#0C0F1E" stroke-width="0.571646" stroke-linecap="round" stroke-linejoin="round"/>
<path d="M14.7805 33.5123C15.292 33.5391 15.7976 33.6343 16.2838 33.7953C17.1442 34.0201 17.8959 34.5452 18.403 35.2758C18.91 36.0063 19.1392 36.8941 19.0489 37.7788" fill="white"/>
<path d="M14.7805 33.5123C15.292 33.5391 15.7976 33.6343 16.2838 33.7953C17.1442 34.0201 17.8959 34.5452 18.403 35.2758C18.91 36.0063 19.1392 36.8941 19.0489 37.7788" stroke="#0C0F1E" stroke-width="0.571646" stroke-linecap="round" stroke-linejoin="round"/>
<path d="M16.2833 33.7948C16.2833 33.7948 15.6857 30.4156 19.572 29.1005L16.2833 33.7948Z" fill="white"/>
<path d="M16.2833 33.7948C16.2833 33.7948 15.6857 30.4156 19.572 29.1005" stroke="#0C0F1E" stroke-width="0.571646" stroke-linecap="round" stroke-linejoin="round"/>
<path d="M24.0592 35.6457C24.0592 35.6457 24.1172 32.0731 20.4856 32.0731L24.0592 35.6457Z" fill="white"/>
<path d="M24.0592 35.6457C24.0592 35.6457 24.1172 32.0731 20.4856 32.0731" stroke="#0C0F1E" stroke-width="0.571646" stroke-linecap="round" stroke-linejoin="round"/>
<path d="M24.0599 20.1589C24.0599 20.1589 23.651 17.8424 21.7434 17.8424L24.0599 20.1589Z" fill="white"/>
<path d="M24.0599 20.1589C24.0599 20.1589 23.651 17.8424 21.7434 17.8424" stroke="#0C0F1E" stroke-width="0.571646" stroke-linecap="round" stroke-linejoin="round"/>
<path d="M33.283 15.9165C33.283 15.9165 34.3024 13.584 32.3448 12.4731C30.3873 11.3623 29.1599 12.4731 29.1599 12.4731" fill="white"/>
<path d="M33.283 15.9165C33.283 15.9165 34.3024 13.584 32.3448 12.4731C30.3873 11.3623 29.1599 12.4731 29.1599 12.4731" stroke="#0C0F1E" stroke-width="0.571646" stroke-linecap="round" stroke-linejoin="round"/>
<path d="M31.0034 11.9796C31.0034 11.9796 30.2336 9.62727 27.2657 9.61548C26.7232 9.61257 26.1846 9.70732 25.6756 9.8952C24.3294 10.3957 24.0596 11.148 24.0596 11.6117V36.549C24.0596 36.549 23.9582 40.0994 27.9912 40.6254C32.0242 41.1513 32.5931 37.5122 32.5931 37.5122C32.5931 37.5122 36.1001 37.3377 35.6176 33.8749C35.6176 33.8749 40.1761 32.6485 37.2827 27.6065C37.2827 27.6065 40.3364 25.3131 36.786 21.7627C36.786 21.7627 38.3643 18.1391 34.6827 16.3273C31.0011 14.5155 28.0789 18.8405 28.9558 20.6523" fill="white"/>
<path d="M31.0034 11.9796C31.0034 11.9796 30.2336 9.62727 27.2657 9.61548C26.7232 9.61257 26.1846 9.70732 25.6756 9.8952C24.3294 10.3957 24.0596 11.148 24.0596 11.6117V36.549C24.0596 36.549 23.9582 40.0994 27.9912 40.6254C32.0242 41.1513 32.5931 37.5122 32.5931 37.5122C32.5931 37.5122 36.1001 37.3376 35.6176 33.8749C35.6176 33.8749 40.1761 32.6485 37.2827 27.6065C37.2827 27.6065 40.3364 25.3131 36.786 21.7627C36.786 21.7627 38.3643 18.1391 34.6827 16.3273C31.0011 14.5155 28.0789 18.8405 28.9558 20.6523" stroke="#0C0F1E" stroke-width="0.571646" stroke-linecap="round" stroke-linejoin="round"/>
<path d="M37.2823 27.6099C36.8186 28.0298 36.2604 28.3316 35.655 28.4893C35.0496 28.6471 34.4151 28.6562 33.8054 28.516" fill="white"/>
<path d="M37.2823 27.6099C36.8186 28.0298 36.2604 28.3316 35.655 28.4893C35.0496 28.6471 34.4151 28.6562 33.8054 28.516" stroke="#0C0F1E" stroke-width="0.571646" stroke-linecap="round" stroke-linejoin="round"/>
<path d="M33.0753 19.983C33.0753 19.983 32.8999 23.8693 29.5376 24.3372C29.2847 24.3539 29.031 24.3539 28.7782 24.3372C26.6296 24.182 26.1772 22.7306 26.1772 22.7306" fill="white"/>
<path d="M33.0753 19.983C33.0753 19.983 32.8999 23.8693 29.5376 24.3372C29.2847 24.3539 29.031 24.3539 28.7782 24.3372C26.6296 24.182 26.1772 22.7306 26.1772 22.7306" stroke="#0C0F1E" stroke-width="0.571646" stroke-linecap="round" stroke-linejoin="round"/>
<path d="M28.7803 24.3363C28.7803 24.3363 28.985 27.1127 32.1407 27.1127L28.7803 24.3363Z" fill="white"/>
<path d="M28.7803 24.3363C28.7803 24.3363 28.985 27.1127 32.1407 27.1127" stroke="#0C0F1E" stroke-width="0.571646" stroke-linecap="round" stroke-linejoin="round"/>
<path d="M31.8358 33.7948C31.8358 33.7948 32.4334 30.4156 28.5471 29.1005L31.8358 33.7948Z" fill="white"/>
<path d="M31.8358 33.7948C31.8358 33.7948 32.4334 30.4156 28.5471 29.1005" stroke="#0C0F1E" stroke-width="0.571646" stroke-linecap="round" stroke-linejoin="round"/>
<path d="M24.0594 31.9896C24.0594 31.9896 24.0004 28.416 27.632 28.416L24.0594 31.9896Z" fill="white"/>
<path d="M24.0594 31.9896C24.0594 31.9896 24.0004 28.416 27.632 28.416" stroke="#0C0F1E" stroke-width="0.571646" stroke-linecap="round" stroke-linejoin="round"/>
<path d="M24.0593 16.5566C24.0593 16.5566 24.4683 14.2401 26.3758 14.2401L24.0593 16.5566Z" fill="white"/>
<path d="M24.0593 16.5566C24.0593 16.5566 24.4683 14.2401 26.3758 14.2401" stroke="#0C0F1E" stroke-width="0.571646" stroke-linecap="round" stroke-linejoin="round"/>
<path d="M31.4879 37.7788C31.4879 37.7788 29.1266 38.1844 28.1158 37.1736C28.1158 37.1736 27.9271 38.2406 25.6313 37.7788C25.6299 37.7788 28.5667 41.7467 31.4879 37.7788Z" fill="#75E4A5"/>
<path d="M35.7221 21.9391C38.5497 21.9391 40.8419 19.6469 40.8419 16.8193C40.8419 13.9917 38.5497 11.6995 35.7221 11.6995C32.8945 11.6995 30.6023 13.9917 30.6023 16.8193C30.6023 19.6469 32.8945 21.9391 35.7221 21.9391Z" fill="#75E4A5" stroke="#0C0F1E" stroke-width="0.362043" stroke-linecap="round" stroke-linejoin="round"/>
<path d="M35.7232 20.6089C37.8159 20.6089 39.5124 18.9125 39.5124 16.8198C39.5124 14.7271 37.8159 13.0306 35.7232 13.0306C33.6305 13.0306 31.9341 14.7271 31.9341 16.8198C31.9341 18.9125 33.6305 20.6089 35.7232 20.6089Z" stroke="white" stroke-width="0.362043" stroke-linecap="round" stroke-linejoin="round" stroke-dasharray="1.45 1.45"/>
<path d="M36.0524 14.841H35.3925C35.3303 14.841 35.2798 14.8915 35.2798 14.9537V18.6641C35.2798 18.7264 35.3303 18.7769 35.3925 18.7769H36.0524C36.1147 18.7769 36.1652 18.7264 36.1652 18.6641V14.9537C36.1652 14.8915 36.1147 14.841 36.0524 14.841Z" fill="white"/>
<path d="M37.6912 17.1387V16.4788C37.6912 16.4165 37.6407 16.366 37.5784 16.366H33.868C33.8058 16.366 33.7553 16.4165 33.7553 16.4788V17.1387C33.7553 17.2009 33.8058 17.2514 33.868 17.2514H37.5784C37.6407 17.2514 37.6912 17.2009 37.6912 17.1387Z" fill="white"/>
<path d="M33.3384 33.5123C32.8269 33.5391 32.3213 33.6342 31.8351 33.7953C30.975 34.0206 30.2237 34.546 29.7171 35.2767C29.2105 36.0074 28.9818 36.8952 29.0724 37.7797" fill="white"/>
<path d="M33.3384 33.5123C32.8269 33.5391 32.3213 33.6342 31.8351 33.7953C30.975 34.0206 30.2237 34.546 29.7171 35.2767C29.2105 36.0074 28.9818 36.8952 29.0724 37.7797" stroke="#0C0F1E" stroke-width="0.571646" stroke-linecap="round" stroke-linejoin="round"/>
</svg>
