<svg width="51" height="50" viewBox="0 0 51 50" fill="none" xmlns="http://www.w3.org/2000/svg">
<path d="M25.3771 35.911C25.3771 35.911 22.9526 37.1188 21.3738 35.1732L25.3771 35.911Z" fill="white"/>
<path d="M25.3771 35.911C25.3771 35.911 22.9526 37.1188 21.3738 35.1732" stroke="#0C0F1E" stroke-width="0.571646" stroke-linecap="round" stroke-linejoin="round"/>
<path d="M22.9006 33.7173C22.9006 33.7173 19.6968 38.0428 15.0968 35.7768C12.9685 34.6551 13.7289 32.1117 14.2732 31.956C15.5053 31.5994 15.544 32.7673 17.1926 31.5541" fill="white"/>
<path d="M22.9006 33.7173C22.9006 33.7173 19.6968 38.0428 15.0968 35.7768C12.9685 34.6551 13.7289 32.1117 14.2732 31.956C15.5053 31.5994 15.544 32.7673 17.1926 31.5541" stroke="#0C0F1E" stroke-width="0.571646" stroke-linecap="round" stroke-linejoin="round"/>
<path d="M15.1726 26.8824C15.1726 26.8824 17.0344 29.263 14.0438 30.4377C11.0532 31.6125 10.9542 28.126 11.6334 27.4467" fill="white"/>
<path d="M15.1726 26.8824C15.1726 26.8824 17.0344 29.263 14.0438 30.4377C11.0532 31.6125 10.9542 28.126 11.6334 27.4467" stroke="#0C0F1E" stroke-width="0.571646" stroke-linecap="round" stroke-linejoin="round"/>
<path d="M19.5832 24.8678C19.5832 24.8678 16.7601 23.7697 15.2497 26.0886C13.7393 28.4074 11.4341 27.3244 11.2874 26.7905C11.1407 26.2565 10.5487 24.9287 12.4709 23.4641C12.4033 22.9003 12.1697 22.3693 11.7997 21.9386C11.2275 21.3664 11.8469 19.5891 13.4483 20.0315C13.4483 20.0315 12.5072 17.4688 15.3351 17.1027C15.3351 17.1027 14.9747 14.4013 18.1181 14.6306C18.1181 14.6306 19.562 16.6424 20.1775 16.9192C21.1624 17.3626 21.2303 19.773 19.0794 19.4367C16.9285 19.1004 16.7143 17.5452 16.7143 17.5452" fill="white"/>
<path d="M19.5832 24.8678C19.5832 24.8678 16.7601 23.7697 15.2497 26.0886C13.7393 28.4075 11.4341 27.3244 11.2874 26.7905C11.1407 26.2565 10.5487 24.9287 12.4709 23.4641C12.4033 22.9003 12.1697 22.3693 11.7997 21.9386C11.2275 21.3664 11.8469 19.5891 13.4483 20.0315C13.4483 20.0315 12.5072 17.4688 15.3351 17.1027C15.3351 17.1027 14.9747 14.4013 18.1181 14.6306C18.1181 14.6306 19.562 16.6424 20.1775 16.9192C21.1624 17.3626 21.2303 19.773 19.0794 19.4367C16.9285 19.1004 16.7143 17.5452 16.7143 17.5452" stroke="#0C0F1E" stroke-width="0.571646" stroke-linecap="round" stroke-linejoin="round"/>
<path d="M15.3569 23.8462C15.3569 23.8462 17.3555 23.4806 16.9739 21.9391C16.8215 21.1613 17.6758 20.5971 18.6366 20.7802C19.5975 20.9632 20.6508 21.8023 20.4984 22.9618C20.346 24.1212 18.989 24.7415 19.9715 26.4632C20.5069 27.4018 21.989 27.8636 22.9013 27.333C24.7324 26.266 23.1305 23.9915 21.9173 24.8844" fill="white"/>
<path d="M15.3569 23.8462C15.3569 23.8462 17.3555 23.4806 16.9739 21.9391C16.8215 21.1613 17.6758 20.5971 18.6366 20.7802C19.5975 20.9632 20.6508 21.8023 20.4984 22.9618C20.346 24.1212 18.989 24.7415 19.9715 26.4632C20.5069 27.4018 21.989 27.8636 22.9013 27.333C24.7324 26.266 23.1305 23.9915 21.9173 24.8844" stroke="#0C0F1E" stroke-width="0.571646" stroke-linecap="round" stroke-linejoin="round"/>
<path d="M15.1902 20.0924C15.2827 20.4997 15.5163 20.8612 15.8496 21.113C16.1828 21.3647 16.5944 21.4905 17.0114 21.4681" fill="white"/>
<path d="M15.1902 20.0924C15.2827 20.4997 15.5163 20.8612 15.8496 21.113C16.1828 21.3647 16.5944 21.4905 17.0114 21.4681" stroke="#0C0F1E" stroke-width="0.571646" stroke-linecap="round" stroke-linejoin="round"/>
<path d="M22.054 18.3538C22.054 18.3538 24.2964 16.7972 22.9082 14.692C22.6266 14.2552 22.2696 13.8719 21.854 13.5599C20.5172 12.5797 18.8941 12.8 18.1177 14.6307" fill="white"/>
<path d="M22.054 18.3538C22.054 18.3538 24.2964 16.7972 22.9082 14.692C22.6266 14.2552 22.2696 13.8719 21.854 13.5599C20.5172 12.5797 18.8941 12.8 18.1177 14.6307" stroke="#0C0F1E" stroke-width="0.571646" stroke-linecap="round" stroke-linejoin="round"/>
<path d="M21.8547 13.5622C21.8547 13.5622 21.9632 10.5905 25.1524 12.1471C26.4798 13.1693 25.5411 14.8098 26.4798 15.7481C27.4184 16.6863 27.7911 16.6867 27.7911 16.6867" fill="white"/>
<path d="M21.8547 13.5622C21.8547 13.5622 21.9632 10.5905 25.1524 12.1471C26.4798 13.1693 25.5411 14.8098 26.4798 15.7481C27.4184 16.6863 27.7911 16.6867 27.7911 16.6867" stroke="#0C0F1E" stroke-width="0.571646" stroke-linecap="round" stroke-linejoin="round"/>
<path d="M20.5066 22.8462C20.6926 22.928 20.8938 22.9695 21.097 22.9682C21.3002 22.9669 21.5009 22.9227 21.6858 22.8385C21.8708 22.7543 22.0359 22.632 22.1703 22.4796C22.3048 22.3272 22.4055 22.1482 22.466 21.9542C22.9811 20.4778 23.9306 17.3316 28.0957 19.0933C32.2608 20.8551 31.5061 17.4683 31.0019 16.5759C30.4976 15.6834 27.9127 15.0665 29.3778 12.1815C30.5674 10.9919 32.0783 11.3797 32.3528 12.7084C32.6273 14.0372 31.6891 14.8141 33.9778 15.3863" fill="white"/>
<path d="M20.5066 22.8462C20.6926 22.928 20.8938 22.9695 21.097 22.9682C21.3002 22.9669 21.5009 22.9227 21.6858 22.8385C21.8708 22.7543 22.0359 22.632 22.1703 22.4796C22.3048 22.3272 22.4055 22.1482 22.466 21.9542C22.9811 20.4778 23.9306 17.3316 28.0957 19.0933C32.2608 20.8551 31.5061 17.4683 31.0019 16.5759C30.4976 15.6834 27.9127 15.0665 29.3778 12.1815C30.5674 10.9919 32.0783 11.3797 32.3528 12.7084C32.6273 14.0372 31.6891 14.8141 33.9778 15.3863" stroke="#0C0F1E" stroke-width="0.571646" stroke-linecap="round" stroke-linejoin="round"/>
<path d="M25.4541 12.4314C25.4541 12.4314 26.8352 9.75638 29.3385 12.2601L25.4541 12.4314Z" fill="white"/>
<path d="M25.4541 12.4314C25.4541 12.4314 26.8352 9.75638 29.3385 12.2601" stroke="#0C0F1E" stroke-width="0.571646" stroke-linecap="round" stroke-linejoin="round"/>
<path d="M22.3833 22.1551C22.3833 22.1551 23.5074 21.6221 25.1442 23.2589C26.0767 24.2207 27.3322 24.8034 28.6687 24.8947" fill="white"/>
<path d="M22.3833 22.1551C22.3833 22.1551 23.5074 21.6221 25.1442 23.2589C26.0767 24.2207 27.3322 24.8034 28.6687 24.8947" stroke="#0C0F1E" stroke-width="0.571646" stroke-linecap="round" stroke-linejoin="round"/>
<path d="M24.5569 22.7438C24.5569 22.7438 25.7154 20.1693 28.6673 21.7027C31.6191 23.2362 33.7616 21.2641 34.2588 19.7688" fill="white"/>
<path d="M24.5569 22.7438C24.5569 22.7438 25.7154 20.1693 28.6673 21.7027C31.6191 23.2362 33.7616 21.2641 34.2588 19.7688" stroke="#0C0F1E" stroke-width="0.571646" stroke-linecap="round" stroke-linejoin="round"/>
<path d="M19.8616 26.266C19.8616 26.266 20.1545 27.1117 17.5909 29.2547C16.3206 30.525 17.3984 32.8995 19.6036 31.9655C19.8999 31.8352 20.1602 31.6351 20.3624 31.3824C20.5647 31.1297 20.7027 30.8318 20.7649 30.5141C20.7649 30.5141 22.1913 33.1085 24.3885 30.6773" fill="white"/>
<path d="M19.8616 26.266C19.8616 26.266 20.1545 27.1117 17.5909 29.2547C16.3206 30.525 17.3984 32.8995 19.6036 31.9655C19.8999 31.8352 20.1602 31.6351 20.3624 31.3824C20.5647 31.1297 20.7027 30.8318 20.7649 30.5141C20.7649 30.5141 22.1913 33.1085 24.3885 30.6773" stroke="#0C0F1E" stroke-width="0.571646" stroke-linecap="round" stroke-linejoin="round"/>
<path d="M38.7155 16.0806C38.7155 16.0806 41.6108 16.3896 40.5919 19.3547C40.4532 19.7417 40.4461 20.1637 40.5716 20.5552C40.8381 21.357 41.0433 22.7985 39.4428 23.4721C39.0216 23.6685 38.6952 24.0236 38.5348 24.4599C38.2089 25.2618 37.3273 26.241 34.9622 25.0438C34.2306 24.6735 33.0631 25.2957 33.3834 26.2655C33.7037 27.2353 33.0631 28.6712 32.5815 28.9339C32.0999 29.1967 31.8603 28.6712 30.6136 29.9179C29.7329 30.7985 29.606 29.9179 27.2424 30.6768C24.8787 31.4358 23.8164 29.9943 23.8164 28.7792C23.8164 27.3146 25.3197 25.7099 26.9296 26.6226C28.0589 27.2636 27.4329 28.7792 27.4329 28.7792" fill="white"/>
<path d="M38.7155 16.0806C38.7155 16.0806 41.6108 16.3896 40.5919 19.3547C40.4532 19.7417 40.4461 20.1637 40.5716 20.5552C40.8381 21.357 41.0433 22.7985 39.4428 23.4721C39.0216 23.6685 38.6952 24.0236 38.5348 24.4599C38.2089 25.2618 37.3273 26.241 34.9622 25.0438C34.2306 24.6735 33.0631 25.2957 33.3834 26.2655C33.7037 27.2353 33.0631 28.6712 32.5815 28.9339C32.0999 29.1967 31.8603 28.6712 30.6136 29.9179C29.7329 30.7985 29.606 29.9179 27.2424 30.6768C24.8787 31.4358 23.8164 29.9943 23.8164 28.7792C23.8164 27.3146 25.3197 25.7099 26.9296 26.6226C28.0589 27.2636 27.4329 28.7792 27.4329 28.7792" stroke="#0C0F1E" stroke-width="0.571646" stroke-linecap="round" stroke-linejoin="round"/>
<path d="M39.0803 23.6937C39.0803 23.6937 35.0832 22.8087 37.7384 20.4286L39.0803 23.6937Z" fill="white"/>
<path d="M39.0803 23.6937C39.0803 23.6937 35.0832 22.8087 37.7384 20.4286" stroke="#0C0F1E" stroke-width="0.571646" stroke-linecap="round" stroke-linejoin="round"/>
<path d="M31.5602 22.1678C31.5602 22.1678 32.4275 24.3344 30.8716 25.4943C29.3158 26.6542 29.6039 28.9023 31.3357 29.3037" fill="white"/>
<path d="M31.5602 22.1678C31.5602 22.1678 32.4275 24.3344 30.8716 25.4943C29.3158 26.6542 29.6039 28.9023 31.3357 29.3037" stroke="#0C0F1E" stroke-width="0.571646" stroke-linecap="round" stroke-linejoin="round"/>
<path d="M33.4583 21.0656C33.4583 21.0656 35.5124 22.2139 34.9629 25.0445L33.4583 21.0656Z" fill="white"/>
<path d="M33.4583 21.0656C33.4583 21.0656 35.5124 22.2139 34.9629 25.0445" stroke="#0C0F1E" stroke-width="0.571646" stroke-linecap="round" stroke-linejoin="round"/>
<path d="M18.6353 20.7799C18.9534 20.4076 19.1126 19.9253 19.0786 19.4367L18.6353 20.7799Z" fill="white"/>
<path d="M18.6353 20.7799C18.9534 20.4076 19.1126 19.9253 19.0786 19.4367" stroke="#0C0F1E" stroke-width="0.571646" stroke-linecap="round" stroke-linejoin="round"/>
<path d="M26.082 30.8906C26.082 30.8906 24.869 33.9019 25.625 39.0288L26.082 30.8906Z" fill="white"/>
<path d="M26.082 30.8906C26.082 30.8906 24.869 33.9019 25.625 39.0288" stroke="#0C0F1E" stroke-width="0.571646" stroke-linecap="round" stroke-linejoin="round"/>
<path d="M30.6134 29.9183C30.6134 29.9183 31.3458 32.4358 29.606 33.8551C27.8662 35.2745 28.508 39.3476 28.508 39.3476" fill="white"/>
<path d="M30.6134 29.9183C30.6134 29.9183 31.3458 32.4358 29.606 33.8551C27.8662 35.2745 28.508 39.3476 28.508 39.3476" stroke="#0C0F1E" stroke-width="0.571646" stroke-linecap="round" stroke-linejoin="round"/>
<path d="M13.6826 30.5608C13.6826 30.5608 14.7878 30.9236 14.3359 31.9389L13.6826 30.5608Z" fill="white"/>
<path d="M13.6826 30.5608C13.6826 30.5608 14.7878 30.9236 14.3359 31.9389" stroke="#0C0F1E" stroke-width="0.571646" stroke-linecap="round" stroke-linejoin="round"/>
<path d="M32.3521 12.7085C32.3521 12.7085 35.2511 11.1368 35.7851 14.2797C35.7851 14.2797 38.5464 13.4255 38.7148 16.0806C38.8832 18.7358 35.8464 20.5665 34.3511 19.8184C32.8558 19.0703 33.0459 17.1033 35.537 16.4467" fill="white"/>
<path d="M32.3521 12.7085C32.3521 12.7085 35.2511 11.1368 35.7851 14.2797C35.7851 14.2797 38.5464 13.4255 38.7148 16.0806C38.8832 18.7358 35.8464 20.5665 34.3511 19.8184C32.8558 19.0703 33.0459 17.1033 35.537 16.4467" stroke="#0C0F1E" stroke-width="0.571646" stroke-linecap="round" stroke-linejoin="round"/>
<path d="M14.8149 33.8075C14.8149 33.8075 16.4281 34.1377 17.355 33.2127C18.4777 33.877 19.8041 34.1091 21.0857 33.8655C21.0857 33.8655 17.4946 37.4467 14.8149 33.8075Z" fill="#75E4A5"/>
<path d="M27.5088 31.5533C27.5088 31.5533 28.6534 30.9462 29.4085 31.25C30.1635 31.5537 29.9188 32.8787 29.0647 33.3971C28.2105 33.9155 27.8441 36.4339 27.8441 36.4339C27.8441 36.4339 25.8675 33.1943 27.5088 31.5533Z" fill="#75E4A5"/>
</svg>
