<svg width="51" height="50" viewBox="0 0 51 50" fill="none" xmlns="http://www.w3.org/2000/svg">
<path d="M21.1066 39.7977C21.3651 39.4972 21.6255 39.1958 21.9085 38.9114C22.3421 38.4827 22.8001 38.0795 23.2802 37.7038C22.884 37.1944 22.4567 36.7098 22.0009 36.2529C21.6915 35.9425 21.3646 35.6595 21.0363 35.3802C18.3985 33.1398 15.0957 31.8314 11.6392 31.6576C12.5749 33.5911 13.8982 35.3114 15.527 36.7118C17.1558 38.1121 19.0552 39.1625 21.1071 39.7977H21.1066Z" fill="#75E4A5"/>
<path d="M33.5814 34.3147C29.8541 34.185 26.2023 35.3864 23.28 37.7038C23.957 38.5675 24.5408 39.5004 25.0215 40.4868C26.1179 40.5432 27.2172 40.4857 28.3017 40.3152C29.5161 37.8937 31.3348 35.8266 33.5819 34.3137L33.5814 34.3147Z" fill="#75E4A5"/>
<path d="M21.9078 38.9109C21.6248 39.1939 21.3649 39.4967 21.106 39.7972L21.1272 39.8048C22.3913 40.1942 23.6993 40.4235 25.0206 40.4873C24.5398 39.5008 23.956 38.568 23.2791 37.7043C22.7991 38.0797 22.3413 38.4826 21.9078 38.9109Z" fill="#75E4A5"/>
<path d="M37.7473 35.0203C38.5838 34.0533 39.2994 32.9881 39.8785 31.8481C37.6246 32.2014 35.4752 33.0431 33.5808 34.3142C34.995 34.3618 36.3964 34.5993 37.7473 35.0203Z" fill="#75E4A5"/>
<path d="M31.2305 36.2528C30.0433 37.442 29.0543 38.8138 28.3013 40.316C31.5861 39.8001 34.6218 38.2531 36.9697 35.8986C37.1503 35.7179 37.3079 35.5241 37.4782 35.3363C37.5725 35.233 37.6574 35.125 37.748 35.0203C36.3971 34.5988 34.9957 34.3608 33.5814 34.3127C32.7372 34.8823 31.9499 35.532 31.2305 36.2528Z" fill="#75E4A5"/>
<path d="M35.9609 12.7067C33.6222 10.7278 30.7578 9.47294 27.7176 9.09528C24.6775 8.71763 21.5931 9.23356 18.8414 10.5801C16.0896 11.9266 13.7895 14.0453 12.2222 16.6776C10.6548 19.3098 9.88798 22.3415 10.0154 25.4024C10.1427 28.4633 11.1588 31.4209 12.9394 33.9138C14.7201 36.4067 17.1882 38.327 20.0423 39.4403C22.8965 40.5535 26.013 40.8114 29.0113 40.1824C32.0096 39.5535 34.7598 38.065 36.926 35.8987C37.1066 35.718 37.2642 35.5241 37.4345 35.3364C40.1596 32.3382 41.6268 28.4066 41.5321 24.3561C41.4375 20.3057 39.7882 16.4469 36.926 13.5793C36.6156 13.2689 36.2896 12.9859 35.9609 12.7067Z" stroke="#0C0F1E" stroke-width="0.571646" stroke-linecap="round" stroke-linejoin="round"/>
<path d="M31.5944 24.2449C32.7038 23.0439 33.8114 24.6222 32.6128 25.5515C31.4142 26.4807 30.8836 25.7835 30.8836 25.7835C30.8836 25.7835 30.7359 26.4331 29.3335 26.65C26.4614 26.8661 26.5505 24.9283 26.5505 24.9283C25.6732 24.6321 25.8557 24.0392 25.8557 24.0392C26.1067 23.7882 26.4713 22.968 26.0614 22.5576C25.8465 22.2551 25.6894 21.9154 25.5982 21.5557C25.3346 20.8159 25.2532 20.0235 25.361 19.2456C25.4688 18.4677 25.7624 17.7272 26.2172 17.0869C26.6719 16.4466 27.2743 15.9254 27.9733 15.5674C28.6723 15.2093 29.4473 15.0251 30.2326 15.0302C30.2326 15.0302 36.7302 14.7472 35.9401 21.4326C35.8507 22.4004 35.5127 23.3287 34.959 24.1275C34.4053 24.9264 33.6546 25.5686 32.7798 25.992C32.5422 26.2644 32.3652 26.5842 32.2605 26.9301C32.1558 27.276 32.1257 27.6402 32.1722 27.9986C32.385 29.0015 31.6859 31.7675 28.9501 33.1349C26.4029 34.4085 25.0411 34.9184 22.7793 33.9265C22.3262 33.7361 21.9376 33.4192 21.66 33.0137C21.4413 32.6916 21.3291 32.3091 21.339 31.9199C21.3489 31.5308 21.4804 31.1545 21.7152 30.8439" fill="white"/>
<path d="M31.5944 24.2449C32.7038 23.0439 33.8114 24.6222 32.6128 25.5515C31.4142 26.4807 30.8836 25.7835 30.8836 25.7835C30.8836 25.7835 30.7359 26.4331 29.3336 26.65C26.4614 26.8661 26.5505 24.9283 26.5505 24.9283C25.6732 24.6321 25.8557 24.0392 25.8557 24.0392C26.1067 23.7882 26.4713 22.968 26.0614 22.5576C25.8465 22.2551 25.6894 21.9154 25.5982 21.5557C25.3346 20.8159 25.2532 20.0235 25.361 19.2456C25.4688 18.4677 25.7624 17.7272 26.2172 17.0869C26.6719 16.4466 27.2743 15.9254 27.9733 15.5674C28.6723 15.2093 29.4473 15.0251 30.2326 15.0302C30.2326 15.0302 36.7302 14.7472 35.9401 21.4326C35.8507 22.4004 35.5127 23.3287 34.959 24.1275C34.4053 24.9264 33.6546 25.5686 32.7798 25.992C32.5422 26.2644 32.3652 26.5842 32.2605 26.9301C32.1558 27.276 32.1257 27.6402 32.1722 27.9986C32.385 29.0015 31.6859 31.7675 28.9501 33.1349C26.4029 34.4085 25.0411 34.9184 22.7793 33.9265C22.3262 33.7361 21.9376 33.4192 21.66 33.0137C21.4413 32.6916 21.3291 32.3091 21.339 31.9199C21.3489 31.5308 21.4804 31.1545 21.7152 30.8439" stroke="#0C0F1E" stroke-width="0.571646" stroke-linecap="round" stroke-linejoin="round"/>
<path d="M22.5672 28.7128C22.5672 28.7128 22.597 30.7797 20.88 31.3269C19.163 31.8741 19.1097 31.7297 18.9649 31.8741C18.8201 32.0184 18.8427 32.5425 18.2196 32.5425C17.5965 32.5425 15.3776 31.2812 15.5149 30.1264C15.6522 28.9717 15.8342 28.7113 16.2899 28.7113C16.7456 28.7113 17.4602 29.8816 17.9158 29.8816C18.3715 29.8816 20.0224 26.8547 21.5951 26.7948C23.4573 26.7241 24.5724 27.5717 24.6937 30.8845" fill="white"/>
<path d="M22.5672 28.7128C22.5672 28.7128 22.597 30.7797 20.88 31.3269C19.163 31.8741 19.1097 31.7297 18.9649 31.8741C18.8201 32.0184 18.8427 32.5425 18.2196 32.5425C17.5965 32.5425 15.3776 31.2812 15.5149 30.1264C15.6522 28.9717 15.8342 28.7113 16.2899 28.7113C16.7456 28.7113 17.4602 29.8816 17.9158 29.8816C18.3715 29.8816 20.0224 26.8547 21.5951 26.7948C23.4573 26.7241 24.5724 27.5717 24.6937 30.8845" stroke="#0C0F1E" stroke-width="0.571646" stroke-linecap="round" stroke-linejoin="round"/>
<path d="M20.2461 27.4439C19.9796 26.9917 19.8875 26.4578 19.9871 25.9425C20.2031 25.2349 19.7381 24.9278 19.9135 24.3241C20.089 23.7203 20.6135 23.3896 21.5602 23.3335C21.6813 23.2732 21.7992 23.2067 21.9135 23.1345C22.0777 23.0774 22.7282 22.9099 22.6942 23.783C22.6687 24.4326 22.5706 24.108 22.6975 24.3816C22.8244 24.6552 22.5347 26.4392 21.9994 26.7925" fill="white"/>
<path d="M20.2461 27.4439C19.9796 26.9917 19.8875 26.4578 19.9871 25.9425C20.2031 25.2349 19.7381 24.9278 19.9135 24.3241C20.089 23.7203 20.6135 23.3896 21.5602 23.3335C21.6813 23.2732 21.7992 23.2067 21.9135 23.1345C22.0777 23.0774 22.7282 22.9099 22.6942 23.783C22.6687 24.4326 22.5706 24.108 22.6975 24.3816C22.8244 24.6552 22.5347 26.4392 21.9994 26.7925" stroke="#0C0F1E" stroke-width="0.571646" stroke-linecap="round" stroke-linejoin="round"/>
<path d="M26.5949 25.2797C26.3484 25.0099 26.0209 24.8276 25.6617 24.7601C25.3025 24.6926 24.9311 24.7437 24.6034 24.9057C23.452 25.4868 24.2388 26.7977 24.4096 26.9684C24.5803 27.1392 24.7629 28.451 25.561 28.451C26.3591 28.451 26.6322 28.1316 26.8817 28.1316C27.0027 28.1188 27.1193 28.0795 27.2233 28.0166C27.3274 27.9536 27.4163 27.8686 27.4838 27.7674C27.5513 27.6663 27.5958 27.5515 27.614 27.4313C27.6322 27.3111 27.6238 27.1883 27.5893 27.0717C27.4077 26.342 27.2709 26.2571 27.2709 26.2571" fill="white"/>
<path d="M26.5949 25.2797C26.3484 25.0099 26.0209 24.8276 25.6617 24.7601C25.3025 24.6926 24.9311 24.7437 24.6034 24.9057C23.452 25.4868 24.2388 26.7977 24.4096 26.9684C24.5803 27.1392 24.7629 28.451 25.561 28.451C26.3591 28.451 26.6322 28.1316 26.8817 28.1316C27.0027 28.1188 27.1193 28.0795 27.2233 28.0166C27.3274 27.9536 27.4163 27.8686 27.4838 27.7674C27.5513 27.6663 27.5958 27.5515 27.614 27.4313C27.6322 27.3111 27.6238 27.1883 27.5893 27.0717C27.4077 26.342 27.2709 26.2571 27.2709 26.2571" stroke="#0C0F1E" stroke-width="0.571646" stroke-linecap="round" stroke-linejoin="round"/>
<path d="M25.5608 28.4505C26.2421 28.5752 26.9404 28.5752 27.6216 28.4505C28.6268 28.2335 29.6528 28.0732 30.3023 28.7236" fill="white"/>
<path d="M25.5608 28.4505C26.2421 28.5752 26.9404 28.5752 27.6216 28.4505C28.6268 28.2335 29.6528 28.0732 30.3023 28.7236" stroke="#0C0F1E" stroke-width="0.571646" stroke-linecap="round" stroke-linejoin="round"/>
<path d="M24.6378 27.5132C24.5151 27.6321 24.4203 27.7766 24.3601 27.9365C24.2999 28.0963 24.2758 28.2675 24.2897 28.4378" fill="white"/>
<path d="M24.6378 27.5132C24.5151 27.6321 24.4203 27.7766 24.3601 27.9365C24.2999 28.0963 24.2758 28.2675 24.2897 28.4378" stroke="#0C0F1E" stroke-width="0.571646" stroke-linecap="round" stroke-linejoin="round"/>
<path d="M24.6934 30.3996C24.6934 30.3996 26.9278 31.843 28.9037 31.2053L24.6934 30.3996Z" fill="white"/>
<path d="M24.6934 30.3996C24.6934 30.3996 26.9278 31.843 28.9037 31.2053" stroke="#0C0F1E" stroke-width="0.571646" stroke-linecap="round" stroke-linejoin="round"/>
<path d="M22.5562 25.7189C22.5562 25.7189 23.342 25.0651 23.9958 25.7189H22.5562Z" fill="white"/>
<path d="M22.5562 25.7189C22.5562 25.7189 23.342 25.0651 23.9958 25.7189" stroke="#0C0F1E" stroke-width="0.571646" stroke-linecap="round" stroke-linejoin="round"/>
<path d="M26.6317 28.2028C26.4813 28.0531 26.3579 27.8786 26.2671 27.6868L26.6317 28.2028Z" fill="white"/>
<path d="M26.6317 28.2028C26.4813 28.0531 26.3579 27.8786 26.2671 27.6868" stroke="#0C0F1E" stroke-width="0.571646" stroke-linecap="round" stroke-linejoin="round"/>
<path d="M27.396 27.8787C27.396 27.8787 26.9295 27.6641 26.8535 27.3754L27.396 27.8787Z" fill="white"/>
<path d="M27.396 27.8787C27.396 27.8787 26.9295 27.6641 26.8535 27.3754" stroke="#0C0F1E" stroke-width="0.571646" stroke-linecap="round" stroke-linejoin="round"/>
<path d="M21.6781 23.2817C21.6781 23.2817 21.6111 23.8916 21.8729 24.1534L21.6781 23.2817Z" fill="white"/>
<path d="M21.6781 23.2817C21.6781 23.2817 21.6111 23.8916 21.8729 24.1534" stroke="#0C0F1E" stroke-width="0.571646" stroke-linecap="round" stroke-linejoin="round"/>
<path d="M15.5737 29.7005C15.6561 29.699 15.7371 29.722 15.8063 29.7667C15.8756 29.8114 15.9299 29.8757 15.9624 29.9515" fill="white"/>
<path d="M15.5737 29.7005C15.6561 29.699 15.7371 29.722 15.8063 29.7667C15.8756 29.8114 15.9299 29.8757 15.9624 29.9515" stroke="#0C0F1E" stroke-width="0.571646" stroke-linecap="round" stroke-linejoin="round"/>
<path d="M15.7249 29.1071C15.7249 29.1071 16.3664 29.1608 16.4116 29.4726L15.7249 29.1071Z" fill="white"/>
<path d="M15.7249 29.1071C15.7249 29.1071 16.3664 29.1608 16.4116 29.4726" stroke="#0C0F1E" stroke-width="0.571646" stroke-linecap="round" stroke-linejoin="round"/>
<path d="M31.3623 25.1849C31.3854 25.1048 31.4256 25.0308 31.4801 24.9679C31.5347 24.9049 31.6023 24.8547 31.6782 24.8205C31.7542 24.7863 31.8366 24.7691 31.9199 24.7701C32.0032 24.771 32.0853 24.79 32.1604 24.8259" fill="white"/>
<path d="M31.3623 25.1849C31.3854 25.1048 31.4256 25.0308 31.4801 24.9679C31.5347 24.9049 31.6023 24.8547 31.6782 24.8205C31.7542 24.7863 31.8366 24.7691 31.9199 24.7701C32.0032 24.771 32.0853 24.79 32.1604 24.8259" stroke="#0C0F1E" stroke-width="0.571646" stroke-linecap="round" stroke-linejoin="round"/>
<path d="M26.7461 23.401C26.7461 23.401 26.8598 24.5633 28.2286 23.8449L26.7461 23.401Z" fill="white"/>
<path d="M26.7461 23.401C26.7461 23.401 26.8598 24.5633 28.2286 23.8449" stroke="#0C0F1E" stroke-width="0.571646" stroke-linecap="round" stroke-linejoin="round"/>
<path d="M25.1144 24.7383C25.1144 24.7383 23.8993 18.6982 17.4587 21.7195C11.0182 24.7407 10.8054 19.7053 10.8054 19.7053" stroke="#0C0F1E" stroke-width="0.571646" stroke-linecap="round" stroke-linejoin="round"/>
<path d="M25.8048 24.7888C25.8048 24.7888 25.1916 20.2963 20.9572 20.1907C16.7227 20.085 12.5043 25.1435 11.1204 18.8468" stroke="#0C0F1E" stroke-width="0.571646" stroke-linecap="round" stroke-linejoin="round"/>
</svg>
