<svg width="51" height="50" viewBox="0 0 51 50" fill="none" xmlns="http://www.w3.org/2000/svg">
<path d="M32.408 20.5156C32.408 20.5156 33.9174 21.191 34.8136 18.4585C35.7098 15.726 35.6542 15.2778 38.7339 15.5024" stroke="#75E4A5" stroke-width="0.571646" stroke-miterlimit="10"/>
<path d="M31.0845 30.6945C31.0845 30.6945 33.6071 31.7963 33.6071 33.4775C33.6071 35.1586 34.8142 37.0053 36.2958 37.0053C37.7774 37.0053 38.7302 37.3973 38.7302 38.0695" stroke="#75E4A5" stroke-width="0.571646" stroke-miterlimit="10"/>
<path d="M22.4179 32.4023C22.4179 32.4023 22.8056 34.6061 21.9326 35.4806C21.0596 36.3551 21.6642 38.0683 22.2188 38.0683" stroke="#75E4A5" stroke-width="0.571646" stroke-miterlimit="10"/>
<path d="M17.3338 23.4736C17.3338 23.4736 15.9485 22.3887 14.4994 23.2708C14.092 23.5649 13.5926 23.7034 13.0918 23.6611C12.5911 23.6187 12.122 23.3985 11.7697 23.0401C11.4746 22.8309 11.1379 22.6877 10.7825 22.6203" stroke="#75E4A5" stroke-width="0.571646" stroke-miterlimit="10"/>
<path d="M22.0247 17.3278C22.0247 17.3278 22.8765 16.4047 20.924 15.0609C18.9715 13.717 19.179 13.1712 19.8949 11.9741" stroke="#75E4A5" stroke-width="0.571646" stroke-miterlimit="10"/>
<path d="M27.4221 16.8407C27.1472 16.4518 27.0238 15.976 27.0751 15.5025C27.1264 15.0291 27.349 14.5907 27.7008 14.2699C28.4751 13.4268 28.922 12.3343 28.9605 11.1902" fill="white"/>
<path d="M27.4221 16.8407C27.1472 16.4518 27.0238 15.976 27.0751 15.5025C27.1264 15.0291 27.349 14.5907 27.7008 14.2699C28.4751 13.4268 28.922 12.3343 28.9605 11.1902" stroke="#0C0F1E" stroke-width="0.469512" stroke-linecap="round" stroke-linejoin="round"/>
<path d="M30.6213 18.4588C31.083 18.363 31.5073 18.1363 31.8434 17.8056C32.1796 17.475 32.4133 17.0544 32.5166 16.5943C32.7758 15.5724 33.3666 14.6653 34.1964 14.0151" fill="white"/>
<path d="M30.6213 18.4588C31.083 18.363 31.5073 18.1363 31.8434 17.8056C32.1796 17.475 32.4133 17.0544 32.5166 16.5943C32.7758 15.5724 33.3666 14.6653 34.1964 14.0151" stroke="#0C0F1E" stroke-width="0.469512" stroke-linecap="round" stroke-linejoin="round"/>
<path d="M33.0779 21.8839C33.0779 21.8839 34.493 22.9603 35.5694 21.8839C36.6458 20.8075 37.4425 18.8051 39.5147 19.5896" fill="white"/>
<path d="M33.0779 21.8839C33.0779 21.8839 34.493 22.9603 35.5694 21.8839C36.6458 20.8075 37.4425 18.8051 39.5147 19.5896" stroke="#0C0F1E" stroke-width="0.469512" stroke-linecap="round" stroke-linejoin="round"/>
<path d="M33.606 25.5245C33.9404 25.9953 34.4201 26.3433 34.9713 26.5153C35.5226 26.6872 36.1151 26.6736 36.6578 26.4764C38.7305 25.8599 39.514 27.2043 39.514 27.2043" fill="white"/>
<path d="M33.606 25.5245C33.9404 25.9953 34.4201 26.3433 34.9713 26.5153C35.5226 26.6872 36.1151 26.6736 36.6578 26.4764C38.7305 25.8599 39.514 27.2043 39.514 27.2043" stroke="#0C0F1E" stroke-width="0.469512" stroke-linecap="round" stroke-linejoin="round"/>
<path d="M33.0779 29.2189C33.5059 29.393 33.8947 29.6511 34.2215 29.9778C34.5482 30.3046 34.8062 30.6935 34.9803 31.1216C35.4288 32.0724 36.1246 32.8851 36.9949 33.4748" fill="white"/>
<path d="M33.0779 29.2189C33.5059 29.393 33.8947 29.6511 34.2215 29.9778C34.5482 30.3046 34.8062 30.6935 34.9803 31.1216C35.4288 32.0724 36.1246 32.8851 36.9949 33.4748" stroke="#0C0F1E" stroke-width="0.469512" stroke-linecap="round" stroke-linejoin="round"/>
<path d="M28.9607 32.1651C28.9607 32.1651 28.5895 33.9802 31.083 35.0425C33.5764 36.1047 31.3376 38.7939 31.3376 38.7939" fill="white"/>
<path d="M28.9607 32.1651C28.9607 32.1651 28.5895 33.9802 31.083 35.0425C33.5764 36.1047 31.3376 38.7939 31.3376 38.7939" stroke="#0C0F1E" stroke-width="0.469512" stroke-linecap="round" stroke-linejoin="round"/>
<path d="M24.6765 32.9722C24.6765 32.9722 25.7963 34.9329 24.6765 36.8365V32.9722Z" fill="white"/>
<path d="M24.6765 32.9722C24.6765 32.9722 25.7963 34.9329 24.6765 36.8365" stroke="#0C0F1E" stroke-width="0.469512" stroke-linecap="round" stroke-linejoin="round"/>
<path d="M20.0353 30.9495C20.0353 30.9495 18.7825 31.9016 18.9504 33.1824C19.1184 34.4633 17.7537 35.4814 17.2283 35.4814" fill="white"/>
<path d="M20.0353 30.9495C20.0353 30.9495 18.7825 31.9016 18.9504 33.1824C19.1184 34.4633 17.7537 35.4814 17.2283 35.4814" stroke="#0C0F1E" stroke-width="0.469512" stroke-linecap="round" stroke-linejoin="round"/>
<path d="M18.684 29.443C18.684 29.443 15.8647 29.2368 16.2222 32.1651C16.5798 35.0934 12.7996 34.1269 12.7996 34.1269" fill="white"/>
<path d="M18.684 29.443C18.684 29.443 15.8647 29.2368 16.2222 32.1651C16.5798 35.0934 12.7996 34.1269 12.7996 34.1269" stroke="#0C0F1E" stroke-width="0.469512" stroke-linecap="round" stroke-linejoin="round"/>
<path d="M17.7605 27.6868C17.7605 27.6868 15.3195 26.9665 14.27 28.9604C13.2205 30.9542 12.3804 30.9552 12.3804 30.9552" fill="white"/>
<path d="M17.7605 27.6868C17.7605 27.6868 15.3195 26.9665 14.27 28.9604C13.2205 30.9542 12.3804 30.9552 12.3804 30.9552" stroke="#0C0F1E" stroke-width="0.469512" stroke-linecap="round" stroke-linejoin="round"/>
<path d="M18.656 20.1618C18.656 20.1618 17.1466 20.8349 16.073 18.2943C14.9994 15.7538 13.4277 15.858 13.4277 15.858" fill="white"/>
<path d="M18.656 20.1618C18.656 20.1618 17.1466 20.8349 16.073 18.2943C14.9994 15.7538 13.4277 15.858 13.4277 15.858" stroke="#0C0F1E" stroke-width="0.469512" stroke-linecap="round" stroke-linejoin="round"/>
<path d="M20.2163 18.4576C20.2163 18.4576 17.9427 18.2307 17.4804 15.1864C17.0182 12.142 13.7219 12.8345 12.8606 11.9736" fill="white"/>
<path d="M20.2163 18.4576C20.2163 18.4576 17.9427 18.2307 17.4804 15.1864C17.0182 12.142 13.7219 12.8345 12.8606 11.9736" stroke="#0C0F1E" stroke-width="0.469512" stroke-linecap="round" stroke-linejoin="round"/>
<path d="M24.9766 16.6067C24.9766 16.6067 23.3827 14.4941 25.9228 12.7089L24.9766 16.6067Z" fill="white"/>
<path d="M24.9766 16.6067C24.9766 16.6067 23.3827 14.4941 25.9228 12.7089" stroke="#0C0F1E" stroke-width="0.469512" stroke-linecap="round" stroke-linejoin="round"/>
<path d="M25.4189 32.9717C29.9417 32.9717 33.6081 29.3053 33.6081 24.7826C33.6081 20.2599 29.9417 16.5934 25.4189 16.5934C20.8962 16.5934 17.2297 20.2599 17.2297 24.7826C17.2297 29.3053 20.8962 32.9717 25.4189 32.9717Z" fill="white" stroke="#0C0F1E" stroke-width="0.571646" stroke-linecap="round" stroke-linejoin="round"/>
<path d="M27.0578 22.9353C27.7072 22.9353 28.2337 22.4087 28.2337 21.7591C28.2337 21.1096 27.7072 20.583 27.0578 20.583C26.4083 20.583 25.8818 21.1096 25.8818 21.7591C25.8818 22.4087 26.4083 22.9353 27.0578 22.9353Z" fill="#75E4A5"/>
<path d="M25.4173 27.5602C25.9074 27.5602 26.3046 27.1629 26.3046 26.6728C26.3046 26.1827 25.9074 25.7854 25.4173 25.7854C24.9273 25.7854 24.53 26.1827 24.53 26.6728C24.53 27.1629 24.9273 27.5602 25.4173 27.5602Z" fill="#75E4A5"/>
<path d="M20.673 27.56C20.8692 27.56 21.0282 27.401 21.0282 27.2048C21.0282 27.0086 20.8692 26.8495 20.673 26.8495C20.4769 26.8495 20.3179 27.0086 20.3179 27.2048C20.3179 27.401 20.4769 27.56 20.673 27.56Z" fill="#0C0F1E"/>
<path d="M28.2524 30.2896C28.3332 30.2896 28.3987 30.2242 28.3987 30.1434C28.3987 30.0626 28.3332 29.9971 28.2524 29.9971C28.1717 29.9971 28.1062 30.0626 28.1062 30.1434C28.1062 30.2242 28.1717 30.2896 28.2524 30.2896Z" fill="#0C0F1E"/>
<path d="M28.3989 19.3468C28.4796 19.3468 28.5451 19.2813 28.5451 19.2006C28.5451 19.1198 28.4796 19.0543 28.3989 19.0543C28.3181 19.0543 28.2527 19.1198 28.2527 19.2006C28.2527 19.2813 28.3181 19.3468 28.3989 19.3468Z" fill="#0C0F1E"/>
<path d="M20.0347 24.5805C20.3867 24.5805 20.672 24.2951 20.672 23.9431C20.672 23.5911 20.3867 23.3057 20.0347 23.3057C19.6828 23.3057 19.3975 23.5911 19.3975 23.9431C19.3975 24.2951 19.6828 24.5805 20.0347 24.5805Z" fill="#75E4A5"/>
<path d="M21.0281 21.139C21.5228 21.139 21.9238 20.7378 21.9238 20.2431C21.9238 19.7483 21.5228 19.3472 21.0281 19.3472C20.5334 19.3472 20.1323 19.7483 20.1323 20.2431C20.1323 20.7378 20.5334 21.139 21.0281 21.139Z" fill="#75E4A5"/>
<path d="M24.6758 19.2003C25.0856 19.2003 25.4178 18.8681 25.4178 18.4582C25.4178 18.0484 25.0856 17.7161 24.6758 17.7161C24.266 17.7161 23.9338 18.0484 23.9338 18.4582C23.9338 18.8681 24.266 19.2003 24.6758 19.2003Z" fill="#75E4A5"/>
<path d="M28.5258 25.2662C28.6766 25.2662 28.7989 25.1439 28.7989 24.9931C28.7989 24.8422 28.6766 24.7199 28.5258 24.7199C28.375 24.7199 28.2527 24.8422 28.2527 24.9931C28.2527 25.1439 28.375 25.2662 28.5258 25.2662Z" fill="#0C0F1E"/>
<path d="M31.6774 27.1227C31.8283 27.1227 31.9506 27.0004 31.9506 26.8496C31.9506 26.6987 31.8283 26.5764 31.6774 26.5764C31.5266 26.5764 31.4043 26.6987 31.4043 26.8496C31.4043 27.0004 31.5266 27.1227 31.6774 27.1227Z" fill="#0C0F1E"/>
<path d="M31.6765 24.7201C32.1056 24.7201 32.4534 24.3722 32.4534 23.9431C32.4534 23.514 32.1056 23.1661 31.6765 23.1661C31.2475 23.1661 30.8997 23.514 30.8997 23.9431C30.8997 24.3722 31.2475 24.7201 31.6765 24.7201Z" fill="#75E4A5"/>
<path d="M29.492 28.7516C29.8051 28.7516 30.059 28.4977 30.059 28.1846C30.059 27.8714 29.8051 27.6175 29.492 27.6175C29.1789 27.6175 28.925 27.8714 28.925 28.1846C28.925 28.4977 29.1789 28.7516 29.492 28.7516Z" fill="#75E4A5"/>
<path d="M25.4179 31.349C26.1215 31.349 26.6919 30.7785 26.6919 30.0747C26.6919 29.371 26.1215 28.8005 25.4179 28.8005C24.7142 28.8005 24.1438 29.371 24.1438 30.0747C24.1438 30.7785 24.7142 31.349 25.4179 31.349Z" fill="#75E4A5"/>
<path d="M22.2105 29.8233C22.5434 29.8233 22.8133 29.5533 22.8133 29.2204C22.8133 28.8874 22.5434 28.6174 22.2105 28.6174C21.8776 28.6174 21.6077 28.8874 21.6077 29.2204C21.6077 29.5533 21.8776 29.8233 22.2105 29.8233Z" fill="#75E4A5"/>
<path d="M23.486 22.811C23.7335 22.811 23.9341 22.6103 23.9341 22.3628C23.9341 22.1153 23.7335 21.9146 23.486 21.9146C23.2385 21.9146 23.0378 22.1153 23.0378 22.3628C23.0378 22.6103 23.2385 22.811 23.486 22.811Z" fill="#0C0F1E"/>
<path d="M30.6024 21.3937C30.9569 21.3937 31.2443 21.1062 31.2443 20.7516C31.2443 20.397 30.9569 20.1095 30.6024 20.1095C30.2479 20.1095 29.9604 20.397 29.9604 20.7516C29.9604 21.1062 30.2479 21.3937 30.6024 21.3937Z" fill="#75E4A5"/>
</svg>
