<svg width="51" height="50" viewBox="0 0 51 50" fill="none" xmlns="http://www.w3.org/2000/svg">
<path d="M41.2042 36.6467C37.6575 33.0995 34.4491 34.2646 34.4491 34.2646H34.4547C33.0827 35.705 31.4106 36.8261 29.557 37.5483C27.7034 38.2706 25.7137 38.5763 23.7288 38.444C21.7439 38.3116 19.8124 37.7443 18.0711 36.7823C16.3299 35.8204 14.8215 34.4872 13.6528 32.8774C12.2874 32.0405 11.1596 30.8673 10.3772 29.4701C9.59472 28.0728 9.18384 26.4981 9.18384 24.8967C9.18384 23.2953 9.59472 21.7206 10.3772 20.3233C11.1596 18.9261 12.2874 17.7529 13.6528 16.916C15.3368 14.5968 17.7121 12.8704 20.438 11.9847C23.1639 11.0989 26.1002 11.0992 28.8259 11.9855C31.5516 12.8718 33.9265 14.5986 35.6101 16.9182C37.2936 19.2378 38.1993 22.031 38.1972 24.8972C38.1976 25.8146 38.1071 26.7297 37.9269 27.6292L37.9212 27.6415C37.9212 27.6415 37.9311 30.2057 41.8005 31.5212" fill="white"/>
<path d="M41.2042 36.6467C37.6575 33.0995 34.4491 34.2646 34.4491 34.2646H34.4547C33.0827 35.705 31.4106 36.8261 29.557 37.5483C27.7034 38.2706 25.7137 38.5763 23.7288 38.444C21.7439 38.3116 19.8124 37.7443 18.0711 36.7823C16.3299 35.8204 14.8215 34.4872 13.6528 32.8774C12.2874 32.0405 11.1596 30.8673 10.3772 29.4701C9.59472 28.0728 9.18384 26.4981 9.18384 24.8967C9.18384 23.2953 9.59472 21.7206 10.3772 20.3233C11.1596 18.9261 12.2874 17.7529 13.6528 16.916C15.3368 14.5968 17.7121 12.8704 20.438 11.9847C23.1639 11.0989 26.1002 11.0992 28.8259 11.9855C31.5516 12.8718 33.9265 14.5986 35.6101 16.9182C37.2936 19.2378 38.1993 22.031 38.1972 24.8972C38.1976 25.8146 38.1071 26.7297 37.9269 27.6292L37.9212 27.6415C37.9212 27.6415 37.9311 30.2057 41.8005 31.5212" stroke="#0C0F1E" stroke-width="0.571646" stroke-linecap="round" stroke-linejoin="round"/>
<path d="M28.023 14.1108C26.3608 13.5883 24.6005 13.4567 22.8791 13.7262C21.1578 13.9957 19.5219 14.6591 18.099 15.6646C16.9866 16.4259 16.1522 17.5284 15.7216 18.8057C15.6194 19.1045 15.5625 19.4169 15.5527 19.7325V31.983C16.3906 31.8134 17.1792 31.4564 17.8596 30.939C18.5401 30.4215 19.0947 29.7569 19.482 28.9948C20.3333 27.2419 20.617 25.2672 20.2938 23.3455C19.9706 21.4238 19.0565 19.6506 17.6787 18.2726" fill="white"/>
<path d="M28.023 14.1108C26.3608 13.5883 24.6005 13.4567 22.8791 13.7262C21.1578 13.9957 19.5219 14.6591 18.099 15.6646C16.9866 16.4259 16.1522 17.5284 15.7216 18.8057C15.6194 19.1045 15.5625 19.4169 15.5527 19.7325V31.983C16.3906 31.8134 17.1792 31.4564 17.8596 30.939C18.5401 30.4215 19.0947 29.7569 19.482 28.9948C20.3333 27.2419 20.617 25.2672 20.2938 23.3455C19.9706 21.4238 19.0565 19.6506 17.6787 18.2726" stroke="#0C0F1E" stroke-width="0.571646" stroke-linecap="round" stroke-linejoin="round"/>
<path d="M32.6229 32.8915C31.227 34.2885 29.4895 35.2954 27.5833 35.8118C25.6772 36.3283 23.669 36.3362 21.7588 35.8349" fill="white"/>
<path d="M32.6229 32.8915C31.227 34.2885 29.4895 35.2954 27.5833 35.8118C25.6772 36.3283 23.669 36.3362 21.7588 35.8349" stroke="#0C0F1E" stroke-width="0.571646" stroke-linecap="round" stroke-linejoin="round"/>
<path d="M37.8259 32.1482L42.2877 34.5477" stroke="#0C0F1E" stroke-width="0.571646" stroke-linecap="round" stroke-linejoin="round"/>
<path d="M20.7495 31.2194C21.3179 31.9709 22.0519 32.5811 22.8946 33.0026C23.7373 33.4241 24.6658 33.6455 25.608 33.6496" fill="white"/>
<path d="M20.7495 31.2194C21.3179 31.9709 22.0519 32.5811 22.8946 33.0026C23.7373 33.4241 24.6658 33.6455 25.608 33.6496" stroke="#0C0F1E" stroke-width="0.571646" stroke-linecap="round" stroke-linejoin="round"/>
<path d="M18.4509 33.65C18.4509 33.65 20.5476 35.4788 22.4552 32.7581L18.4509 33.65Z" fill="white"/>
<path d="M18.4509 33.65C18.4509 33.65 20.5476 35.4788 22.4552 32.7581" stroke="#0C0F1E" stroke-width="0.571646" stroke-linecap="round" stroke-linejoin="round"/>
<path d="M13.0775 29.5807C12.4624 28.9657 11.9745 28.2356 11.6417 27.432C11.3088 26.6285 11.1375 25.7672 11.1375 24.8974C11.1375 24.0277 11.3088 23.1664 11.6417 22.3628C11.9745 21.5593 12.4624 20.8292 13.0775 20.2142" fill="#75E4A5"/>
<path d="M38.0214 27.1066C38.0214 27.1066 37.5856 22.7585 32.2356 23.609L38.0214 27.1066Z" fill="white"/>
<path d="M38.0214 27.1066C38.0214 27.1066 37.5856 22.7585 32.2356 23.609" stroke="#0C0F1E" stroke-width="0.571646" stroke-linecap="round" stroke-linejoin="round"/>
<path d="M36.3909 24.3236C35.2811 23.4351 34.3671 22.3265 33.7065 21.0676C33.0458 19.8087 32.6529 18.4267 32.5522 17.0085" fill="white"/>
<path d="M36.3909 24.3236C35.2811 23.4351 34.3671 22.3265 33.7065 21.0676C33.0458 19.8087 32.6529 18.4267 32.5522 17.0085" stroke="#0C0F1E" stroke-width="0.571646" stroke-linecap="round" stroke-linejoin="round"/>
<path d="M33.5803 20.8242C32.4148 20.132 31.121 19.6831 29.7772 19.5048C28.4333 19.3264 27.0673 19.4222 25.7615 19.7864" fill="white"/>
<path d="M33.5803 20.8242C32.4148 20.132 31.121 19.6831 29.7772 19.5048C28.4333 19.3264 27.0673 19.4222 25.7615 19.7864" stroke="#0C0F1E" stroke-width="0.571646" stroke-linecap="round" stroke-linejoin="round"/>
<path d="M28.9104 19.4005C28.7381 19.4026 28.567 19.3702 28.4074 19.3052C28.2478 19.2402 28.1027 19.1439 27.9808 19.022C27.859 18.9002 27.7627 18.7551 27.6977 18.5955C27.6327 18.4358 27.6003 18.2648 27.6024 18.0925" fill="white"/>
<path d="M28.9104 19.4005C28.7381 19.4026 28.567 19.3702 28.4074 19.3052C28.2478 19.2402 28.1027 19.1439 27.9808 19.022C27.859 18.9002 27.7627 18.7551 27.6977 18.5955C27.6327 18.4358 27.6003 18.2648 27.6024 18.0925" stroke="#0C0F1E" stroke-width="0.571646" stroke-linecap="round" stroke-linejoin="round"/>
<path d="M36.8403 27.0303C36.8306 27.9361 37.084 28.8252 37.5696 29.5899C38.0552 30.3546 38.7522 30.9619 39.5762 31.3383C39.5762 31.3383 37.1705 31.1671 36.6932 30.0284C36.2158 28.8897 36.8403 27.0303 36.8403 27.0303Z" fill="#75E4A5"/>
</svg>
