<svg width="51" height="50" viewBox="0 0 51 50" fill="none" xmlns="http://www.w3.org/2000/svg">
<path d="M37.8037 29.2136C37.9567 29.2136 38.0806 29.0897 38.0806 28.9367C38.0806 28.7838 37.9567 28.6599 37.8037 28.6599C37.6508 28.6599 37.5269 28.7838 37.5269 28.9367C37.5269 29.0897 37.6508 29.2136 37.8037 29.2136Z" fill="#75E4A5"/>
<path d="M24.4395 36.3939C24.5924 36.3939 24.7164 36.2699 24.7164 36.117C24.7164 35.9641 24.5924 35.8401 24.4395 35.8401C24.2866 35.8401 24.1626 35.9641 24.1626 36.117C24.1626 36.2699 24.2866 36.3939 24.4395 36.3939Z" fill="#0C0F1E"/>
<path d="M22.5856 14.3763C22.7385 14.3763 22.8625 14.2523 22.8625 14.0994C22.8625 13.9465 22.7385 13.8225 22.5856 13.8225C22.4327 13.8225 22.3087 13.9465 22.3087 14.0994C22.3087 14.2523 22.4327 14.3763 22.5856 14.3763Z" fill="#0C0F1E"/>
<path d="M26.3056 23.8206C26.4585 23.8206 26.5825 23.6967 26.5825 23.5437C26.5825 23.3908 26.4585 23.2668 26.3056 23.2668C26.1527 23.2668 26.0287 23.3908 26.0287 23.5437C26.0287 23.6967 26.1527 23.8206 26.3056 23.8206Z" fill="#75E4A5"/>
<path d="M13.3612 27.8782C13.5142 27.8782 13.6381 27.7542 13.6381 27.6013C13.6381 27.4484 13.5142 27.3244 13.3612 27.3244C13.2083 27.3244 13.0844 27.4484 13.0844 27.6013C13.0844 27.7542 13.2083 27.8782 13.3612 27.8782Z" fill="#75E4A5"/>
<path d="M33.6578 15.1542C33.6578 15.1542 29.6092 18.8189 30.2017 20.7042C30.7941 22.5896 31.5602 22.2816 31.7446 23.267C31.9915 23.1175 32.1875 22.8971 32.3071 22.6344C32.4267 22.3718 32.4643 22.0791 32.4149 21.7948C32.2087 20.8368 30.421 20.1 33.6578 15.1542Z" fill="#75E4A5"/>
<path d="M33.1515 20.482C32.945 19.9508 32.8809 19.3749 32.9655 18.8112C33.0501 18.2476 33.2806 17.7159 33.6341 17.2688L39.5775 9.31456L35.9147 6.60559L29.9874 14.5386C29.6577 15.0037 29.2123 15.3746 28.6952 15.6145C28.1781 15.8545 27.6073 15.9551 27.0393 15.9065C26.5824 15.8501 26.1187 15.8903 25.6784 16.0245C25.238 16.1586 24.8307 16.3838 24.4828 16.6854C24.135 16.9869 23.8544 17.3582 23.6591 17.7751C23.4639 18.192 23.3583 18.6452 23.3494 19.1055C23.3404 19.5658 23.4282 20.0228 23.6071 20.447C23.786 20.8712 24.0519 21.253 24.3878 21.5679C24.7236 21.8828 25.1218 22.1236 25.5566 22.2748C25.9914 22.426 26.4532 22.4843 26.9119 22.4457C27.0052 22.8956 27.1917 23.321 27.4595 23.6945C27.7273 24.0679 28.0705 24.381 28.4668 24.6136C28.8631 24.8462 29.3037 24.9931 29.7603 25.0449C30.2169 25.0967 30.6793 25.0522 31.1176 24.9142C31.5559 24.7763 31.9604 24.548 32.3051 24.244C32.6497 23.9401 32.9268 23.5673 33.1185 23.1496C33.3101 22.732 33.4121 22.2788 33.4178 21.8193C33.4235 21.3598 33.3328 20.9043 33.1515 20.482V20.482Z" stroke="#0C0F1E" stroke-width="0.571646" stroke-linecap="round" stroke-linejoin="round"/>
<path d="M16.9531 34.1222C16.9531 34.1222 21.0008 30.4576 20.4083 28.5722C19.8159 26.6868 19.0498 26.9948 18.8654 26.0095C18.6186 26.159 18.4227 26.3795 18.3031 26.6421C18.1836 26.9048 18.1459 27.1973 18.1951 27.4816C18.4012 28.4396 20.1885 29.1769 16.9531 34.1222Z" fill="#75E4A5"/>
<path d="M17.4596 28.7967C17.6658 29.3281 17.7296 29.904 17.6448 30.4676C17.56 31.0312 17.3295 31.5628 16.9761 32.0099L11.0327 39.9642L14.6945 42.6732L20.6228 34.7401C20.9526 34.2752 21.398 33.9044 21.9151 33.6645C22.4322 33.4246 23.003 33.3238 23.5709 33.3722C24.0277 33.4283 24.4911 33.3878 24.9312 33.2535C25.3713 33.1191 25.7783 32.8939 26.1259 32.5924C26.4735 32.2908 26.7539 31.9196 26.949 31.5029C27.1441 31.0861 27.2496 30.6331 27.2585 30.173C27.2675 29.7129 27.1798 29.2561 27.001 28.832C26.8223 28.408 26.5566 28.0262 26.221 27.7113C25.8854 27.3965 25.4875 27.1556 25.0529 27.0042C24.6183 26.8528 24.1569 26.7944 23.6983 26.8326C23.6054 26.3822 23.4191 25.9564 23.1514 25.5825C22.8837 25.2086 22.5405 24.8951 22.144 24.6621C21.7476 24.4292 21.3067 24.282 20.8498 24.2301C20.3929 24.1782 19.9302 24.2227 19.4916 24.3608C19.0529 24.4989 18.6482 24.7275 18.3034 25.0318C17.9587 25.3361 17.6816 25.7093 17.4901 26.1274C17.2986 26.5454 17.1969 26.999 17.1917 27.4588C17.1864 27.9186 17.2777 28.3744 17.4596 28.7967V28.7967Z" stroke="#0C0F1E" stroke-width="0.571646" stroke-linecap="round" stroke-linejoin="round"/>
<path d="M13.3618 17.79H17.1312C17.2721 17.7899 17.4118 17.8176 17.542 17.8715C17.6723 17.9254 17.7907 18.0044 17.8904 18.1041C17.9902 18.2037 18.0693 18.3221 18.1233 18.4523C18.1773 18.5825 18.2052 18.7221 18.2052 18.8631V20.3291C18.2052 20.4701 18.2329 20.6097 18.2868 20.74C18.3407 20.8703 18.4197 20.9887 18.5193 21.0884C18.619 21.1881 18.7373 21.2673 18.8675 21.3213C18.9977 21.3753 19.1373 21.4031 19.2783 21.4032H21.5896C21.7307 21.4032 21.8703 21.4311 22.0005 21.4851C22.1307 21.5392 22.249 21.6184 22.3486 21.7182C22.4483 21.818 22.5272 21.9364 22.5811 22.0667C22.6349 22.1971 22.6625 22.3367 22.6623 22.4777V22.7914C22.6623 22.9323 22.69 23.0719 22.744 23.2021C22.7979 23.3323 22.8769 23.4506 22.9766 23.5502C23.0762 23.6498 23.1945 23.7289 23.3247 23.7828C23.4549 23.8368 23.5945 23.8645 23.7354 23.8645H24.6642C24.9488 23.8645 25.2217 23.9776 25.423 24.1788C25.6242 24.3801 25.7373 24.653 25.7373 24.9376C25.7372 25.0786 25.7649 25.2182 25.8188 25.3485C25.8727 25.4788 25.9518 25.5972 26.0514 25.6969C26.151 25.7966 26.2694 25.8758 26.3996 25.9298C26.5298 25.9838 26.6694 26.0116 26.8104 26.0117H28.5085C28.7931 26.0117 29.0661 26.1247 29.2673 26.326C29.4686 26.5272 29.5816 26.8002 29.5816 27.0848V28.9942C29.5817 29.1352 29.6095 29.2748 29.6635 29.405C29.7175 29.5353 29.7967 29.6536 29.8964 29.7532C29.9961 29.8529 30.1145 29.9319 30.2448 29.9858C30.3751 30.0397 30.5147 30.0674 30.6557 30.0673H33.8887C34.0297 30.0674 34.1693 30.0952 34.2995 30.1492C34.4297 30.2032 34.5481 30.2824 34.6477 30.3821C34.7474 30.4818 34.8264 30.6002 34.8803 30.7305C34.9342 30.8608 34.9619 31.0004 34.9618 31.1414V33.4395" stroke="#0C0F1E" stroke-width="0.571646" stroke-linecap="round" stroke-linejoin="round"/>
<path d="M12.9843 23.1208L16.6451 22.5226" stroke="#75E4A5" stroke-width="0.571646" stroke-linecap="round" stroke-linejoin="round"/>
<path d="M29.3091 31.6074L29.9072 35.2683" stroke="#75E4A5" stroke-width="0.571646" stroke-linecap="round" stroke-linejoin="round"/>
<path d="M20.0155 15.1542L20.9202 18.7519" stroke="#75E4A5" stroke-width="0.571646" stroke-linecap="round" stroke-linejoin="round"/>
<path d="M35.8861 26.4197L32.2885 27.3244" stroke="#75E4A5" stroke-width="0.571646" stroke-linecap="round" stroke-linejoin="round"/>
</svg>
