<svg width="51" height="50" viewBox="0 0 51 50" fill="none" xmlns="http://www.w3.org/2000/svg">
<path d="M23.446 35.9105C23.4458 36.2033 23.356 36.4891 23.1888 36.7295C23.0215 36.9698 22.7847 37.1533 22.5102 37.2553C22.2357 37.3573 21.9366 37.3729 21.6529 37.3001C21.3693 37.2272 21.1147 37.0694 20.9233 36.8477C21.0087 36.8629 21.0952 36.8706 21.1818 36.8709C21.5624 36.8706 21.9272 36.7193 22.1962 36.4501C22.4652 36.1809 22.6163 35.816 22.6163 35.4355C22.6163 35.418 22.6163 35.4015 22.6163 35.3841C22.5353 34.6165 22.3313 33.867 22.012 33.1642C22.568 33.8438 23.021 34.6014 23.3564 35.4128C23.403 35.539 23.4318 35.6711 23.4417 35.8053C23.4449 35.8403 23.4464 35.8754 23.446 35.9105Z" fill="#75E4A5"/>
<path d="M29.8547 39.304C29.8545 39.5968 29.7647 39.8826 29.5974 40.123C29.4302 40.3633 29.1934 40.5468 28.9189 40.6488C28.6444 40.7508 28.3453 40.7664 28.0616 40.6936C27.778 40.6207 27.5234 40.4629 27.332 40.2412C27.4174 40.2564 27.5039 40.2641 27.5905 40.2643C27.9711 40.2641 28.3359 40.1128 28.6049 39.8436C28.8739 39.5744 29.025 39.2095 29.025 38.829C29.025 38.8115 29.025 38.795 29.025 38.7776C28.944 38.01 28.74 37.2605 28.4207 36.5577C28.9767 37.2373 29.4297 37.9949 29.7651 38.8063C29.8117 38.9325 29.8405 39.0646 29.8504 39.1988C29.8536 39.2337 29.855 39.2689 29.8547 39.304Z" fill="#75E4A5"/>
<path d="M23.4462 35.9087C23.4463 36.0972 23.4093 36.2839 23.3373 36.4581C23.2653 36.6323 23.1596 36.7906 23.0264 36.9239C22.8932 37.0573 22.7351 37.1631 22.561 37.2354C22.3869 37.3076 22.2002 37.3449 22.0117 37.345C21.9254 37.3448 21.8392 37.3371 21.7542 37.3219C21.423 37.2615 21.1236 37.0867 20.9081 36.8281C20.6926 36.5695 20.5747 36.2434 20.575 35.9068C20.575 35.8747 20.5778 35.8389 20.5806 35.803C20.5912 35.6689 20.6199 35.5369 20.666 35.4106C21.0016 34.5991 21.4549 33.8414 22.0113 33.162C22.0113 33.162 22.2853 33.4978 22.5933 33.9582C22.9095 34.4069 23.1658 34.895 23.3556 35.4101C23.4026 35.5362 23.4313 35.6683 23.441 35.8026L23.4448 35.8559C23.4462 35.8747 23.4462 35.8922 23.4462 35.9087Z" stroke="#0C0F1E" stroke-width="0.639482" stroke-linecap="round" stroke-linejoin="round"/>
<path d="M29.8549 39.302C29.855 39.4905 29.818 39.6772 29.746 39.8514C29.674 40.0256 29.5683 40.1839 29.4351 40.3172C29.3019 40.4506 29.1437 40.5564 28.9696 40.6287C28.7955 40.7009 28.6089 40.7382 28.4204 40.7383C28.3341 40.7381 28.2479 40.7304 28.1629 40.7152C27.8317 40.6548 27.5323 40.48 27.3168 40.2214C27.1013 39.9628 26.9834 39.6367 26.9836 39.3001C26.9836 39.268 26.9865 39.2322 26.9893 39.1963C26.9999 39.0623 27.0286 38.9302 27.0747 38.8039C27.4103 37.9924 27.8636 37.2347 28.42 36.5553C28.42 36.5553 28.694 36.8911 29.002 37.3515C29.3182 37.8003 29.5745 38.2883 29.7643 38.8034C29.8113 38.9295 29.84 39.0617 29.8497 39.1959L29.8534 39.2492C29.8549 39.268 29.8549 39.2855 29.8549 39.302Z" stroke="#0C0F1E" stroke-width="0.639482" stroke-linecap="round" stroke-linejoin="round"/>
<path d="M29.0957 31.7186C29.0957 31.7186 31.9499 33.5662 33.9226 30.8375C35.8952 28.1087 34.0061 25.8007 32.4532 24.2478C30.9004 22.695 29.7259 20.3865 28.5079 14.1332C27.29 7.87991 25.1504 8.50915 25.1504 8.50915C25.1504 8.50915 23.0094 7.87943 21.7919 14.1332C20.5745 20.387 19.3999 22.6945 17.8466 24.2478C16.2933 25.8011 14.4032 28.1091 16.3782 30.8375C18.3532 33.5658 21.2042 31.7186 21.2042 31.7186" fill="white"/>
<path d="M29.0957 31.7186C29.0957 31.7186 31.9499 33.5662 33.9226 30.8374C35.8952 28.1087 34.0061 25.8007 32.4532 24.2478C30.9004 22.695 29.7259 20.3865 28.5079 14.1332C27.29 7.87991 25.1504 8.50915 25.1504 8.50915C25.1504 8.50915 23.0094 7.87943 21.7919 14.1332C20.5745 20.387 19.3999 22.6945 17.8466 24.2478C16.2933 25.8011 14.4032 28.1091 16.3782 30.8374C18.3532 33.5658 21.2042 31.7186 21.2042 31.7186" stroke="#0C0F1E" stroke-width="0.639482" stroke-linecap="round" stroke-linejoin="round"/>
<path d="M31.4039 30.5676C31.6211 30.5056 31.8056 30.3613 31.9181 30.1654C32.0306 29.9695 32.0622 29.7374 32.0063 29.5186C31.8105 28.7077 30.8237 28.6865 30.2572 29.253C29.6907 29.8195 28.2147 31.7431 25.1506 31.7431C22.0864 31.7431 20.6105 29.8195 20.044 29.253C19.4775 28.6865 18.4907 28.7077 18.2949 29.5186C18.2389 29.7373 18.2704 29.9693 18.3827 30.1652C18.495 30.361 18.6793 30.5054 18.8964 30.5676" fill="white"/>
<path d="M31.4039 30.5676C31.6211 30.5056 31.8056 30.3613 31.9181 30.1654C32.0306 29.9695 32.0622 29.7374 32.0063 29.5186C31.8105 28.7077 30.8237 28.6865 30.2572 29.253C29.6907 29.8195 28.2147 31.7431 25.1506 31.7431C22.0864 31.7431 20.6105 29.8195 20.044 29.253C19.4775 28.6865 18.4907 28.7077 18.2949 29.5186C18.2389 29.7373 18.2704 29.9693 18.3827 30.1652C18.495 30.361 18.6793 30.5054 18.8964 30.5676" stroke="#0C0F1E" stroke-width="0.639482" stroke-linecap="round" stroke-linejoin="round"/>
<path d="M22.4524 29.9058C22.8065 30.2601 23.2269 30.5411 23.6896 30.7328C24.1523 30.9245 24.6483 31.0232 25.1491 31.0232C25.65 31.0232 26.1459 30.9245 26.6086 30.7328C27.0713 30.5411 27.4917 30.2601 27.8458 29.9058" fill="#75E4A5"/>
</svg>
