<svg width="51" height="50" viewBox="0 0 51 50" fill="none" xmlns="http://www.w3.org/2000/svg">
<path d="M31.0972 12.7708L22.4369 21.4312C22.3335 21.5346 22.3335 21.7021 22.4369 21.8055L25.2906 24.6592C25.394 24.7626 25.5615 24.7626 25.6649 24.6592L34.3252 15.9989C34.4286 15.8955 34.4286 15.728 34.3252 15.6246L31.4715 12.7708C31.3681 12.6675 31.2006 12.6675 31.0972 12.7708Z" fill="#75E4A5" stroke="#0C0F1E" stroke-width="0.571646" stroke-miterlimit="10"/>
<path d="M33.1848 11.2328L31.7468 12.6708C31.6435 12.7742 31.6435 12.9418 31.7468 13.0451L34.0528 15.3511C34.1561 15.4544 34.3237 15.4544 34.4271 15.3511L35.8651 13.913C35.9684 13.8097 35.9684 13.6421 35.8651 13.5388L33.5591 11.2328C33.4558 11.1295 33.2882 11.1295 33.1848 11.2328Z" stroke="#0C0F1E" stroke-width="0.571646" stroke-miterlimit="10"/>
<path d="M35.6477 9.97602L34.113 11.5108C34.0364 11.5874 34.0364 11.7117 34.113 11.7883L35.3075 12.9828C35.3841 13.0594 35.5084 13.0594 35.585 12.9828L37.1197 11.4481C37.1964 11.3714 37.1964 11.2472 37.1197 11.1705L35.9253 9.97602C35.8486 9.89938 35.7244 9.89938 35.6477 9.97602Z" stroke="#0C0F1E" stroke-width="0.571646" stroke-miterlimit="10"/>
<path d="M22.4276 22.1708L21.3398 23.2585C21.2365 23.3619 21.2365 23.5295 21.3398 23.6328L23.463 25.756C23.5664 25.8593 23.7339 25.8593 23.8373 25.756L24.9251 24.6682C25.0284 24.5649 25.0284 24.3973 24.9251 24.2939L22.8019 22.1708C22.6985 22.0674 22.531 22.0674 22.4276 22.1708Z" stroke="#0C0F1E" stroke-width="0.571646" stroke-miterlimit="10"/>
<path d="M18.1489 26.4504L20.646 28.9476L17.681 31.9126C17.4657 32.1276 17.1739 32.2484 16.8697 32.2484C16.5654 32.2484 16.2736 32.1276 16.0583 31.9126V31.9126L15.1838 31.0381C15.0772 30.9315 14.9926 30.805 14.9348 30.6657C14.8771 30.5264 14.8474 30.3771 14.8474 30.2263C14.8474 30.0755 14.8771 29.9262 14.9348 29.787C14.9926 29.6477 15.0772 29.5211 15.1838 29.4145V29.4145L18.1489 26.4504Z" stroke="#0C0F1E" stroke-width="0.571646" stroke-miterlimit="10"/>
<path d="M16.5604 24.8618L22.2349 30.5363" stroke="#0C0F1E" stroke-width="0.571646" stroke-miterlimit="10"/>
<path d="M13.1344 30.7344L16.3627 33.9632" stroke="#0C0F1E" stroke-width="0.571646" stroke-miterlimit="10"/>
<path d="M32.8079 20.3249C33.4501 20.3249 33.9706 19.8042 33.9706 19.1619C33.9706 18.5197 33.4501 17.999 32.8079 17.999C32.1657 17.999 31.6451 18.5197 31.6451 19.1619C31.6451 19.8042 32.1657 20.3249 32.8079 20.3249Z" stroke="#0C0F1E" stroke-width="0.571646" stroke-miterlimit="10"/>
<path d="M33.5264 20.0863C34.9038 22.0719 35.4505 24.5172 35.0499 26.9002C34.6493 29.2833 33.3332 31.4155 31.3823 32.8416C29.4315 34.2677 27.0005 34.8748 24.6082 34.5334C22.216 34.192 20.0519 32.929 18.5779 31.0141" stroke="#0C0F1E" stroke-width="0.571646" stroke-miterlimit="10"/>
<path d="M25.8981 34.6331V37.4326H29.7472V33.8084C28.5399 34.3617 27.226 34.6432 25.8981 34.6331V34.6331Z" stroke="#0C0F1E" stroke-width="0.571646" stroke-miterlimit="10"/>
<path d="M24.6369 37.4321H31.0134C31.1688 37.4321 31.3228 37.4628 31.4664 37.5224C31.61 37.5819 31.7405 37.6692 31.8504 37.7792C31.9603 37.8892 32.0475 38.0197 32.1069 38.1634C32.1664 38.3071 32.1969 38.461 32.1969 38.6165V40.1892H23.4525V38.6165C23.4525 38.3024 23.5773 38.0011 23.7994 37.779C24.0216 37.5569 24.3228 37.4321 24.6369 37.4321Z" fill="#75E4A5" stroke="#0C0F1E" stroke-width="0.571646" stroke-miterlimit="10"/>
</svg>
