<svg width="51" height="50" viewBox="0 0 51 50" fill="none" xmlns="http://www.w3.org/2000/svg">
<path d="M15.4097 32.0424C15.4097 32.0424 19.1291 31.9335 19.731 34.4481C18.7323 34.7067 17.6959 34.7878 16.6692 34.6877C15.3654 34.4646 15.4097 33.6269 15.4097 33.3943V32.0424Z" fill="#75E4A5"/>
<path d="M15.1523 22.2863C15.1523 22.2863 22.0571 25.7598 21.2179 33.1023C21.1484 33.701 21.0349 34.2938 20.8783 34.8759" stroke="#0C0F1E" stroke-width="0.381098" stroke-miterlimit="10" stroke-dasharray="1.52 1.52"/>
<path d="M21.2184 33.1027C21.2184 33.1027 27.2622 37.4895 35.0056 29.7457" stroke="#0C0F1E" stroke-width="0.381098" stroke-miterlimit="10" stroke-dasharray="1.52 1.52"/>
<path d="M16.5391 14.9307C16.5391 14.9307 21.5777 18.7425 19.0579 25.6024" stroke="#0C0F1E" stroke-width="0.381098" stroke-miterlimit="10" stroke-dasharray="1.52 1.52"/>
<path d="M19.2905 18.9793C19.2905 18.9793 26.6905 24.7699 38.208 18.9793" stroke="#0C0F1E" stroke-width="0.381098" stroke-miterlimit="10" stroke-dasharray="1.52 1.52"/>
<path d="M14.6315 30.3475C14.6315 30.3475 18.6947 28.5333 21.2183 31.7951" stroke="#0C0F1E" stroke-width="0.381098" stroke-miterlimit="10" stroke-dasharray="1.52 1.52"/>
<path d="M23.1879 39.6901H33.0096C32.6756 37.6527 32.6756 35.5746 33.0096 33.5372C33.0096 33.5372 32.194 38.6151 23.1879 39.6901Z" fill="#75E4A5"/>
<path d="M37.1406 15.9127C36.9537 15.3423 36.7215 14.7877 36.4463 14.2542C34.0764 16.2353 31.0889 17.3263 28 17.3386C26.1198 17.3388 24.2626 16.9247 22.5606 16.1258C20.8586 15.3268 19.3535 14.1626 18.1524 12.716C17.7422 13.1607 17.3679 13.6372 17.0331 14.141C15.6804 16.083 14.956 18.3932 14.9576 20.7599C14.9576 20.7599 15.892 23.7684 12.6095 27.0514C12.3038 28.1453 14.2024 28.2419 14.2024 28.2419C14.2024 28.2419 13.9038 30.2702 14.8713 30.8731C14.9945 30.9403 15.0982 31.038 15.1726 31.157C15.247 31.276 15.2894 31.4122 15.2958 31.5523V33.7292C15.2958 33.7292 15.1269 35.6603 19.617 34.6231C23.0043 35.0655 22.2005 40.5665 22.2005 40.5665H33.9156C33.9156 40.5665 33.7868 35.1891 34.1727 32.3835C34.5585 29.5778 37.5114 24.7292 37.5114 24.7292C38.5545 21.856 38.4209 18.687 37.1397 15.9118L37.1406 15.9127Z" stroke="#0C0F1E" stroke-width="0.571646" stroke-miterlimit="10"/>
<path d="M28.1119 17.1669C31.1353 17.169 34.0598 16.0902 36.3577 14.1254C36.0061 13.6076 35.6138 13.1186 35.1846 12.6631C34.088 13.6086 32.8132 14.3248 31.4353 14.7696C30.0574 15.2143 28.6044 15.3785 27.162 15.2525C25.7196 15.1265 24.3171 14.7128 23.0372 14.0359C21.7573 13.359 20.626 12.4325 19.71 11.3112C19.2094 11.6872 18.7398 12.1029 18.3058 12.5541C19.499 13.9986 20.9969 15.1612 22.6923 15.9587C24.3876 16.7562 26.2384 17.1688 28.1119 17.1669Z" fill="#75E4A5" stroke="#0C0F1E" stroke-width="0.571646" stroke-miterlimit="10"/>
<path d="M33.5463 11.2103C31.8023 12.6134 29.5831 13.2874 27.3534 13.0912C25.1237 12.895 23.0563 11.8439 21.584 10.158C20.9245 10.482 20.2972 10.8679 19.7104 11.3103C20.6264 12.4316 21.7578 13.3581 23.0376 14.035C24.3175 14.7119 25.7201 15.1256 27.1624 15.2516C28.6048 15.3776 30.0578 15.2134 31.4357 14.7687C32.8136 14.3239 34.0884 13.6077 35.185 12.6622C34.6856 12.1278 34.1369 11.6417 33.5463 11.2103Z" fill="#75E4A5" stroke="#0C0F1E" stroke-width="0.571646" stroke-miterlimit="10"/>
<path d="M28.1117 13.1249C30.0887 13.1264 32.0066 12.4507 33.5461 11.2103C31.8405 9.95458 29.8224 9.19219 27.7126 9.00658C25.6027 8.82097 23.4825 9.2193 21.5839 10.158C22.397 11.0899 23.4003 11.837 24.5263 12.3487C25.6523 12.8605 26.8749 13.1252 28.1117 13.1249Z" fill="#75E4A5" stroke="#0C0F1E" stroke-width="0.571646" stroke-miterlimit="10"/>
</svg>
