<svg width="51" height="50" viewBox="0 0 51 50" fill="none" xmlns="http://www.w3.org/2000/svg">
<path d="M15.3458 23.9363C13.2703 23.9263 11.9396 23.5589 11.7297 22.815C11.2203 21.0094 17.4981 17.6603 25.7514 15.3358C28.6527 14.4996 31.6133 13.8846 34.6076 13.4962" stroke="#0C0F1E" stroke-width="0.571646" stroke-linecap="round" stroke-linejoin="round"/>
<path d="M11.8611 14.9418C11.7471 14.7278 11.7161 14.4792 11.7743 14.2437C12.3016 12.4428 19.3998 12.9362 27.6276 15.3456C33.671 17.1145 38.6436 19.4253 40.6493 21.2418" stroke="#0C0F1E" stroke-width="0.571646" stroke-linecap="round" stroke-linejoin="round"/>
<path d="M36.0982 26.5013C36.0982 26.5013 33.5553 30.6749 33.2208 33.0933C32.8864 35.5117 32.9987 40.1409 32.9987 40.1409H22.9123C22.9123 40.1409 23.6053 35.4013 20.6873 35.0202C16.8194 35.9136 16.9671 34.2504 16.9671 34.2504V32.3758C16.9613 32.255 16.9245 32.1377 16.8602 32.0353C16.7959 31.9328 16.7063 31.8487 16.6001 31.7909C15.7666 31.2721 16.0241 29.5268 16.0241 29.5268C16.0241 29.5268 14.3888 29.4433 14.6524 28.5013C17.4793 25.6744 16.6746 23.0843 16.6746 23.0843C16.6757 21.6233 16.9966 20.1803 17.6147 18.8565C18.2328 17.5327 19.1332 16.3603 20.2526 15.4214C21.372 14.4826 22.6833 13.8001 24.0945 13.422C25.5057 13.0438 26.9825 12.9791 28.4214 13.2323C29.8603 13.4856 31.2263 14.0507 32.4235 14.888C33.6208 15.7253 34.6202 16.8145 35.3518 18.0791C36.0833 19.3438 36.5292 20.7532 36.6582 22.2085C36.7871 23.6638 36.596 25.1296 36.0982 26.5032V26.5013Z" fill="white" stroke="#0C0F1E" stroke-width="0.571646" stroke-linecap="round" stroke-linejoin="round"/>
<path d="M31.2601 20.7339C30.0969 21.133 28.8686 21.5165 27.5936 21.8754C24.7642 22.6886 21.8792 23.2938 18.9615 23.6863" stroke="#0C0F1E" stroke-width="0.571646" stroke-linecap="round" stroke-linejoin="round"/>
<path d="M34.6088 19.4731C33.5739 19.9024 32.4517 20.3261 31.2598 20.7342" stroke="#0C0F1E" stroke-width="0.571646" stroke-linecap="round" stroke-linejoin="round"/>
<path d="M40.7686 13.6505C40.9584 13.7002 41.134 13.7936 41.2814 13.9232C41.4288 14.0527 41.5439 14.2148 41.6177 14.3967C41.9672 15.6382 39.1111 17.6085 34.6101 19.474" stroke="#0C0F1E" stroke-width="0.571646" stroke-linecap="round" stroke-linejoin="round"/>
<path d="M22.1974 20.7348C19.7204 19.8951 17.3214 18.841 15.0276 17.5844" stroke="#0C0F1E" stroke-width="0.571646" stroke-linecap="round" stroke-linejoin="round"/>
<path d="M13.3328 17.4117C13.9293 17.4117 14.4129 16.928 14.4129 16.3313C14.4129 15.7346 13.9293 15.2509 13.3328 15.2509C12.7362 15.2509 12.2526 15.7346 12.2526 16.3313C12.2526 16.928 12.7362 17.4117 13.3328 17.4117Z" fill="#75E4A5"/>
<path d="M16.9148 24.4506C17.3368 24.4506 17.6789 24.1084 17.6789 23.6863C17.6789 23.2642 17.3368 22.9221 16.9148 22.9221C16.4928 22.9221 16.1506 23.2642 16.1506 23.6863C16.1506 24.1084 16.4928 24.4506 16.9148 24.4506Z" fill="#75E4A5"/>
<path d="M25.1109 10.5392C25.3183 10.5392 25.4864 10.371 25.4864 10.1636C25.4864 9.95622 25.3183 9.78809 25.1109 9.78809C24.9036 9.78809 24.7355 9.95622 24.7355 10.1636C24.7355 10.371 24.9036 10.5392 25.1109 10.5392Z" fill="#75E4A5"/>
<path d="M10.4184 25.225C10.489 25.225 10.5462 25.1678 10.5462 25.0972C10.5462 25.0265 10.489 24.9693 10.4184 24.9693C10.3478 24.9693 10.2905 25.0265 10.2905 25.0972C10.2905 25.1678 10.3478 25.225 10.4184 25.225Z" fill="#75E4A5"/>
<path d="M40.3898 26.8962C40.4604 26.8962 40.5176 26.839 40.5176 26.7684C40.5176 26.6977 40.4604 26.6405 40.3898 26.6405C40.3192 26.6405 40.262 26.6977 40.262 26.7684C40.262 26.839 40.3192 26.8962 40.3898 26.8962Z" fill="#75E4A5"/>
<path d="M35.8348 16.5618C35.9619 16.5618 36.065 16.4587 36.065 16.3316C36.065 16.2045 35.9619 16.1014 35.8348 16.1014C35.7077 16.1014 35.6046 16.2045 35.6046 16.3316C35.6046 16.4587 35.7077 16.5618 35.8348 16.5618Z" fill="#75E4A5"/>
<path d="M31.8358 12.6302C31.9629 12.6302 32.066 12.5271 32.066 12.3999C32.066 12.2728 31.9629 12.1697 31.8358 12.1697C31.7086 12.1697 31.6056 12.2728 31.6056 12.3999C31.6056 12.5271 31.7086 12.6302 31.8358 12.6302Z" fill="#75E4A5"/>
<path d="M10.2895 18.9472C10.4166 18.9472 10.5197 18.8441 10.5197 18.717C10.5197 18.5898 10.4166 18.4868 10.2895 18.4868C10.1624 18.4868 10.0593 18.5898 10.0593 18.717C10.0593 18.8441 10.1624 18.9472 10.2895 18.9472Z" fill="#75E4A5"/>
<path d="M37.4458 14.7328C38.1279 14.7328 38.6807 14.1799 38.6807 13.4977C38.6807 12.8156 38.1279 12.2626 37.4458 12.2626C36.7638 12.2626 36.2109 12.8156 36.2109 13.4977C36.2109 14.1799 36.7638 14.7328 37.4458 14.7328Z" fill="#75E4A5"/>
<path d="M40.6485 21.2409C41.374 21.897 41.7112 22.489 41.5721 22.9678C41.1542 24.3928 36.6193 24.3829 30.6641 23.1187" stroke="#0C0F1E" stroke-width="0.571646" stroke-linecap="round" stroke-linejoin="round"/>
</svg>
