<svg width="50" height="50" viewBox="0 0 50 50" fill="none" xmlns="http://www.w3.org/2000/svg">
<path d="M26.4642 9.78809C26.4642 9.78809 26.1576 15.489 26.6789 17.9461C27.2001 20.4032 28.4105 19.9796 28.7633 19.6268C29.1161 19.2739 29.3454 16.9914 31.8892 18.4003C34.4331 19.8093 36.2897 22.6928 37.7133 25.9098C39.2576 29.4003 40.2864 35.856 39.0925 39.2433C38.2062 41.7579 34.5954 39.4602 31.1543 37.2513C27.985 35.2164 27.8444 32.8065 27.8444 32.8065V24.6848C27.8444 21.6187 25.2388 21.7131 25.2388 21.7131C25.2388 21.7131 22.6331 21.6216 22.6331 24.6848V32.8069C22.6331 32.8069 22.4916 35.2168 19.3232 37.2517C15.8822 39.4607 12.2704 41.7584 11.3841 39.2437C10.1897 35.8565 11.2194 29.4022 12.7638 25.9102C14.1874 22.6919 16.043 19.8107 18.5869 18.4008C21.1307 16.9909 21.3609 19.2749 21.7138 19.6272C22.0666 19.9796 23.277 20.4032 23.7982 17.9466C24.3194 15.49 24.0124 9.78856 24.0124 9.78856" fill="white"/>
<path d="M26.4642 9.78809C26.4642 9.78809 26.1576 15.489 26.6789 17.9461C27.2001 20.4032 28.4105 19.9796 28.7633 19.6268C29.1161 19.2739 29.3454 16.9914 31.8892 18.4003C34.4331 19.8093 36.2897 22.6928 37.7133 25.9098C39.2576 29.4003 40.2864 35.856 39.0925 39.2433C38.2062 41.7579 34.5954 39.4602 31.1543 37.2513C27.985 35.2164 27.8444 32.8065 27.8444 32.8065V24.6848C27.8444 21.6187 25.2388 21.7131 25.2388 21.7131C25.2388 21.7131 22.6331 21.6216 22.6331 24.6848V32.8069C22.6331 32.8069 22.4916 35.2168 19.3232 37.2517C15.8822 39.4607 12.2704 41.7584 11.3841 39.2437C10.1897 35.8565 11.2194 29.4022 12.7638 25.9102C14.1874 22.6919 16.043 19.8107 18.5869 18.4008C21.1307 16.9909 21.3609 19.2749 21.7138 19.6272C22.0666 19.9796 23.277 20.4032 23.7982 17.9466C24.3194 15.49 24.0124 9.78856 24.0124 9.78856" stroke="#0C0F1E" stroke-width="0.571646" stroke-linecap="round" stroke-linejoin="round"/>
<path d="M12.2556 37.2499C12.1065 36.3874 12.0803 35.5081 12.1777 34.6381C12.2499 33.987 12.5729 33.3895 13.0782 32.9724C13.5834 32.5552 14.2312 32.3513 14.8843 32.4037C16.3492 32.5546 17.8243 32.5819 19.2938 32.4853C19.4794 32.4657 19.6671 32.4907 19.8411 32.5583C20.0152 32.6259 20.1705 32.7342 20.2942 32.8741C20.4178 33.0139 20.5063 33.1814 20.5521 33.3624C20.5979 33.5434 20.5997 33.7327 20.5574 33.9146C20.2843 35.1282 18.9329 36.8259 14.3537 38.4787C14.1354 38.556 13.9029 38.5848 13.6723 38.5629C13.4418 38.541 13.2188 38.4691 13.019 38.352C12.8191 38.235 12.6473 38.0757 12.5154 37.8854C12.3836 37.695 12.2949 37.4781 12.2556 37.2499Z" fill="#75E4A5"/>
<path d="M38.5528 37.2499C38.7019 36.3873 38.7281 35.508 38.6307 34.6381C38.5586 33.9868 38.2357 33.3893 37.7304 32.9721C37.2251 32.555 36.5772 32.3511 35.9241 32.4036C34.4593 32.5545 32.9845 32.5818 31.5151 32.4852C31.3294 32.4656 31.1418 32.4906 30.9677 32.5583C30.7937 32.6259 30.6383 32.7341 30.5146 32.874C30.3909 33.0139 30.3025 33.1813 30.2566 33.3623C30.2107 33.5433 30.2088 33.7326 30.251 33.9145C30.5241 35.1282 31.8755 36.8258 36.4547 38.4786C36.673 38.556 36.9055 38.5847 37.1361 38.5628C37.3666 38.541 37.5896 38.469 37.7894 38.352C37.9893 38.2349 38.1611 38.0757 38.293 37.8853C38.4248 37.6949 38.5135 37.4781 38.5528 37.2499Z" fill="#75E4A5"/>
<path d="M36.6135 30.4524C36.8264 30.4524 36.9989 30.2798 36.9989 30.067C36.9989 29.8541 36.8264 29.6815 36.6135 29.6815C36.4007 29.6815 36.2281 29.8541 36.2281 30.067C36.2281 30.2798 36.4007 30.4524 36.6135 30.4524Z" fill="#75E4A5"/>
<path d="M15.1788 31.6406C15.3917 31.6406 15.5642 31.468 15.5642 31.2551C15.5642 31.0423 15.3917 30.8697 15.1788 30.8697C14.966 30.8697 14.7935 31.0423 14.7935 31.2551C14.7935 31.468 14.966 31.6406 15.1788 31.6406Z" fill="#75E4A5"/>
<path d="M30.2218 27.1599C30.3523 27.1599 30.4581 27.0541 30.4581 26.9236C30.4581 26.793 30.3523 26.6872 30.2218 26.6872C30.0913 26.6872 29.9855 26.793 29.9855 26.9236C29.9855 27.0541 30.0913 27.1599 30.2218 27.1599Z" fill="#75E4A5"/>
<path d="M25.8843 18.3348C26.0148 18.3348 26.1206 18.229 26.1206 18.0984C26.1206 17.9679 26.0148 17.8621 25.8843 17.8621C25.7538 17.8621 25.6479 17.9679 25.6479 18.0984C25.6479 18.229 25.7538 18.3348 25.8843 18.3348Z" fill="#75E4A5"/>
<path d="M20.5847 30.0675C20.7152 30.0675 20.821 29.9616 20.821 29.8311C20.821 29.7006 20.7152 29.5947 20.5847 29.5947C20.4542 29.5947 20.3484 29.7006 20.3484 29.8311C20.3484 29.9616 20.4542 30.0675 20.5847 30.0675Z" fill="#75E4A5"/>
<path d="M19.2632 23.9966C19.3937 23.9966 19.4995 23.8908 19.4995 23.7603C19.4995 23.6297 19.3937 23.5239 19.2632 23.5239C19.1327 23.5239 19.0269 23.6297 19.0269 23.7603C19.0269 23.8908 19.1327 23.9966 19.2632 23.9966Z" fill="#0C0F1E"/>
<path d="M25.5099 15.0642C25.6404 15.0642 25.7462 14.9584 25.7462 14.8279C25.7462 14.6973 25.6404 14.5915 25.5099 14.5915C25.3794 14.5915 25.2736 14.6973 25.2736 14.8279C25.2736 14.9584 25.3794 15.0642 25.5099 15.0642Z" fill="#75E4A5"/>
<path d="M24.9325 17.0302C24.9787 17.0302 25.0162 16.9927 25.0162 16.9464C25.0162 16.9002 24.9787 16.8627 24.9325 16.8627C24.8862 16.8627 24.8488 16.9002 24.8488 16.9464C24.8488 16.9927 24.8862 17.0302 24.9325 17.0302Z" fill="#0C0F1E"/>
<path d="M31.2358 31.492C31.3663 31.492 31.4721 31.3862 31.4721 31.2556C31.4721 31.1251 31.3663 31.0193 31.2358 31.0193C31.1053 31.0193 30.9995 31.1251 30.9995 31.2556C30.9995 31.3862 31.1053 31.492 31.2358 31.492Z" fill="#0C0F1E"/>
<path d="M25.5096 11.4672C25.564 11.4672 25.6081 11.423 25.6081 11.3686C25.6081 11.3142 25.564 11.2701 25.5096 11.2701C25.4552 11.2701 25.4111 11.3142 25.4111 11.3686C25.4111 11.423 25.4552 11.4672 25.5096 11.4672Z" fill="#0C0F1E"/>
<path d="M24.7726 14.1046C24.7952 14.1046 24.8136 14.0862 24.8136 14.0635C24.8136 14.0409 24.7952 14.0225 24.7726 14.0225C24.7499 14.0225 24.7316 14.0409 24.7316 14.0635C24.7316 14.0862 24.7499 14.1046 24.7726 14.1046Z" fill="#0C0F1E"/>
<path d="M13.8511 23.6953C14.2875 24.1822 14.8427 24.5475 15.4624 24.7558C16.329 25.0622 17.2538 25.1678 18.1671 25.0649" stroke="#0C0F1E" stroke-width="0.571646" stroke-linecap="round" stroke-linejoin="round"/>
<path d="M12.6808 26.1028C13.2008 26.6737 13.8657 27.0932 14.6048 27.3167C15.6004 27.6253 16.6596 27.6664 17.6761 27.436" stroke="#0C0F1E" stroke-width="0.571646" stroke-linecap="round" stroke-linejoin="round"/>
<path d="M36.6135 23.6953C36.1771 24.1822 35.6219 24.5475 35.0022 24.7558C34.1356 25.0622 33.2108 25.1678 32.2975 25.0649" stroke="#0C0F1E" stroke-width="0.571646" stroke-linecap="round" stroke-linejoin="round"/>
<path d="M37.7844 26.1028C37.2642 26.6735 36.5993 27.0929 35.8603 27.3167C34.8648 27.6253 33.8055 27.6664 32.7891 27.436" stroke="#0C0F1E" stroke-width="0.571646" stroke-linecap="round" stroke-linejoin="round"/>
</svg>
