<svg width="51" height="50" viewBox="0 0 51 50" fill="none" xmlns="http://www.w3.org/2000/svg">
<path d="M40.1821 7.6792H10.4529C9.966 7.6792 9.57129 8.07391 9.57129 8.5608V41.9848C9.57129 42.4717 9.966 42.8664 10.4529 42.8664H40.1821C40.669 42.8664 41.0637 42.4717 41.0637 41.9848V8.5608C41.0637 8.07391 40.669 7.6792 40.1821 7.6792Z" stroke="#0C0F1E" stroke-width="0.571646" stroke-miterlimit="10"/>
<path d="M17.6521 19.5154C17.6521 19.5154 16.7795 21.8268 23.6686 21.8268" stroke="#0C0F1E" stroke-width="0.571646" stroke-linecap="round" stroke-linejoin="round"/>
<path d="M16.6543 21.8283C16.6543 21.8283 16.1656 24.5382 23.2911 24.2368" stroke="#0C0F1E" stroke-width="0.571646" stroke-linecap="round" stroke-linejoin="round"/>
<path d="M15.9819 24.3013C15.9819 24.3013 15.9819 26.7447 22.397 26.5551" stroke="#0C0F1E" stroke-width="0.571646" stroke-linecap="round" stroke-linejoin="round"/>
<path d="M15.552 26.5886C15.552 26.5886 15.5992 28.7848 21.2152 28.5617" stroke="#0C0F1E" stroke-width="0.571646" stroke-linecap="round" stroke-linejoin="round"/>
<path d="M16.5841 27.8542C16.5841 27.8542 14.7346 32.1589 17.5181 32.798C20.3016 33.4372 22.2525 30.2565 23.9988 30.658" stroke="#0C0F1E" stroke-width="0.571646" stroke-linecap="round" stroke-linejoin="round"/>
<path d="M23.9988 35.5188C23.9988 35.5188 23.6917 36.611 25.1549 36.611H25.4794C26.9417 36.611 26.6355 35.5188 26.6355 35.5188" stroke="#0C0F1E" stroke-width="0.571646" stroke-linecap="round" stroke-linejoin="round"/>
<path d="M26.2112 19.5093C28.5697 19.889 31.0008 19.132 31.7301 18.4395C32.4593 17.7471 30.5036 14.8725 28.0508 15.898C25.598 16.9235 25.315 16.6112 25.315 16.6112H25.3211C25.3211 16.6112 25.0381 16.9235 22.5852 15.898C20.1324 14.8725 18.173 17.7485 18.906 18.4395C19.639 19.1306 22.0664 19.889 24.4249 19.5093" stroke="#0C0F1E" stroke-width="0.571646" stroke-linecap="round" stroke-linejoin="round"/>
<path d="M32.9824 19.5154C32.9824 19.5154 33.855 21.8268 26.9658 21.8268" stroke="#0C0F1E" stroke-width="0.571646" stroke-linecap="round" stroke-linejoin="round"/>
<path d="M33.9798 21.8283C33.9798 21.8283 34.4685 24.5382 27.343 24.2368" stroke="#0C0F1E" stroke-width="0.571646" stroke-linecap="round" stroke-linejoin="round"/>
<path d="M34.6526 24.3013C34.6526 24.3013 34.6526 26.7447 28.2375 26.5551" stroke="#0C0F1E" stroke-width="0.571646" stroke-linecap="round" stroke-linejoin="round"/>
<path d="M35.0824 26.5886C35.0824 26.5886 35.0352 28.7849 29.4192 28.5617" stroke="#0C0F1E" stroke-width="0.571646" stroke-linecap="round" stroke-linejoin="round"/>
<path d="M34.0496 27.8542C34.0496 27.8542 35.8992 32.1589 33.1157 32.798C30.3322 33.4372 28.3812 30.2565 26.635 30.658" stroke="#0C0F1E" stroke-width="0.571646" stroke-linecap="round" stroke-linejoin="round"/>
<path d="M26.635 26.3547V31.2132C26.635 31.2132 26.5175 32.6849 25.3144 32.6849H25.3205C24.1174 32.6849 24 31.2132 24 31.2132V26.3547" stroke="#0C0F1E" stroke-width="0.571646" stroke-linecap="round" stroke-linejoin="round"/>
<path d="M26.6353 33.6683C26.6353 33.6683 26.7537 34.5605 25.3145 34.5605H25.3207C23.8815 34.5605 23.9999 33.6683 23.9999 33.6683" stroke="#0C0F1E" stroke-width="0.571646" stroke-linecap="round" stroke-linejoin="round"/>
<path d="M26.4939 15.5554C26.4939 13.8311 25.3147 13.9354 25.3147 13.9354H25.3208C25.3208 13.9354 24.1416 13.8311 24.1416 15.5554" stroke="#0C0F1E" stroke-width="0.571646" stroke-linecap="round" stroke-linejoin="round"/>
<path d="M21.3876 9.36646H11.6918C11.5946 9.36646 11.5159 9.44523 11.5159 9.5424V10.5349C11.5159 10.632 11.5946 10.7108 11.6918 10.7108H21.3876C21.4848 10.7108 21.5635 10.632 21.5635 10.5349V9.5424C21.5635 9.44523 21.4848 9.36646 21.3876 9.36646Z" fill="#75E4A5"/>
<path d="M16.6909 11.2588H11.6918C11.5946 11.2588 11.5159 11.3376 11.5159 11.4347V12.0824C11.5159 12.1795 11.5946 12.2583 11.6918 12.2583H16.6909C16.7881 12.2583 16.8668 12.1795 16.8668 12.0824V11.4347C16.8668 11.3376 16.7881 11.2588 16.6909 11.2588Z" fill="#75E4A5"/>
<path d="M39.162 40.3075H34.163C34.0658 40.3075 33.9871 40.3863 33.9871 40.4834V41.1311C33.9871 41.2282 34.0658 41.307 34.163 41.307H39.162C39.2592 41.307 39.338 41.2282 39.338 41.1311V40.4834C39.338 40.3863 39.2592 40.3075 39.162 40.3075Z" fill="#75E4A5"/>
<path d="M28.9219 30.3688C28.9219 30.3688 31.3275 32.3974 32.5662 31.9728C33.8049 31.5482 33.8337 30.7519 33.4502 30.3688C33.0667 29.9857 31.5747 31.6313 28.9219 30.3688Z" fill="#75E4A5"/>
</svg>
