<svg width="51" height="50" viewBox="0 0 51 50" fill="none" xmlns="http://www.w3.org/2000/svg">
<path d="M26.0737 30.4468C26.2782 30.4468 26.4439 30.281 26.4439 30.0765C26.4439 29.8719 26.2782 29.7061 26.0737 29.7061C25.8692 29.7061 25.7034 29.8719 25.7034 30.0765C25.7034 30.281 25.8692 30.4468 26.0737 30.4468Z" fill="#75E4A5"/>
<path d="M24.9928 13.118C25.1181 13.118 25.2197 13.0164 25.2197 12.8911C25.2197 12.7657 25.1181 12.6641 24.9928 12.6641C24.8675 12.6641 24.7659 12.7657 24.7659 12.8911C24.7659 13.0164 24.8675 13.118 24.9928 13.118Z" fill="#75E4A5"/>
<path d="M28.9278 24.9312C29.0531 24.9312 29.1547 24.8296 29.1547 24.7042C29.1547 24.5789 29.0531 24.4773 28.9278 24.4773C28.8025 24.4773 28.7009 24.5789 28.7009 24.7042C28.7009 24.8296 28.8025 24.9312 28.9278 24.9312Z" fill="#0C0F1E"/>
<path d="M14.8653 24.2755C14.9906 24.2755 15.0921 24.1739 15.0921 24.0486C15.0921 23.9233 14.9906 23.8217 14.8653 23.8217C14.74 23.8217 14.6384 23.9233 14.6384 24.0486C14.6384 24.1739 14.74 24.2755 14.8653 24.2755Z" fill="#0C0F1E"/>
<path d="M23.8221 22.7708C23.9474 22.7708 24.0489 22.6692 24.0489 22.5439C24.0489 22.4185 23.9474 22.317 23.8221 22.317C23.6968 22.317 23.5952 22.4185 23.5952 22.5439C23.5952 22.6692 23.6968 22.7708 23.8221 22.7708Z" fill="#75E4A5"/>
<path d="M15.0911 20.051C15.2164 20.051 15.318 19.9494 15.318 19.8241C15.318 19.6988 15.2164 19.5972 15.0911 19.5972C14.9658 19.5972 14.8643 19.6988 14.8643 19.8241C14.8643 19.9494 14.9658 20.051 15.0911 20.051Z" fill="#75E4A5"/>
<path d="M20.1771 32.008L24.7526 26.1981C24.7541 25.6798 24.8344 25.1648 24.9908 24.6707C24.9908 24.6707 23.1512 25.116 23.053 24.2933L22.9644 23.5467C22.5403 23.5636 22.1165 23.505 21.713 23.3735L16.929 29.4499C16.6192 29.864 16.2067 30.1901 15.7323 30.3959C15.2578 30.6018 14.7379 30.6802 14.2238 30.6235C13.8104 30.5621 13.3888 30.5881 12.9861 30.7C12.5834 30.8119 12.2087 31.0071 11.8862 31.273C11.5638 31.5389 11.3008 31.8696 11.1142 32.2436C10.9277 32.6176 10.8218 33.0266 10.8034 33.4441C10.785 33.8617 10.8545 34.2784 11.0075 34.6674C11.1604 35.0564 11.3933 35.4089 11.6911 35.7021C11.9889 35.9954 12.345 36.2228 12.7362 36.3696C13.1275 36.5165 13.5453 36.5795 13.9625 36.5547C14.0365 36.9654 14.1959 37.3561 14.4303 37.7014C14.6648 38.0467 14.969 38.339 15.3235 38.5594C15.678 38.7798 16.0747 38.9233 16.4881 38.9808C16.9015 39.0382 17.3224 39.0083 17.7235 38.8929C18.1246 38.7775 18.4971 38.5792 18.8168 38.3109C19.1365 38.0426 19.3963 37.7101 19.5795 37.3351C19.7627 36.9601 19.8651 36.5508 19.8803 36.1337C19.8954 35.7166 19.8228 35.3009 19.6672 34.9136C19.4915 34.4269 19.4461 33.9026 19.5356 33.393C19.625 32.8833 19.8462 32.4058 20.1771 32.008Z" stroke="#0C0F1E" stroke-width="0.571646" stroke-linecap="round" stroke-linejoin="round"/>
<path d="M26.2402 20.7382C26.2402 20.7443 26.218 20.8226 26.0449 21.4641C25.8298 22.2632 27.7044 22.5339 27.7044 22.5339C27.3751 22.9341 27.1088 23.3822 26.9147 23.8627L32.5572 20.6137C32.9987 20.3445 33.5029 20.1952 34.0199 20.1805C34.5369 20.1659 35.0487 20.2864 35.5048 20.5302C35.8656 20.7405 36.2666 20.8728 36.6817 20.9184C37.0968 20.964 37.5169 20.922 37.9148 20.795C38.3127 20.668 38.6795 20.4589 38.9915 20.1812C39.3034 19.9036 39.5536 19.5635 39.7259 19.183C39.8982 18.8026 39.9886 18.3902 39.9915 17.9726C39.9943 17.5549 39.9095 17.1413 39.7424 16.7586C39.5753 16.3758 39.3297 16.0324 39.0216 15.7505C38.7134 15.4686 38.3495 15.2545 37.9534 15.1222C38.0372 14.7135 38.0344 14.2917 37.9451 13.8842C37.8558 13.4766 37.682 13.0924 37.435 12.7562C37.188 12.4199 36.8732 12.1393 36.511 11.9323C36.1487 11.7253 35.7471 11.5966 35.3321 11.5544C34.917 11.5123 34.4977 11.5577 34.1012 11.6877C33.7048 11.8177 33.34 12.0293 33.0305 12.309C32.7209 12.5888 32.4735 12.9303 32.3041 13.3116C32.1348 13.6929 32.0473 14.1054 32.0473 14.5226C32.0291 15.0396 31.8762 15.5429 31.6039 15.9826C31.3316 16.4224 30.9491 16.7835 30.4944 17.0302L25.1426 20.1141C25.4683 20.3864 25.8398 20.5987 26.2398 20.741L26.2402 20.7382Z" stroke="#0C0F1E" stroke-width="0.571646" stroke-linecap="round" stroke-linejoin="round"/>
<path d="M19.8174 30.0769C19.8174 30.0769 16.0638 33.3118 16.5595 35.0359C17.0552 36.7599 17.7574 36.4981 17.9022 37.3944C18.1292 37.264 18.3117 37.0683 18.4259 36.8327C18.5401 36.5971 18.5808 36.3326 18.5426 36.0736C18.3771 35.201 16.7717 34.4925 19.8174 30.0769Z" fill="#75E4A5"/>
<path d="M26.8809 19.931L30.9743 17.7004C30.9743 17.7004 27.9111 20.5386 27.0389 21.411C27.1301 21.3053 27.1986 21.1821 27.2402 21.0489C27.2819 20.9158 27.2957 20.7754 27.2809 20.6367C27.2661 20.4979 27.2229 20.3637 27.1541 20.2423C27.0853 20.1209 26.9923 20.015 26.8809 19.931Z" fill="#75E4A5"/>
<path d="M18.2412 21.8391L21.2398 21.3489" stroke="#0C0F1E" stroke-width="0.571646" stroke-linecap="round" stroke-linejoin="round"/>
<path d="M18.6545 18.0815L21.1436 19.8243" stroke="#0C0F1E" stroke-width="0.571646" stroke-linecap="round" stroke-linejoin="round"/>
<path d="M22.0139 16.608L22.755 19.5552" stroke="#0C0F1E" stroke-width="0.571646" stroke-linecap="round" stroke-linejoin="round"/>
</svg>
