<svg width="51" height="50" viewBox="0 0 51 50" fill="none" xmlns="http://www.w3.org/2000/svg">
<path d="M33.1254 27.4618C33.2643 27.4618 33.3769 27.3492 33.3769 27.2103C33.3769 27.0715 33.2643 26.9589 33.1254 26.9589C32.9866 26.9589 32.874 27.0715 32.874 27.2103C32.874 27.3492 32.9866 27.4618 33.1254 27.4618Z" fill="#75E4A5"/>
<path d="M17.1403 23.5499C17.2792 23.5499 17.3917 23.4374 17.3917 23.2985C17.3917 23.1597 17.2792 23.0471 17.1403 23.0471C17.0015 23.0471 16.8889 23.1597 16.8889 23.2985C16.8889 23.4374 17.0015 23.5499 17.1403 23.5499Z" fill="#75E4A5"/>
<path d="M37.0073 26.715C37.1461 26.715 37.2587 26.6025 37.2587 26.4636C37.2587 26.3248 37.1461 26.2122 37.0073 26.2122C36.8684 26.2122 36.7559 26.3248 36.7559 26.4636C36.7559 26.6025 36.8684 26.715 37.0073 26.715Z" fill="#0C0F1E"/>
<path d="M22.4877 26.4642C22.6266 26.4642 22.7392 26.3516 22.7392 26.2128C22.7392 26.0739 22.6266 25.9614 22.4877 25.9614C22.3489 25.9614 22.2363 26.0739 22.2363 26.2128C22.2363 26.3516 22.3489 26.4642 22.4877 26.4642Z" fill="#0C0F1E"/>
<path d="M27.0479 32.5538H28.8484C29.8897 32.5561 30.9119 32.2734 31.8041 31.7364C32.443 31.3925 33.0079 30.9261 33.4663 30.3637C34.1357 29.3288 31.6409 29.2076 30.256 29.9071C28.8711 30.6066 26.9399 29.3444 26.7121 29.1165C26.4843 28.8887 22.5894 26.1194 19.106 29.6029V33.1878C19.106 33.5364 19.2445 33.8708 19.491 34.1174C19.7375 34.3639 20.0719 34.5024 20.4206 34.5024H28.7762C29.7374 34.5025 30.6833 34.2615 31.5272 33.8015L40.3418 28.9944C40.3418 28.9944 40.7069 27.9604 38.9116 27.9604C37.1163 27.9604 33.6786 29.7859 33.6786 29.7859" stroke="#0C0F1E" stroke-width="0.571646" stroke-linecap="round" stroke-linejoin="round"/>
<path d="M18.5714 27.2104H16.2365C15.9403 27.2104 15.7002 27.4505 15.7002 27.7467V35.3448C15.7002 35.641 15.9403 35.8811 16.2365 35.8811H18.5714C18.8676 35.8811 19.1077 35.641 19.1077 35.3448V27.7467C19.1077 27.4505 18.8676 27.2104 18.5714 27.2104Z" stroke="#0C0F1E" stroke-width="0.571646" stroke-linecap="round" stroke-linejoin="round"/>
<path d="M15.164 25.3849H11.1559C10.8597 25.3849 10.6196 25.625 10.6196 25.9212V37.1703C10.6196 37.4665 10.8597 37.7066 11.1559 37.7066H15.164C15.4602 37.7066 15.7003 37.4665 15.7003 37.1703V25.9212C15.7003 25.625 15.4602 25.3849 15.164 25.3849Z" fill="#75E4A5" stroke="#0C0F1E" stroke-width="0.571646" stroke-miterlimit="10"/>
<path d="M31.7582 24.3773C27.8393 27.2193 23.3238 23.5542 22.3587 19.5075C21.3846 15.4575 22.5002 12.1768 25.3441 11.6745C28.1483 11.1745 29.0964 12.4764 29.5809 13.6844C30.153 15.1103 28.7478 16.6117 28.7478 16.6117C26.9676 16.9136 26.2846 15.3924 26.1337 14.9679C26.2257 15.2641 26.3558 16.0999 25.3186 16.7646C25.3186 16.7646 26.7889 17.6108 25.7959 18.9127C25.7959 18.9127 27.1733 19.4636 26.4846 21.0768C26.6702 20.9759 26.8762 20.9184 27.0872 20.9086C27.2982 20.8988 27.5086 20.9371 27.7027 21.0205C27.8967 21.1039 28.0693 21.2302 28.2075 21.39C28.3456 21.5498 28.4457 21.7388 28.5002 21.9429C28.5002 21.9429 28.1728 19.7674 30.0662 18.7547L30.0719 18.7523C31.7837 18.0782 35.0332 21.7872 31.7582 24.3773Z" stroke="#0C0F1E" stroke-width="0.571646" stroke-linecap="round" stroke-linejoin="round"/>
<path d="M26.1345 14.9678C26.129 14.9416 26.1211 14.9159 26.1109 14.8912L26.0967 14.8567" stroke="#0C0F1E" stroke-width="0.571646" stroke-linecap="round" stroke-linejoin="round"/>
<path d="M37.1365 23.6486C37.1365 23.6486 36.2106 18.0779 32.0955 18.2599C31.393 18.2716 30.7018 18.4396 30.0724 18.7519L30.0667 18.7543C28.1733 19.767 28.5007 21.9425 28.5007 21.9425C28.4462 21.7384 28.3461 21.5494 28.208 21.3896C28.0698 21.2298 27.8972 21.1035 27.7032 21.0201C27.5091 20.9367 27.2987 20.8985 27.0877 20.9082C26.8767 20.918 26.6707 20.9755 26.4851 21.0764C27.1738 19.4637 25.7964 18.9123 25.7964 18.9123C26.7894 17.6104 25.3191 16.7642 25.3191 16.7642C26.3568 16.1038 26.2262 15.2637 26.1342 14.9675C26.2851 15.392 26.9681 16.9132 28.7483 16.6113C28.9159 16.58 29.0813 16.5381 29.2436 16.4859L29.2483 16.4835C29.337 16.4547 29.4196 16.4279 29.5106 16.3915C29.8956 16.2354 30.292 16.1092 30.6964 16.0142C30.9021 15.967 31.1073 15.9288 31.3097 15.901H31.3153C31.6305 15.8576 31.9488 15.8418 32.2667 15.8538C32.3413 15.8571 32.421 15.858 32.4979 15.867L32.5035 15.8646C34.2314 15.9958 35.9163 16.9816 37.3299 19.3264C38.1091 20.5297 38.6203 21.8865 38.829 23.3047" stroke="#0C0F1E" stroke-width="0.571646" stroke-linecap="round" stroke-linejoin="round"/>
<path d="M32.8629 12.0211L32.8587 12.0433C32.8479 12.1022 32.8183 12.156 32.7743 12.1966L32.7686 12.199C32.5344 12.3426 32.2571 12.3991 31.9854 12.3586C31.7137 12.3182 31.4649 12.1833 31.2827 11.9777C31.2763 11.9718 31.2714 11.9646 31.2681 11.9565C31.2669 11.9443 31.2642 11.9322 31.2601 11.9207C31.2487 11.8863 31.2434 11.8502 31.2445 11.8141C31.278 11.5674 31.6691 11.4254 32.112 11.4919C32.5417 11.5518 32.8747 11.7839 32.8629 12.0211Z" stroke="#0C0F1E" stroke-width="0.571646" stroke-linecap="round" stroke-linejoin="round"/>
<path d="M34.4185 14.6218C34.4005 14.641 34.3804 14.6581 34.3586 14.6727C34.3289 14.6913 34.2961 14.7045 34.2619 14.7119L34.2595 14.7062C33.9848 14.7037 33.72 14.6034 33.5126 14.4234C33.3051 14.2433 33.1686 13.9953 33.1275 13.7237C33.1254 13.7076 33.1277 13.6914 33.1341 13.6765C33.1515 13.6468 33.1653 13.6151 33.1751 13.5822L33.1817 13.5657C33.3383 13.377 33.7477 13.4657 34.0855 13.7614C34.4265 14.0468 34.5775 14.4388 34.4185 14.6218Z" stroke="#0C0F1E" stroke-width="0.571646" stroke-linecap="round" stroke-linejoin="round"/>
<path d="M31.2678 11.9559C31.2666 11.9436 31.2639 11.9315 31.2598 11.9198" stroke="#0C0F1E" stroke-width="0.571646" stroke-linecap="round" stroke-linejoin="round"/>
<path d="M32.8634 12.0213C32.8551 13.1395 32.5491 14.2354 31.9771 15.1963C31.5929 15.5308 31.1616 15.8069 30.6969 16.0156C30.2925 16.1107 29.896 16.2368 29.511 16.393C29.42 16.4293 29.337 16.4562 29.2488 16.485C31.7153 14.0986 31.3478 12.2397 31.2686 11.9567C31.2718 11.9647 31.2768 11.972 31.2832 11.9779C31.4654 12.1835 31.7142 12.3184 31.9859 12.3588C32.2576 12.3993 32.5349 12.3427 32.7691 12.1991L32.7747 12.1968C32.8187 12.1561 32.8483 12.1023 32.8592 12.0435L32.8634 12.0213Z" fill="#75E4A5" stroke="#0C0F1E" stroke-width="0.571646" stroke-linecap="round" stroke-linejoin="round"/>
<path d="M34.3588 14.6722C33.7287 15.1744 33.0223 15.5725 32.2663 15.8514C31.9486 15.8395 31.6304 15.8553 31.3154 15.8986H31.3097C31.1079 15.9264 30.9031 15.9628 30.6965 16.0118C31.1612 15.8031 31.5926 15.527 31.9767 15.1925C32.4629 14.7699 32.8571 14.252 33.1347 13.6708C33.1284 13.6856 33.1261 13.7019 33.1281 13.7179C33.1693 13.9895 33.3058 14.2376 33.5133 14.4177C33.7207 14.5977 33.9855 14.698 34.2602 14.7005L34.2626 14.7062C34.2963 14.7004 34.3289 14.6889 34.3588 14.6722V14.6722Z" stroke="#0C0F1E" stroke-width="0.571646" stroke-linecap="round" stroke-linejoin="round"/>
<path d="M27.1948 23.8086C27.1948 23.8086 29.2826 25.2049 30.992 23.7553C32.7014 22.3058 32.0127 20.9412 31.5052 20.2402C31.5052 20.2402 31.8703 24.1105 27.1948 23.8086Z" fill="#75E4A5"/>
<path d="M24.3565 14.778C24.6298 14.4299 24.7075 14.0346 24.53 13.8952C24.3524 13.7558 23.9869 13.925 23.7135 14.2731C23.4401 14.6212 23.3624 15.0165 23.54 15.1559C23.7175 15.2953 24.0831 15.1261 24.3565 14.778Z" fill="#75E4A5"/>
</svg>
