<svg width="50" height="50" viewBox="0 0 50 50" fill="none" xmlns="http://www.w3.org/2000/svg">
<path d="M36.5872 24.5275C36.5872 24.5275 33.7145 29.2445 33.3381 31.978C32.9617 34.7115 33.0881 39.9421 33.0881 39.9421H21.6858C21.6858 39.9421 22.4693 34.5855 19.1726 34.1549C14.8027 35.1652 14.9674 33.286 14.9674 33.286V31.1676C14.9611 31.0312 14.9197 30.8988 14.8472 30.7831C14.7747 30.6674 14.6736 30.5724 14.5537 30.5072C13.6103 29.9199 13.9027 27.9464 13.9027 27.9464C13.9027 27.9464 12.0546 27.852 12.3523 26.7869C15.5471 23.5921 14.6376 20.6648 14.6376 20.6648C14.639 19.0137 15.0016 17.383 15.7002 15.8871C16.3987 14.3911 17.4162 13.0662 18.6812 12.0052C19.9462 10.9443 21.4281 10.1731 23.0229 9.74575C24.6176 9.31839 26.2866 9.24525 27.9126 9.53146C29.5386 9.81767 31.0823 10.4563 32.4353 11.4025C33.7882 12.3487 34.9177 13.5796 35.7444 15.0087C36.5712 16.4378 37.0751 18.0305 37.2208 19.6751C37.3666 21.3197 37.1506 22.9762 36.5881 24.5284L36.5872 24.5275Z" fill="white" stroke="#0C0F1E" stroke-width="0.571646" stroke-linecap="round" stroke-linejoin="round"/>
<path d="M23.8022 20.648C23.8226 20.4704 23.7903 20.2906 23.7091 20.1312C23.628 19.9718 23.5017 19.8399 23.3461 19.7518L22.7876 19.4358L23.7966 18.8084C23.8997 18.7443 23.989 18.6602 24.0591 18.561C24.1293 18.4618 24.1789 18.3497 24.2051 18.2311L24.4475 17.1263L25.2187 17.6924C25.317 17.7643 25.4288 17.8157 25.5473 17.8437C25.6658 17.8716 25.7888 17.8755 25.9088 17.8551L27.4414 17.5947L27.8947 18.049C28.0336 18.1872 28.1239 18.3668 28.1518 18.5608L28.2706 19.3806L28.8928 20.0028L28.5692 20.2495C28.4626 20.3304 28.3751 20.4339 28.313 20.5525C28.2509 20.6711 28.2158 20.802 28.2101 20.9357C28.2045 21.0695 28.2284 21.2028 28.2802 21.3263C28.332 21.4497 28.4104 21.5603 28.5098 21.6499L28.8928 21.9957H27.5956C27.3883 21.9958 27.1872 22.0667 27.0257 22.1967C26.8642 22.3266 26.7519 22.5078 26.7074 22.7103L26.5395 23.4749L25.5055 22.0391C25.4235 21.9249 25.316 21.8313 25.1915 21.7658C25.0671 21.7004 24.9291 21.6647 24.7885 21.6617L24.6852 21.6594C24.559 21.6564 24.4348 21.6271 24.3205 21.5735C24.2062 21.5199 24.1042 21.4431 24.0212 21.348C23.9381 21.2529 23.8758 21.1416 23.8381 21.021C23.8004 20.9005 23.7882 20.7735 23.8022 20.648Z" fill="#75E4A5"/>
<path d="M30.5919 22.5591C30.8889 22.5591 31.1297 22.3183 31.1297 22.0213C31.1297 21.7243 30.8889 21.4836 30.5919 21.4836C30.295 21.4836 30.0542 21.7243 30.0542 22.0213C30.0542 22.3183 30.295 22.5591 30.5919 22.5591Z" fill="#75E4A5"/>
<path d="M27.3319 16.9396C27.4689 16.9396 27.58 16.8286 27.58 16.6915C27.58 16.5545 27.4689 16.4434 27.3319 16.4434C27.1948 16.4434 27.0837 16.5545 27.0837 16.6915C27.0837 16.8286 27.1948 16.9396 27.3319 16.9396Z" fill="#75E4A5"/>
<path d="M19.9064 18.8453C20.0033 18.8453 20.0819 18.7668 20.0819 18.6699C20.0819 18.5729 20.0033 18.4944 19.9064 18.4944C19.8095 18.4944 19.731 18.5729 19.731 18.6699C19.731 18.7668 19.8095 18.8453 19.9064 18.8453Z" fill="#75E4A5"/>
<path d="M23.55 15.8091C23.6469 15.8091 23.7255 15.7305 23.7255 15.6336C23.7255 15.5367 23.6469 15.4581 23.55 15.4581C23.4531 15.4581 23.3745 15.5367 23.3745 15.6336C23.3745 15.7305 23.4531 15.8091 23.55 15.8091Z" fill="#0C0F1E"/>
<path d="M27.4221 21.0933C27.519 21.0933 27.5975 21.0147 27.5975 20.9178C27.5975 20.8209 27.519 20.7423 27.4221 20.7423C27.3251 20.7423 27.2466 20.8209 27.2466 20.9178C27.2466 21.0147 27.3251 21.0933 27.4221 21.0933Z" fill="#0C0F1E"/>
<path d="M17.8581 23.2681C18.0016 23.2681 18.118 23.1517 18.118 23.0082C18.118 22.8647 18.0016 22.7483 17.8581 22.7483C17.7145 22.7483 17.5981 22.8647 17.5981 23.0082C17.5981 23.1517 17.7145 23.2681 17.8581 23.2681Z" fill="#0C0F1E"/>
<path d="M22.6428 39.1651H32.2023C31.8767 37.1824 31.8767 35.1597 32.2023 33.1769C32.2023 33.1769 31.4079 38.1203 22.6428 39.1651Z" fill="#75E4A5"/>
<path d="M23.7294 13.867L23.6309 12.2373" stroke="#0C0F1E" stroke-width="0.571646" stroke-linecap="round" stroke-linejoin="round"/>
<path d="M25.8416 12.8741V15.6336" stroke="#75E4A5" stroke-width="0.571646" stroke-linecap="round" stroke-linejoin="round"/>
<path d="M20.0435 17.2326L18.8213 16.15" stroke="#0C0F1E" stroke-width="0.571646" stroke-linecap="round" stroke-linejoin="round"/>
<path d="M20.8354 15.0368L22.7869 16.9882" stroke="#75E4A5" stroke-width="0.571646" stroke-linecap="round" stroke-linejoin="round"/>
<path d="M18.8245 20.1063H21.5839" stroke="#75E4A5" stroke-width="0.571646" stroke-linecap="round" stroke-linejoin="round"/>
<path d="M23.1841 25.9044L22.1016 27.1265" stroke="#0C0F1E" stroke-width="0.571646" stroke-linecap="round" stroke-linejoin="round"/>
<path d="M20.9883 25.1124L22.9397 23.1609" stroke="#75E4A5" stroke-width="0.571646" stroke-linecap="round" stroke-linejoin="round"/>
<path d="M28.1697 26.1293L28.2683 27.7591" stroke="#0C0F1E" stroke-width="0.571646" stroke-linecap="round" stroke-linejoin="round"/>
<path d="M26.0579 27.1222V24.3628" stroke="#75E4A5" stroke-width="0.571646" stroke-linecap="round" stroke-linejoin="round"/>
<path d="M31.0632 24.9594L29.1118 23.008" stroke="#75E4A5" stroke-width="0.571646" stroke-linecap="round" stroke-linejoin="round"/>
<path d="M32.0806 17.7775L33.7103 17.6789" stroke="#0C0F1E" stroke-width="0.571646" stroke-linecap="round" stroke-linejoin="round"/>
<path d="M33.0739 19.8902H30.3145" stroke="#75E4A5" stroke-width="0.571646" stroke-linecap="round" stroke-linejoin="round"/>
<path d="M28.7146 14.0923L29.7971 12.8702" stroke="#0C0F1E" stroke-width="0.571646" stroke-linecap="round" stroke-linejoin="round"/>
<path d="M30.9106 14.8845L28.9592 16.8359" stroke="#75E4A5" stroke-width="0.571646" stroke-linecap="round" stroke-linejoin="round"/>
</svg>
