<svg width="50" height="50" viewBox="0 0 50 50" fill="none" xmlns="http://www.w3.org/2000/svg">
<path d="M18.3926 23.5539C18.3926 24.7869 17.719 26.0695 15.853 26.5784C11.1185 27.6634 8.38928 22.5185 9.07984 18.4001C9.77041 14.2817 12.253 11.7346 15.1048 12.244C17.8832 12.7459 18.0553 14.5553 18.0294 15.8605C17.9959 17.3973 16.1143 18.2355 16.1143 18.2355C14.3468 17.8167 14.3143 16.1402 14.3383 15.6959C14.3143 15.9997 14.1025 16.8303 12.8841 17.0275C12.8841 17.0275 13.911 18.3841 12.4893 19.1973C12.4893 19.1973 13.5412 20.2492 12.2756 21.4667C12.4862 21.4457 12.6988 21.473 12.8974 21.5463C13.0959 21.6196 13.2752 21.7372 13.4217 21.89C13.5681 22.0428 13.6779 22.2269 13.7427 22.4284C13.8076 22.6298 13.8257 22.8434 13.7959 23.053C13.9141 22.6633 14.0976 22.2965 14.3383 21.9681C14.5851 21.6167 14.9058 21.3236 15.2779 21.1093C15.6499 20.895 16.0644 20.7647 16.4921 20.7275C17.4803 20.7516 18.3926 22.1242 18.3926 23.5539Z" stroke="#0C0F1E" stroke-width="0.571646" stroke-linecap="round" stroke-linejoin="round"/>
<path d="M14.3442 15.6933C14.3496 15.6668 14.3521 15.6399 14.3518 15.6129V15.576" stroke="#0C0F1E" stroke-width="0.571646" stroke-linecap="round" stroke-linejoin="round"/>
<path d="M21.7067 15.6095L21.6935 15.6279C21.661 15.6784 21.6125 15.7165 21.5558 15.7364H21.5492C21.2771 15.7772 20.9994 15.7208 20.7648 15.5772C20.5302 15.4335 20.3536 15.2119 20.2662 14.951C20.2622 14.9433 20.2602 14.9347 20.2605 14.926C20.2642 14.9137 20.2664 14.9011 20.2671 14.8883C20.2696 14.8521 20.2789 14.8168 20.2945 14.784C20.4223 14.5704 20.8365 14.5902 21.2214 14.8274C21.594 15.051 21.8096 15.3949 21.7067 15.6095Z" stroke="#0C0F1E" stroke-width="0.381098" stroke-linecap="round" stroke-linejoin="round"/>
<path d="M22.1229 18.6185C22.0988 18.6285 22.0739 18.636 22.0484 18.6411C22.0136 18.6473 21.978 18.6473 21.9432 18.6411V18.6354C21.6908 18.5256 21.4859 18.3295 21.3649 18.0824C21.2439 17.8352 21.2148 17.553 21.2828 17.2864C21.2879 17.2701 21.2968 17.2552 21.3087 17.243C21.3369 17.222 21.3624 17.1976 21.3847 17.1703L21.3974 17.1585C21.6163 17.0449 21.9578 17.2873 22.1521 17.693C22.3465 18.0986 22.3417 18.5109 22.1229 18.6185Z" stroke="#0C0F1E" stroke-width="0.381098" stroke-linecap="round" stroke-linejoin="round"/>
<path d="M20.2598 14.9262C20.2634 14.9138 20.2657 14.9011 20.2664 14.8882" stroke="#0C0F1E" stroke-width="0.381098" stroke-linecap="round" stroke-linejoin="round"/>
<path d="M21.6882 15.6474C21.2453 16.6639 20.5385 17.5434 19.641 18.1945C19.1564 18.3468 18.6534 18.4325 18.1457 18.4492C17.7359 18.375 17.3207 18.334 16.9042 18.3266C16.8057 18.3266 16.7155 18.3181 16.6245 18.3101C19.8321 17.0771 20.2245 15.211 20.2566 14.9238C20.2561 14.9282 20.2565 14.9326 20.258 14.9368C20.2595 14.941 20.2619 14.9447 20.2651 14.9478C20.297 15.0836 20.3584 15.2108 20.445 15.3202C20.5315 15.4296 20.6412 15.5186 20.766 15.5808C20.8781 15.6602 21.0056 15.7151 21.1402 15.742C21.2749 15.7689 21.4137 15.7672 21.5476 15.737H21.5552C21.6044 15.7151 21.6494 15.6847 21.6882 15.6474Z" fill="#75E4A5" stroke="#0C0F1E" stroke-width="0.381098" stroke-linecap="round" stroke-linejoin="round"/>
<path d="M22.0494 18.6374C21.2723 18.8585 20.4642 18.9501 19.6574 18.9086C19.3689 18.7726 19.069 18.6621 18.7612 18.5784H18.7527C18.5555 18.5312 18.3503 18.4798 18.1447 18.4463C18.6523 18.4296 19.1553 18.3439 19.6399 18.1916C20.2477 17.9937 20.8093 17.6751 21.2909 17.2548C21.2914 17.2591 21.2909 17.2635 21.2896 17.2676C21.2883 17.2718 21.2862 17.2756 21.2833 17.2789C21.2357 17.4093 21.2184 17.5488 21.2325 17.6868C21.2466 17.8249 21.2919 17.958 21.3649 18.076C21.4123 18.2057 21.4888 18.3228 21.5885 18.4183C21.6881 18.5138 21.8084 18.5852 21.9399 18.627V18.6355C21.9757 18.6449 22.0133 18.6455 22.0494 18.6374Z" stroke="#0C0F1E" stroke-width="0.381098" stroke-linecap="round" stroke-linejoin="round"/>
<path d="M11.8589 24.2666C11.8589 24.2666 13.2391 26.3727 15.3844 25.7043C17.5296 25.0359 17.4282 23.5076 17.2344 22.6614C17.2344 22.6609 16.0556 26.376 11.8589 24.2666Z" fill="#75E4A5"/>
<path d="M12.7774 14.8221C13.1657 14.6081 13.3919 14.274 13.2827 14.076C13.1736 13.878 12.7703 13.891 12.382 14.1051C11.9937 14.3191 11.7675 14.6532 11.8766 14.8512C11.9858 15.0492 12.3891 15.0362 12.7774 14.8221Z" fill="#75E4A5"/>
<path d="M24.285 39.6557V39.0463C24.2883 38.7459 24.194 38.4525 24.0165 38.2101C23.8389 37.9677 23.5876 37.7894 23.3001 37.702C21.2053 37.0958 17.8478 34.9562 19.0992 32.6694C19.5454 31.9029 20.2465 31.3173 21.0803 31.0147C21.2614 30.9424 21.4163 30.8168 21.5245 30.6546C21.6327 30.4924 21.6892 30.3012 21.6865 30.1062C21.4695 20.4836 18.5982 20.9237 18.5982 20.9237C17.9215 20.697 17.2016 20.6295 16.4945 20.7265C16.0667 20.7637 15.6523 20.894 15.2802 21.1083C14.9082 21.3226 14.5875 21.6157 14.3407 21.9671C14.0999 22.2955 13.9165 22.6623 13.7982 23.052C13.8281 22.8424 13.8099 22.6288 13.7451 22.4274C13.6803 22.2259 13.5705 22.0418 13.424 21.8889C13.2776 21.7361 13.0983 21.6186 12.8997 21.5453C12.7012 21.4719 12.4886 21.4447 12.278 21.4656C13.5435 20.2482 12.4916 19.1963 12.4916 19.1963C13.9133 18.3831 12.8864 17.0265 12.8864 17.0265C14.103 16.8293 14.3166 15.9987 14.3407 15.6949C14.3166 16.1392 14.3492 17.8175 16.1166 18.2345C16.2819 18.2699 16.4492 18.2948 16.6176 18.309H16.6261C16.7171 18.3175 16.8072 18.3255 16.9058 18.3255C17.3223 18.3329 17.7374 18.3739 18.1473 18.4482C18.3525 18.4817 18.5582 18.5307 18.7548 18.5803H18.7633C19.0711 18.664 19.371 18.7744 19.6596 18.9105C19.7256 18.943 19.8011 18.9755 19.8648 19.009H19.8732C21.4185 19.8062 22.5855 21.376 22.9723 24.0968C23.3176 25.9767 23.4756 27.8862 23.444 29.7972C23.4411 29.8858 23.4563 29.9741 23.4886 30.0566C23.521 30.1391 23.5698 30.2141 23.6321 30.2771C23.6945 30.3401 23.769 30.3898 23.8512 30.423C23.9334 30.4562 24.0214 30.4723 24.11 30.4704C24.4949 30.4628 24.8115 30.4755 25.0152 30.4878C25.1817 30.4986 25.3487 30.4986 25.5152 30.4878C25.719 30.4751 26.0341 30.4628 26.4204 30.4704C26.5091 30.4724 26.5972 30.4563 26.6795 30.4231C26.7617 30.3899 26.8363 30.3403 26.8988 30.2773C26.9612 30.2143 27.0101 30.1393 27.0425 30.0567C27.075 29.9742 27.0902 29.8859 27.0874 29.7972C27.0561 27.8862 27.2141 25.9767 27.5591 24.0968C27.9454 21.376 29.1129 19.8043 30.6581 19.009H30.6666C30.7327 18.9755 30.8081 18.943 30.8718 18.9105C31.1604 18.7746 31.4603 18.6641 31.768 18.5803H31.7751C31.9723 18.5331 32.1775 18.4817 32.3836 18.4482C32.7932 18.3739 33.208 18.3329 33.6242 18.3255C33.7228 18.3255 33.8129 18.3171 33.9039 18.309H33.9124C34.0808 18.2948 34.2481 18.2699 34.4133 18.2345C36.1808 17.8156 36.2133 16.1392 36.1893 15.6949C36.2133 15.9987 36.4251 16.8293 37.6445 17.0265C37.6445 17.0265 36.6166 18.3831 38.0383 19.1963C38.0383 19.1963 36.9864 20.2482 38.252 21.4656C38.0411 21.4441 37.8281 21.4709 37.629 21.5439C37.43 21.617 37.2502 21.7344 37.1033 21.8873C36.9564 22.0402 36.8463 22.2245 36.7813 22.4263C36.7162 22.6281 36.698 22.8421 36.728 23.052C36.6097 22.6623 36.4263 22.2955 36.1855 21.9671C35.9388 21.6157 35.6183 21.3226 35.2463 21.1082C34.8743 20.8939 34.4599 20.7636 34.0322 20.7265C33.3248 20.6295 32.6046 20.697 31.9275 20.9237C31.9275 20.9237 29.0563 20.4845 28.8393 30.1062C28.8367 30.3011 28.8933 30.4923 29.0015 30.6544C29.1097 30.8166 29.2644 30.9422 29.4454 31.0147C30.279 31.3176 30.98 31.9032 31.4265 32.6694C32.677 34.9562 29.3195 37.0958 27.2247 37.702C26.9372 37.7895 26.6859 37.9678 26.5082 38.2101C26.3306 38.4525 26.2362 38.7458 26.2393 39.0463V39.6557" stroke="#0C0F1E" stroke-width="0.571646" stroke-linecap="round" stroke-linejoin="round"/>
<path d="M32.1348 23.5539C32.1348 24.7869 32.8093 26.0695 34.6744 26.5784C39.4088 27.6634 42.1381 22.5185 41.4475 18.4001C40.7569 14.2817 38.2749 11.7346 35.4225 12.244C32.6451 12.7459 32.472 14.5553 32.498 15.8605C32.5305 17.3973 34.4121 18.2355 34.4121 18.2355C36.1796 17.8167 36.2131 16.1402 36.1881 15.6959C36.2131 15.9997 36.4268 16.8303 37.6433 17.0275C37.6433 17.0275 36.6154 18.3841 38.0371 19.1973C38.0371 19.1973 36.9852 20.2492 38.2508 21.4667C38.0402 21.4457 37.8276 21.473 37.629 21.5463C37.4305 21.6196 37.2512 21.7372 37.1047 21.89C36.9583 22.0428 36.8485 22.2269 36.7837 22.4284C36.7188 22.6298 36.7007 22.8434 36.7305 23.053C36.6122 22.6633 36.4288 22.2965 36.1881 21.9681C35.9414 21.6167 35.6208 21.3236 35.2488 21.1093C34.8768 20.895 34.4625 20.7646 34.0348 20.7275C33.0475 20.7516 32.1348 22.1242 32.1348 23.5539Z" stroke="#0C0F1E" stroke-width="0.571646" stroke-linecap="round" stroke-linejoin="round"/>
<path d="M36.1753 15.576V15.6129C36.1753 15.6399 36.1782 15.6669 36.1838 15.6933" stroke="#0C0F1E" stroke-width="0.571646" stroke-linecap="round" stroke-linejoin="round"/>
<path d="M28.8192 15.6095L28.832 15.6279C28.8647 15.6786 28.9136 15.7168 28.9707 15.7364H28.9763C29.2484 15.7772 29.5261 15.7208 29.7607 15.5772C29.9954 15.4335 30.1719 15.2119 30.2593 14.951C30.2633 14.9433 30.2653 14.9347 30.265 14.926C30.2613 14.9137 30.2591 14.9011 30.2584 14.8883C30.2557 14.8522 30.2466 14.8169 30.2315 14.784C30.1027 14.5704 29.6895 14.5902 29.3042 14.8274C28.9339 15.051 28.7174 15.3949 28.8192 15.6095Z" stroke="#0C0F1E" stroke-width="0.381098" stroke-linecap="round" stroke-linejoin="round"/>
<path d="M28.4034 18.6185C28.4276 18.6285 28.4527 18.6361 28.4784 18.6411C28.5132 18.6473 28.5488 18.6473 28.5836 18.6411V18.6354C28.8359 18.5255 29.0408 18.3294 29.1618 18.0823C29.2828 17.8351 29.3119 17.553 29.244 17.2864C29.2392 17.2699 29.2303 17.255 29.2181 17.243C29.1899 17.2222 29.1647 17.1978 29.1431 17.1703L29.1303 17.1585C28.9114 17.0449 28.5695 17.2873 28.3756 17.693C28.1704 18.0906 28.1846 18.5109 28.4034 18.6185Z" stroke="#0C0F1E" stroke-width="0.381098" stroke-linecap="round" stroke-linejoin="round"/>
<path d="M30.2589 14.8882C30.2596 14.9011 30.2619 14.9139 30.2655 14.9262" stroke="#0C0F1E" stroke-width="0.381098" stroke-linecap="round" stroke-linejoin="round"/>
<path d="M28.8389 15.6474C29.282 16.6637 29.9888 17.5431 30.886 18.1945C31.3709 18.3469 31.8743 18.4326 32.3823 18.4492C32.7918 18.375 33.2067 18.334 33.6228 18.3266C33.7214 18.3266 33.8115 18.3181 33.9025 18.3101C30.695 17.0771 30.3025 15.211 30.2705 14.9238C30.271 14.9281 30.2705 14.9325 30.2692 14.9366C30.2679 14.9407 30.2658 14.9446 30.2629 14.9478C30.2307 15.0836 30.169 15.2107 30.0823 15.3201C29.9956 15.4295 29.8859 15.5185 29.761 15.5808C29.6491 15.6602 29.5218 15.7151 29.3873 15.742C29.2528 15.7689 29.1142 15.7672 28.9804 15.737H28.9719C28.9228 15.7148 28.8778 15.6845 28.8389 15.6474Z" fill="#75E4A5" stroke="#0C0F1E" stroke-width="0.381098" stroke-linecap="round" stroke-linejoin="round"/>
<path d="M28.4775 18.6374C29.2546 18.8584 30.0627 18.95 30.8695 18.9086C31.1581 18.7727 31.458 18.6622 31.7658 18.5784H31.7742C31.9714 18.5312 32.1775 18.4798 32.3827 18.4463C31.8747 18.4297 31.3714 18.344 30.8865 18.1916C30.2787 17.9937 29.7172 17.6751 29.2356 17.2548C29.2351 17.2592 29.2356 17.2637 29.237 17.2678C29.2385 17.272 29.2409 17.2758 29.244 17.2789C29.2912 17.4094 29.3083 17.5489 29.294 17.6869C29.2797 17.8249 29.2344 17.958 29.1615 18.076C29.1141 18.2057 29.0375 18.3228 28.9377 18.4183C28.838 18.5139 28.7177 18.5852 28.586 18.627V18.6355C28.5505 18.6447 28.5133 18.6454 28.4775 18.6374Z" stroke="#0C0F1E" stroke-width="0.381098" stroke-linecap="round" stroke-linejoin="round"/>
<path d="M38.6679 24.2666C38.6679 24.2666 37.2877 26.3727 35.1429 25.7043C32.9981 25.0359 33.099 23.5076 33.2929 22.6614C33.2929 22.6609 34.4717 26.376 38.6679 24.2666Z" fill="#75E4A5"/>
<path d="M38.6507 14.8508C38.7598 14.6528 38.5336 14.3187 38.1453 14.1046C37.757 13.8905 37.3537 13.8775 37.2446 14.0755C37.1354 14.2736 37.3616 14.6076 37.7499 14.8217C38.1382 15.0358 38.5415 15.0488 38.6507 14.8508Z" fill="#75E4A5"/>
<path d="M25.2636 34.83H20.7155C20.7155 34.83 21.1022 36.7191 25.2636 37.4186C29.4244 36.7191 29.8112 34.83 29.8112 34.83H25.2636Z" fill="#75E4A5"/>
</svg>
