<svg width="51" height="50" viewBox="0 0 51 50" fill="none" xmlns="http://www.w3.org/2000/svg">
<path d="M12.1338 23.2594L13.322 23.8354C13.322 23.8354 14.4145 21.2915 16.7597 20.1938C17.3128 19.9517 17.9061 19.8148 18.5093 19.7901C20.7418 19.621 22.9509 19.2214 25.1012 18.5976C25.2673 18.5501 25.4422 18.5418 25.6121 18.5735C25.7819 18.6051 25.942 18.6758 26.0799 18.78C26.2177 18.8841 26.3294 19.0189 26.4062 19.1737C26.4831 19.3284 26.5228 19.4989 26.5225 19.6717V40.2627C28.7701 41.7443 30.2206 40.2627 30.2206 40.2627V29.5816C30.2202 29.4983 30.2424 29.4166 30.2849 29.345C30.3274 29.2734 30.3885 29.2147 30.4618 29.1752C30.535 29.1357 30.6177 29.1169 30.7008 29.1208C30.784 29.1246 30.8645 29.151 30.9338 29.1971C31.7173 29.7302 33.014 30.2613 34.1234 31.1495C35.0957 31.9779 35.7387 33.1275 35.9357 34.3896C35.952 34.4907 36.0036 34.5827 36.0813 34.6495C36.159 34.7162 36.2578 34.7533 36.3602 34.7542H37.1739C37.2377 34.7541 37.3007 34.74 37.3585 34.7128C37.4162 34.6856 37.4673 34.6461 37.5081 34.597C37.5489 34.5479 37.5783 34.4904 37.5944 34.4287C37.6105 34.3669 37.6129 34.3024 37.6012 34.2396C37.2738 32.8749 36.5545 31.6357 35.5319 30.6745C36.1451 30.4566 38.0248 30.6745 38.0248 30.6745V29.8566C38.0251 29.7867 38.011 29.7175 37.9833 29.6533C37.9556 29.5891 37.915 29.5313 37.8639 29.4836C37.8128 29.4358 37.7525 29.3992 37.6866 29.3759C37.6207 29.3525 37.5507 29.3431 37.481 29.3481C36.2193 29.4266 34.955 29.2424 33.7682 28.807C32.5719 28.3708 31.5359 27.5824 30.7965 26.5457C30.4217 26.0353 30.2192 25.4186 30.2187 24.7853V8.69714C30.2187 8.97403 29.3852 9.19572 28.3612 9.19572C27.3371 9.19572 26.4979 8.9745 26.4979 8.69714V15.7471C26.5002 15.9473 26.4477 16.1443 26.346 16.3168C26.2443 16.4892 26.0973 16.6306 25.9211 16.7254C23.556 17.9519 17.4578 18.0665 15.9536 18.0665C14.8337 17.9915 13.7683 17.5558 12.9168 16.8245V18.1783C13.5171 18.7427 14.2529 19.1426 15.0531 19.3391C15.0835 19.3474 15.1106 19.3648 15.1308 19.389C15.151 19.4132 15.1632 19.443 15.1659 19.4744C15.1686 19.5058 15.1616 19.5373 15.1458 19.5645C15.13 19.5918 15.1062 19.6135 15.0777 19.6269C13.1569 20.5981 12.1338 23.2594 12.1338 23.2594Z" fill="white" stroke="#0C0F1E" stroke-width="0.571646" stroke-linecap="round" stroke-linejoin="round"/>
<path d="M29.0643 12.0387H28.528C28.3688 12.0387 28.2397 12.1677 28.2397 12.3269V39.0642C28.2397 39.2233 28.3688 39.3524 28.528 39.3524H29.0643C29.2234 39.3524 29.3525 39.2233 29.3525 39.0642V12.3269C29.3525 12.1677 29.2234 12.0387 29.0643 12.0387Z" fill="#75E4A5"/>
<path d="M26.499 8.69479C26.499 8.97168 27.3325 9.19338 28.3622 9.19338C29.392 9.19338 30.2198 8.97215 30.2198 8.69479C30.2198 8.41744 29.3863 8.20093 28.3622 8.20093C27.3382 8.20093 26.499 8.42404 26.499 8.69479Z" fill="white" stroke="#0C0F1E" stroke-width="0.571646" stroke-linecap="round" stroke-linejoin="round"/>
<path d="M23.9168 13.7221C23.9168 13.999 23.0833 14.2207 22.0535 14.2207C21.0238 14.2207 20.1951 13.9995 20.1951 13.7221C20.1951 13.4448 21.0295 13.2283 22.0535 13.2283C23.0776 13.2283 23.9168 13.4504 23.9168 13.7221Z" fill="white" stroke="#0C0F1E" stroke-width="0.571646" stroke-linecap="round" stroke-linejoin="round"/>
<path d="M38.2817 26.7547L37.0935 27.3307C37.0935 27.3307 36.0001 24.7868 33.6557 23.6892C33.103 23.4462 32.5095 23.3092 31.9062 23.2854C29.6735 23.1163 27.4642 22.7167 25.3137 22.0929C25.1478 22.0455 24.9731 22.0373 24.8034 22.0689C24.6337 22.1006 24.4737 22.1712 24.336 22.2753C24.1982 22.3793 24.0866 22.5139 24.0098 22.6685C23.933 22.8231 23.8932 22.9934 23.8935 23.166V37.5297C21.6449 39.0123 20.1944 37.5297 20.1944 37.5297V29.5925C20.1949 29.5093 20.1728 29.4276 20.1304 29.356C20.088 29.2844 20.027 29.2257 19.9539 29.1861C19.8807 29.1466 19.7982 29.1276 19.7151 29.1313C19.632 29.135 19.5515 29.1612 19.4821 29.2071C18.6977 29.741 17.402 30.2712 16.2925 31.1604C15.3198 31.9882 14.6767 33.1379 14.4803 34.4C14.4639 34.501 14.4123 34.593 14.3345 34.6595C14.2568 34.7261 14.1581 34.763 14.0557 34.7637H13.2421C13.1782 34.7637 13.1151 34.7496 13.0573 34.7224C12.9995 34.6953 12.9484 34.6557 12.9076 34.6066C12.8669 34.5575 12.8374 34.5 12.8213 34.4382C12.8053 34.3764 12.803 34.3118 12.8147 34.2491C13.1419 32.8846 13.8611 31.6457 14.8836 30.6849C14.2704 30.467 12.3906 30.6849 12.3906 30.6849V29.8665C12.3903 29.7967 12.4043 29.7275 12.4319 29.6634C12.4595 29.5992 12.5001 29.5415 12.5511 29.4937C12.6021 29.446 12.6623 29.4093 12.7282 29.3859C12.794 29.3626 12.8639 29.3531 12.9336 29.358C14.1955 29.4361 15.46 29.2519 16.6472 28.817C17.8434 28.3805 18.8793 27.5921 19.6189 26.5557C19.9931 26.0449 20.1952 25.4284 20.1958 24.7953V13.7222C20.1958 13.9991 21.0303 14.2208 22.0543 14.2208C23.0784 14.2208 23.9175 13.9995 23.9175 13.7222V19.241C23.915 19.4413 23.9675 19.6384 24.0692 19.8108C24.1709 19.9833 24.318 20.1246 24.4944 20.2193C26.8595 21.4458 32.9576 21.5604 34.4619 21.5604C35.5817 21.4854 36.6472 21.0497 37.4987 20.3184V21.6741C36.8979 22.2378 36.1622 22.6376 35.3623 22.8349C35.3319 22.8431 35.3047 22.8604 35.2844 22.8845C35.2641 22.9087 35.2518 22.9385 35.249 22.9699C35.2462 23.0013 35.2532 23.0328 35.2689 23.0601C35.2846 23.0874 35.3083 23.1093 35.3369 23.1226C37.2586 24.0929 38.2817 26.7547 38.2817 26.7547Z" fill="white" stroke="#0C0F1E" stroke-width="0.571646" stroke-linecap="round" stroke-linejoin="round"/>
<path d="M21.0293 21.9948C21.0293 21.9948 21.9406 27.6551 18.7024 28.3523C18.7024 28.3523 20.8934 28.508 21.3783 27.5976C21.8632 26.6872 21.0293 21.9948 21.0293 21.9948Z" fill="#75E4A5"/>
</svg>
